<?xml version="1.0" standalone="no"?>
<!DOCTYPE svg PUBLIC "-//W3C//DTD SVG 1.1//EN" "http://www.w3.org/Graphics/SVG/1.1/DTD/svg11.dtd" >
<svg xmlns="http://www.w3.org/2000/svg" xmlns:xlink="http://www.w3.org/1999/xlink" version="1.1">
<metadata></metadata>
<defs>
<font id="caroniregular" horiz-adv-x="0" >
<font-face units-per-em="2048" ascent="1638" descent="-410" />
<missing-glyph horiz-adv-x="614" />
<glyph unicode="ff" horiz-adv-x="1124" d="M18 659q-4 7 6 28t19 24q19 5 57.5 7t59.5 7l92 6q2 151 6 225q6 143 16 189q26 114 76.5 176.5t112.5 62.5h4q34 0 76 -22q127 -73 127 -279q0 -38 -9 -48t-38 -5q-28 4 -36.5 21t-8.5 65q0 93 -52 154q-18 23 -28 29t-25 6q-63 0 -98 -170q-27 -142 -27 -273v-131 q14 0 59.5 1.5t71.5 0.5q12 -1 40.5 1t70 5.5t67.5 5.5l91 11q3 75 10 184q9 141 22 190q29 117 82.5 180t118.5 60q33 -3 74 -27q53 -37 82.5 -102t27.5 -115q0 -35 -27 -53q-30 -19 -49 14q-12 19 -16 54q0 1 -2 13.5t-3.5 18t-4 19.5t-6 22t-8.5 20t-11 19.5t-14 15.5 t-18.5 12.5t-22.5 6.5q-63 6 -104 -172q-27 -184 -33 -352l143 12q59 6 80 -29q18 -29 -7 -52q-21 -19 -63 -19q-114 -9 -157 -14l-6 -164l-11 -582q-3 -143 -5 -213t-5 -107t-4.5 -40t-7.5 -17q-9 -23 -28 -27t-36 15q-18 17 -21 30q-10 36 -3 286q2 50 10 298 q9 305 18 514q-12 -2 -32 -2q-63 -4 -125 -4q-23 -2 -71.5 -4.5t-88.5 -6t-78 -9.5l2 -103q6 -145 10 -569q3 -277 1 -336.5t-11 -77.5q-9 -25 -26.5 -29t-34.5 13q-27 24 -32 111.5t-5 535.5v457h-98q-42 -3 -85 7t-51 21z" />
<glyph unicode="tt" horiz-adv-x="1030" d="M8 844q12 23 33 31.5t74 13.5q112 6 116 10q7 3 7 92q0 106 7 242.5t13 157.5q9 22 25 22q11 0 26 -18q17 -21 25 -81t14 -227l8 -169q0 -1 19 0t59 2.5t76.5 3.5t98 5t96.5 5v80q4 189 12 305q0 6 1 19t1.5 20.5t1.5 19.5t2.5 19t3.5 16.5t5 15t6.5 10.5t8.5 8t11 3 q30 0 40.5 -24.5t12.5 -73.5q1 -28 1.5 -94t2.5 -148q2 -70 2 -170h115q53 -3 73 -13t27 -38q5 -22 -8 -33q-9 -9 -23.5 -11.5t-56.5 -2.5l-127 -4q0 -36 -2 -123t-2 -152q-1 -34 1.5 -147.5t2.5 -143.5q0 -38 8 -108q2 -42 0.5 -55t-10.5 -23q-10 -12 -34.5 -13.5 t-37.5 9.5q-22 20 -29 111t-9 354q-3 255 -3 282l-340 -24q-14 -12 -17.5 -227.5t9.5 -311.5q4 -47 11 -104q2 -41 0 -53.5t-11 -22.5q-10 -12 -34 -13.5t-37 9.5q-23 19 -31.5 107.5t-11.5 345.5l-4 264l-17 -4q-39 -10 -91 -10.5t-73 8.5q-28 11 -41 25t-6 26z" />
<glyph unicode="&#x3a;&#x29;" horiz-adv-x="1036" d="M137 526q-24 100 3 139q20 27 47 -3q24 -28 40 -91q27 -121 127 -180q40 -26 77 -33.5t97 0.5q104 14 193 88t115 175q3 12 9 24.5t20 26.5t32 14q8 0 10 -2q71 -11 29 -135q-45 -142 -174 -219q-153 -92 -283 -84q-90 6 -149.5 30.5t-104.5 75.5q-67 79 -88 174z M354 1042q17 37 56 37h26q15 -6 27.5 -29t15.5 -51q0 -50 -35 -135q-16 -35 -38.5 -40.5t-38.5 28.5q-39 104 -13 190zM608 930q-8 42 1.5 83.5t31.5 45.5q6 2 14 2q24 0 46 -21t34 -59q1 -22 2.5 -32t-3 -31.5t-7 -30.5t-8.5 -29t-8 -27q-10 -21 -26.5 -27.5t-31.5 -0.5 q-27 27 -45 127z" />
<glyph unicode=" "  horiz-adv-x="614" />
<glyph unicode="&#x09;" horiz-adv-x="614" />
<glyph unicode="&#xa0;" horiz-adv-x="614" />
<glyph unicode="!" horiz-adv-x="477" d="M209.5 189q3.5 28 19.5 51q13 16 35 16q25 0 45 -23q35 -44 35 -73q-5 -15 -17 -27.5t-26 -13.5q-18 -4 -44 -1t-38 19q-13 24 -9.5 52zM221 1292q9 127 19 178q0 11 10 21t24 10h5q27 -3 44.5 -20.5t14.5 -38.5q2 -66 -5.5 -187t-8.5 -165q-2 -60 -5.5 -287.5 t-9.5 -327.5q0 -41 -35 -57q-1 0 -3.5 -1t-4.5 -1q-22 4 -33 41q-4 17 -5.5 37.5t-2 35.5t-1.5 39t-1 37q-8 393 -2 686z" />
<glyph unicode="&#x22;" horiz-adv-x="481" d="M68 1333q12 102 67 240q17 49 53 47h5q17 0 28 -8q9 -6 12.5 -16.5t3.5 -17t-4 -22.5t-4 -18q-16 -42 -36.5 -125t-22.5 -92q-1 -21 -22 -33t-42 -4q-19 1 -30 15.5t-8 33.5zM240 1321q-1 19 5 41.5t12.5 36.5t19.5 40l18 36q2 4 9 16l10.5 18t11 16t13.5 15t15 9.5 t19 4.5q2 0 4 2q12 0 24.5 -10t12.5 -22q-2 -32 -25.5 -86t-28.5 -74q-4 -9 -11 -46.5t-23 -51.5q-27 -18 -57.5 2.5t-28.5 52.5z" />
<glyph unicode="#" horiz-adv-x="1173" d="M169 710.5q-1 12.5 1 16.5q6 17 203 143l49 29v119q0 83 6 111t25 28q11 0 23 -38.5t16 -88.5q4 -63 12 -76q9 -11 108 33q100 42 103 45q3 0 10 111q7 85 19 114t38 29q19 0 26.5 -22.5t12.5 -87.5q7 -79 10 -82q11 -5 84 34q51 26 68.5 31t32.5 -2q23 -10 25 -27 t-17.5 -36t-54.5 -35q-36 -14 -97 -51q-37 -25 -50 -54.5t-13 -91.5v-3q0 -39 11 -41t75 23q3 1 4 1q47 16 68 12q15 -3 21.5 -23.5t0.5 -42.5q-4 -15 -42 -36.5t-85 -36.5q-29 -10 -39 -22t-13.5 -38.5t-2.5 -95.5q3 -96 -6 -129.5t-37 -36.5q-28 -5 -37.5 20.5t-9.5 106.5 q-4 107 -8 119q-4 15 -16 12.5t-75 -33.5q-85 -43 -98 -63q-14 -16 -14 -109q-2 -79 -12.5 -106.5t-40.5 -30.5q-31 -3 -39 17q-11 18 -11 96q0 80 -10 80q-12 0 -67 -41q-59 -44 -72 -47q-19 -6 -31 7.5t-12 39.5q0 29 27.5 56.5t91.5 62.5q53 29 63 48t10 89v61l-34 -18 q-15 -7 -90 -55q-48 -32 -72 -36t-33 21q-4 8 -5 20.5zM500 692q3 -16 19 -12.5t81 33.5q75 35 96 61.5t21 87.5q0 65 -6 68q-11 6 -96 -38t-95 -61q-12 -17 -19.5 -69.5t-0.5 -69.5z" />
<glyph unicode="$" horiz-adv-x="1030" d="M129 436v2q-4 47 2 54q3 6 14 10q4 4 19 4q17 -1 32 -16t23 -37v-2q20 -73 74.5 -126t128.5 -77q27 -8 43 -10q-6 118 0 284l6 209q-64 32 -108 63t-115 95q-48 45 -78 121q-26 68 -4 151q28 103 141 168q60 36 154 53l31 7q0 24 2 36v29q1 3 2 10.5t2 10.5q3 12 26 30 q21 6 35 6q22 -4 29 -18q2 -2 2 -6v-2q0 -6 2 -8v-31q0 -7 1 -26.5t1 -30.5q94 -9 182 -70q51 -35 83 -94t38 -135q3 -42 -4 -54q-3 -9 -12 -12q-4 -2 -15 -2q-32 0 -53 53v2q-14 72 -63.5 124.5t-118.5 76.5l-37 12q-4 -160 -4 -278q0 -34 -2 -107t-2 -110q4 -1 9.5 -5 t6.5 -4q162 -74 246 -149q62 -55 84 -121q27 -64 4 -149q-26 -97 -158 -168q-87 -49 -198 -58v-39q-6 -64 -21 -79q-20 -23 -39 -23q-20 0 -26 25q-15 43 -21 114q-126 6 -213 68q-120 82 -131 229zM264 1135q-12 -57 25 -115q58 -90 188 -164l12 438q-78 -10 -133 -49 q-81 -57 -92 -110zM582 233q79 10 143 48q85 51 104 114q10 59 -28 111q-62 84 -217 170q0 -86 -1 -216t-1 -159v-68z" />
<glyph unicode="%" horiz-adv-x="1116" d="M68 1200q8 63 63 129q34 41 87.5 56.5t111.5 7.5q33 -2 90.5 -23.5t79.5 -26.5q17 -4 36 -4t32.5 0.5t35.5 7t31.5 9t34.5 14t30.5 13.5t33.5 16.5t30 15.5q11 4 38 23t46 20h2q25 0 39 -14q5 -6 8 -12.5t5 -14t3 -13.5t0 -15.5t-1 -14.5t-2.5 -15.5t-3.5 -14t-3.5 -14.5 t-3.5 -13q-19 -57 -48 -116.5t-69 -132t-59 -110.5q-37 -73 -155.5 -314t-186.5 -370q-12 -23 -31 -72.5t-39.5 -84.5t-50.5 -60q-16 -16 -36 -20t-36 12q-25 52 13 115q141 224 303 579q40 88 119 249.5t112 230.5q1 4 7 15.5t8.5 20.5t0.5 17q-18 3 -49.5 -5t-40.5 -9 q-23 -5 -70.5 -11.5t-70.5 -11.5q-4 -17 -5.5 -60t-10.5 -65q-23 -74 -93 -117t-147 -32q-83 12 -139 82t-49 153zM172 1137q25 -43 73 -67t97 -17q38 8 58 46t20 81q3 25 -13 44t-40 27q-12 4 -35.5 24.5t-40.5 20.5h-6q-59 0 -99 -53t-14 -106zM589.5 359.5 q-0.5 28.5 8.5 57t20 51t27 50.5q25 41 68 65.5t90 24.5q107 0 192 -78q58 -49 54 -176q-12 -76 -74 -131t-141 -69q-74 -13 -140 33t-94 118q-10 26 -10.5 54.5zM713 383q-4 -36 15 -69t52 -52q36 -18 73 -8.5t67 37.5q45 36 34 104q-15 46 -59 76.5t-92 30.5q-23 0 -33 -6 q-31 -13 -45.5 -45.5t-11.5 -67.5z" />
<glyph unicode="&#x26;" horiz-adv-x="1107" d="M127 467q9 203 180 342l12 14l-49 92q-35 67 -47.5 103.5t-23.5 99.5q-20 104 37 209q66 121 196 146h23q70 0 129 -56q62 -62 80 -166q16 -108 -29.5 -236t-159.5 -253q45 -65 110 -156t134 -190l10 -10q1 2 3 8t5 14.5t6 17.5q2 7 6.5 23t8 30t6.5 27q11 36 18 78 q4 20 4 29v12q-6 54 19 86q11 18 31 21q19 3 38 -13q31 -25 31 -71q3 -40 -20 -113q-46 -147 -54 -180q-10 -30 -10 -45l-2 -15q39 -51 73 -82.5t50.5 -41t44.5 -21.5q33 -10 64 -31q20 -16 22 -33q7 -24 -12 -43h-2q-29 -29 -82 -12q-43 11 -94 49q-47 34 -84 72 q-22 22 -37 43l-6 -10q-11 -11 -39 -35q-56 -49 -96 -68q-101 -44 -195 -35t-170 74t-106 168q-15 46 -19.5 77.5t-3.5 80.5zM250 498q-11 -67 2.5 -132.5t50.5 -111.5q89 -107 270 -57q64 26 97 79q10 15 10 21q-2 6 -12 20q-47 66 -144 196.5t-123 166.5q-6 10 -14 18h-2 q-115 -85 -135 -200zM297 1214q-20 -103 49 -233q54 -96 57 -100q2 -6 7 -11q57 35 103.5 118.5t57.5 168.5q13 91 -22 141q-33 48 -103 48q-15 -3 -30 -3q-97 -29 -119 -129z" />
<glyph unicode="'" horiz-adv-x="352" d="M104 992q-3 32 24 211q24 158 24 231q0 26 26 34.5t45 -6.5q24 -28 26.5 -98.5t-12 -147t-45.5 -147t-69 -96.5q-17 -11 -19 19z" />
<glyph unicode="(" horiz-adv-x="626" d="M127 770q3 189 33.5 318.5t95.5 267.5q36 78 102 160q14 21 56 63q7 9 20 18q10 7 17 9h2q15 0 24 -17q6 -14 2 -39q-11 -56 -49 -100q-60 -68 -113.5 -203t-66.5 -256q-32 -298 11 -515t190 -404l24 -23q16 -13 19 -31q0 -20 -2 -26q-9 -13 -15 -15q-15 -8 -45 7 q-53 23 -88 67q-71 89 -118.5 197.5t-67 213.5t-25.5 173t-6 135z" />
<glyph unicode=")" horiz-adv-x="616" d="M168 1561q-2 12 2 28q4 12 14 15q1 0 5 1t6 1h4q3 0 30 -9q53 -23 88 -67q70 -89 117.5 -198t66.5 -212t25.5 -174t5.5 -135q-1 -191 -31 -320.5t-95 -265.5q-33 -71 -103 -162q-34 -43 -55 -61l-21 -20q-11 -7 -16 -7h-2q-18 0 -25 17q-6 14 -2 39q10 54 49 98 q59 68 112.5 204t68.5 257q32 296 -11.5 513.5t-191.5 403.5q-9 13 -25 25q-16 16 -16 29z" />
<glyph unicode="*" horiz-adv-x="559" d="M68 1286q0 17 8 29q10 10 24 10q29 0 76 -35q18 -15 35 -22q2 -1 11 -8.5t11 -8.5q7 1 8 32t-0.5 65t3.5 59q6 35 24 41h8q9 0 29 -4q9 -3 14 -8t9 -17q1 -10 -2 -94q-4 -49 0 -78q6 2 10 6q3 2 31 27t36 31q17 14 35 18q16 3 25 0q14 -8 22 -39q0 -16 -10 -28 q-12 -15 -39 -33q-35 -25 -63 -53l-11 -11l-2 -2q0 -2 2 -4l13 -10q12 -10 43 -29q33 -22 53 -47q14 -14 18 -33q6 -17 -8 -34q-21 -14 -39 -7q-10 3 -65 41q-22 19 -39 27q-6 4 -35 31q0 -13 -2 -15q7 -42 0 -79q-10 -76 -27 -93q-10 -10 -22 -10q-13 3 -21 14 q-13 18 -16 64q-1 18 10 111q-21 -26 -59 -56q-24 -21 -53 -24q-28 0 -39 20q-11 22 2 45q11 19 45 33q21 6 57 33l25 22l-19 15q-18 10 -69 47q-23 13 -37 30q-10 10 -10 31z" />
<glyph unicode="+" horiz-adv-x="888" d="M68 625q0 15 13.5 34.5t35.5 24.5q12 3 264 10l-6 146q-7 161 18 161q50 -3 68 -30t22 -74q6 -73 9 -199l167 7q162 8 162 -19q-1 -26 -9.5 -43.5t-26 -26.5t-30.5 -12.5t-38 -7.5q-12 -2 -221 -10q4 -254 -2 -287q-6 -47 -39 -51q-15 0 -35 13.5t-25 35.5q-3 11 -10 287 q-233 -4 -266 2q-47 6 -51 39z" />
<glyph unicode="," horiz-adv-x="282" d="M68 -47q1 21 26 164q23 131 23 205q0 26 26 34.5t45 -6.5q24 -28 27 -87t-12 -122t-46 -121.5t-69 -85.5q-20 -13 -20 19z" />
<glyph unicode="-" horiz-adv-x="679" d="M68 600q0 15 13.5 34.5t35.5 24.5q30 7 334 21q161 7 161 -18q-1 -27 -10 -44.5t-25 -26.5t-31 -13t-38 -7q-51 -7 -200.5 -11t-188.5 1q-47 6 -51 39z" />
<glyph unicode="." horiz-adv-x="270" d="M68 160q0 30 34 73q14 20 38 23t40 -16q18 -22 22 -50.5t-9 -52.5q-12 -16 -38 -19t-44 1q-14 1 -27 14t-16 27z" />
<glyph unicode="/" horiz-adv-x="919" d="M3 -175.5q3 30.5 15 44.5q19 19 45 76q65 140 270 606.5t347 751.5q74 140 115 223q31 64 46.5 83t37.5 19q27 0 36 -12q10 -15 -24 -103t-103 -225q-150 -295 -276.5 -580t-290.5 -685q-9 -24 -36 -71t-38 -71q-8 -19 -21.5 -47.5t-14.5 -32.5q-9 -15 -49.5 -22.5 t-51.5 4.5q-10 11 -7 41.5z" />
<glyph unicode="0" horiz-adv-x="876" d="M127 729q0 173 18 258q43 202 134 337.5t184 135.5q82 0 158.5 -108.5t128.5 -300.5q99 -369 -27 -701q-25 -65 -46.5 -101t-53.5 -67q-52 -49 -115.5 -65t-126.5 4q-45 13 -101 69.5t-85 118.5q-41 87 -54.5 168t-13.5 252zM233 741q0 -93 4 -136.5t17 -98.5 q57 -222 178 -268q31 -10 44.5 -10t39.5 10q38 17 66 56.5t51 111.5q56 168 59 358q0 69 -4.5 108.5t-19.5 100.5q-54 207 -125 300.5t-140 47.5q-77 -53 -123 -208.5t-47 -371.5z" />
<glyph unicode="1" horiz-adv-x="440" d="M168 801q0 226 2 340.5t9.5 185.5t18.5 85t33 7q23 -6 32.5 -30t13.5 -83.5t4 -191.5q0 -302 22 -792q6 -117 -1 -155t-38 -50q-50 -24 -67 8q-32 59 -29 676z" />
<glyph unicode="2" horiz-adv-x="843" d="M135 102q-15 15 2.5 56t79.5 137q158 242 289 504q86 168 107.5 251t2.5 173q-15 65 -66.5 96.5t-111.5 11.5q-24 -9 -36 -20.5t-25 -38.5q-14 -30 -18 -52.5t-3 -62.5q0 -68 4 -88q3 -18 -22 -31q-57 -29 -74 55q-8 43 -4 109q6 117 56.5 177t148.5 69q39 5 59.5 1 t59.5 -24q53 -26 89 -63.5t46 -77.5q12 -46 12 -141q0 -72 -5 -99.5t-30 -85.5q-32 -82 -136 -286.5t-150 -276.5q-105 -161 -105 -166q17 0 72 9q67 8 166 2t139 -19q43 -15 63.5 -36.5t10.5 -41.5t-45.5 -24t-132.5 4q-91 7 -184.5 2t-145.5 -19q-28 -9 -67.5 -10.5 t-45.5 6.5z" />
<glyph unicode="3" horiz-adv-x="970" d="M127 379.5q-2 48.5 18 62.5q19 15 31 15q18 0 39.5 -29t36.5 -74q18 -57 47.5 -92.5t77.5 -60.5q32 -15 51 -18.5t51 -0.5q106 9 203 109q56 60 73 105t17 134q0 161 -63 224q-29 29 -71 42t-128 17q-96 4 -113 12q-23 12 -11 44t67 104q22 29 116 160q49 72 76 110 q57 82 8 94q-26 4 -114 -6q-101 -10 -152.5 -8.5t-85.5 16.5q-23 10 -31 18.5t-8 22.5q0 29 32.5 40.5t137.5 17.5q265 18 305 -4q37 -20 48.5 -81.5t-11.5 -117.5q-15 -38 -108 -158q-91 -123 -91 -125q0 -7 48 -18q142 -32 206 -137.5t58 -296.5q-3 -77 -9 -102t-34 -83 q-66 -133 -189 -199.5t-249 -37.5q-70 17 -146 79t-110 130q-21 44 -23 92.5z" />
<glyph unicode="4" horiz-adv-x="864" d="M139 707q-29 17 13 135q27 73 46.5 205t24.5 270q7 148 15 164q9 17 27 15.5t40 -21.5q17 -12 22.5 -26.5t8.5 -49.5q5 -82 -12 -263.5t-37 -248.5q-12 -45 2.5 -54t95.5 -8l86 4l-4 56q-6 150 63 129q20 -6 29.5 -30.5t15.5 -86.5q7 -72 15 -80q15 -7 110 -4 q69 0 90.5 -3t30.5 -13q10 -12 10.5 -19t-8.5 -20q-25 -38 -44 -45.5t-93 -7.5h-90v-127q0 -161 -7.5 -318t-15.5 -168q-9 -12 -37 -18t-40 2q-17 10 -20.5 62t1.5 222q3 90 3.5 180t-1.5 111l-6 64l-113 -2q-78 0 -159 -6q-47 -8 -62 0z" />
<glyph unicode="5" horiz-adv-x="899" d="M127.5 290q-6.5 43 17.5 70q32 40 72 -45q43 -95 122.5 -123t180.5 15q62 27 107 90t62.5 140t14.5 155t-36.5 143t-89.5 94q-45 23 -121 26t-148 -17q-29 -6 -39.5 14.5t-9.5 81.5q5 160 15.5 302t19.5 157q14 20 59 26.5t217 10.5q145 4 177.5 2t48.5 -15 q22 -17 16 -43q-5 -22 -22.5 -31.5t-60 -14t-142.5 -7.5q-179 -6 -189 -16q-9 -9 -13.5 -114t1.5 -159l6 -51h56q189 0 282 -117.5t82 -341.5q-3 -99 -22 -160q-43 -135 -149.5 -214.5t-240.5 -77.5q-68 0 -92 8q-45 13 -87 49t-65 78t-29.5 85z" />
<glyph unicode="6" horiz-adv-x="856" d="M127 467q0 145 50.5 293.5t168.5 347.5q130 221 229 296q65 50 87 9q10 -20 -1.5 -43.5t-66.5 -91.5q-86 -106 -166.5 -242t-112.5 -227l-12 -37l39 8q54 12 123 9.5t104 -17.5q109 -49 163 -162.5t35 -241.5t-108 -218q-58 -58 -146 -79t-163 5q-47 18 -71.5 34.5 t-53.5 51.5q-54 66 -76 135.5t-22 169.5zM231 416q15 -130 92.5 -193.5t184.5 -34.5q31 9 72.5 46t56.5 69q46 98 13 211.5t-122 159.5q-34 18 -91.5 15t-102.5 -25q-53 -26 -68 -48q-19 -23 -30 -85.5t-5 -114.5z" />
<glyph unicode="7" horiz-adv-x="845" d="M127 1374q-3 22 14 29q28 12 235 17l60 1q112 1 177 2.5t98 -3.5t42 -12t9 -22q0 -21 -25.5 -79t-118.5 -252q-97 -202 -164 -367.5t-137 -374.5q-67 -197 -86 -211q-22 -13 -44.5 -17.5t-34.5 3.5q-20 10 -14 44.5t46 131.5q72 181 125 330q136 374 236 553 q78 141 78 172q0 7 -40.5 9.5t-168.5 2.5q-171 -1 -226.5 7t-60.5 36z" />
<glyph unicode="8" horiz-adv-x="872" d="M129 391q-6 110 23.5 192t101.5 160l55 60l-26 26q-66 63 -90 182t8 220q40 132 152.5 191t221.5 5q132 -68 175 -264q19 -91 -3.5 -174t-82.5 -141l-39 -39l63 -66q61 -64 82.5 -121t15.5 -139q-8 -119 -69.5 -226t-143.5 -142q-34 -15 -108.5 -21.5t-112.5 2.5 q-40 10 -94 42t-76 57q-26 32 -37 74.5t-16 121.5zM242 451q0 -134 67 -207q42 -49 101 -58.5t120 21.5q62 31 102.5 104t41.5 158q1 67 -14 113t-52 86q-37 42 -64.5 57.5t-72.5 19.5q-30 5 -44 1.5t-40 -21.5q-36 -28 -70.5 -70.5t-54.5 -85.5q-20 -44 -20 -118zM295 1151 q-6 -74 2.5 -114t38.5 -79q37 -47 69.5 -62.5t86.5 -12.5q35 2 52.5 7.5t39.5 22.5q55 44 75 118t-2 143q-13 41 -57.5 92.5t-81.5 68.5q-83 40 -150 -15t-73 -169z" />
<glyph unicode="9" horiz-adv-x="837" d="M126.5 1010.5q1.5 89.5 16.5 144.5q23 89 72 158.5t109.5 106.5t131.5 35t134 -50q21 -19 45 -8q22 8 47 -4q13 -5 17 -10.5t6 -23t0 -50.5q0 -68 -23 -181q-14 -78 -18 -163t-7 -394q-2 -448 -16 -473q-26 -40 -70 -2q-15 12 -19.5 42t-8.5 167q-6 318 -6 336v143 l-48 -22q-42 -21 -107 -27t-112 6q-43 12 -81 50.5t-50 82.5q-14 47 -12.5 136.5zM225 977q11 -92 60.5 -129t134.5 -14q74 20 118 114t44 230q0 77 -19 116q-31 60 -100.5 71.5t-116.5 -34.5q-54 -52 -91.5 -161.5t-29.5 -192.5z" />
<glyph unicode=":" horiz-adv-x="270" d="M68 160q0 30 34 73q14 20 38 23t40 -16q18 -22 22 -50.5t-9 -52.5q-12 -16 -38 -19t-44 1q-14 1 -27 14t-16 27zM68 649q0 31 34 74q14 20 38 22.5t40 -16.5q18 -22 22 -50t-9 -52q-17 -24 -82 -19q-14 1 -27 14t-16 27z" />
<glyph unicode=";" horiz-adv-x="286" d="M69 -47q-2 30 24 205q24 154 24 227q0 26 26 35t45 -6q24 -28 26.5 -97t-12 -144t-45.5 -143.5t-69 -95.5q-17 -12 -19 19zM84 649q0 30 35 74q14 20 38 22.5t40 -16.5q18 -22 21.5 -50t-9.5 -52q-17 -24 -82 -19q-14 1 -27 14t-16 27z" />
<glyph unicode="&#x3c;" horiz-adv-x="731" d="M131 737q-13 23 14 54q118 146 215 229l101 88q16 16 47 20q35 -9 43 -22q11 -10 11 -27t-11 -28q-16 -20 -52 -50.5t-50 -44.5q-121 -118 -187 -211q-15 -19 -6 -28q9 -17 22 -34t31.5 -37t26.5 -30q33 -35 69.5 -71t87 -84t70.5 -68q2 -2 8 -8.5t8.5 -10t7.5 -9.5 t7 -11t3 -11.5t1 -12.5q-4 -16 -14.5 -28t-26.5 -9q-11 2 -20.5 6t-20.5 11.5t-17 12t-19.5 16.5t-16.5 15q-125 109 -256 256q-61 77 -76 127z" />
<glyph unicode="=" horiz-adv-x="888" d="M68 494q0 15 13.5 34.5t35.5 24.5q11 3 85.5 5t211.5 6t245 9q162 8 162 -18q-1 -27 -10 -44.5t-25.5 -26.5t-31 -12.5t-37.5 -6.5q-50 -6 -305 -11t-293 1q-47 6 -51 39zM68 748q0 15 13.5 34.5t35.5 24.5q11 3 85.5 5t211.5 6t245 9q162 8 162 -18q-1 -27 -10 -44.5 t-25.5 -26.5t-31 -12.5t-37.5 -6.5q-50 -6 -305 -11t-293 1q-47 6 -51 39z" />
<glyph unicode="&#x3e;" horiz-adv-x="722" d="M168 330v8.5t1.5 8.5t3 7t4.5 7.5t4.5 6.5t5.5 6.5t5.5 6l6.5 6.5l6 6q176 172 225 223q7 8 21.5 23.5t23 25t19 24t16.5 28.5q7 7 -4 28q-57 81 -187 211q-15 15 -51 45t-53 50q-9 10 -9 27.5t9 27.5q7 12 43 22q33 -4 47 -20l103 -88q91 -79 215 -229q25 -29 14 -54 q-16 -54 -78 -127q-131 -147 -256 -256q-2 -2 -11.5 -11t-12.5 -11.5t-11.5 -10t-14 -10.5t-13.5 -7.5t-15.5 -7t-15.5 -3.5q-16 -3 -26.5 9t-14.5 28z" />
<glyph unicode="?" horiz-adv-x="737" d="M68 1265q-5 29 24 93q24 33 69 68.5t91 52.5q55 20 96 20q53 0 121 -26q68 -27 118 -77.5t68 -103.5q12 -38 14 -116.5t-7 -114.5q-39 -148 -197 -211q-25 -9 -37 -14t-26 -18.5t-15 -31.5q-8 -168 -14 -227.5t-19 -73.5q-9 -12 -30 -17t-31 3q-33 23 -23 315 q4 103 125 136q159 44 170 262q3 31 -0.5 46.5t-17.5 43.5q-19 36 -46.5 67t-51.5 43q-33 13 -84 13q-54 0 -83 -13t-63 -51q-39 -55 -92 -81q-52 -25 -59 13zM250 193q9 26 34.5 42.5t55.5 18.5h4q25 1 39.5 -17.5t11.5 -41.5q-9 -59 -33 -78q-15 -7 -33.5 -7t-31.5 9 q-2 2 -12.5 12t-14.5 14.5t-10.5 13.5t-8.5 17t-1 17z" />
<glyph unicode="@" horiz-adv-x="1255" d="M127 618q-6 105 37 213q48 135 172 234q175 150 342 147q121 3 209 -38q150 -70 235 -209q63 -97 47 -217q-6 -85 -56.5 -157.5t-127.5 -111.5q-19 -10 -32 -15.5t-32.5 -12.5t-35 -9.5t-34 -2t-34.5 6.5q-16 5 -46 20.5t-54.5 22.5t-48.5 3q-79 -23 -125 -19 q-53 2 -97.5 31.5t-54.5 79.5q-14 74 13 148.5t85 121.5q4 3 15.5 13t17 14.5t16.5 13t18.5 12.5t17.5 9t20 7.5t20 2.5q79 5 156 -76q6 -8 17.5 -23t21 -28t16.5 -25q3 -10 4 -22t1 -20.5t-2 -23.5t-2.5 -20t-4.5 -23t-4 -20q-1 -4 -3 -16t-2.5 -18.5t-0.5 -16t2.5 -17 t7.5 -14.5q37 -26 85.5 -20.5t80.5 39.5q74 74 70 209q6 94 -66 180q-81 105 -233 139q-81 13 -152 -4q-137 -40 -241 -154q-98 -115 -112 -274t60 -289q42 -97 179 -158q124 -51 202 -53q124 -8 254 72q13 7 48.5 36t60.5 36q16 5 30 -4t13 -27q-1 -31 -23.5 -59t-52.5 -39 q-110 -73 -186 -95q-73 -28 -222 -24q-101 17 -239 84q-84 41 -143 119.5t-87 173.5q-23 69 -20 167zM498 672q-12 -27 0.5 -54t38.5 -40q28 -19 67 -16.5t60 30.5q43 72 43 153q3 29 -15.5 55t-46.5 27q-11 0 -27 -4q-47 -16 -78 -58t-42 -93z" />
<glyph unicode="A" horiz-adv-x="960" d="M66 160q0 57 18 119t80 208q36 86 112 299l109 312q67 194 80 239q21 72 27 84q3 7 14.5 13t23.5 6q2 0 6.5 -1t6.5 -1q17 -7 25 -25.5t14 -62.5q11 -78 51 -203q43 -134 67 -232q18 -72 31 -101t31 -38q17 -12 21 -25.5t-1 -37.5q-1 -7 -1 -17q0 -61 48 -233 q48 -173 61 -241q7 -36 7 -60q0 -23 -6 -35q-9 -22 -27 -35q-9 -8 -13.5 -8t-14.5 8q-16 11 -30 45.5t-38 124.5q-102 382 -109 389q-5 5 -127 19q-99 12 -139 20q-22 3 -34 -15t-37 -87q-44 -124 -86 -223q-18 -44 -44.5 -113.5t-31.5 -79.5q-43 -90 -67 -91q-10 0 -19 13 q-9 9 -9 44q0 10 1 22zM403 827q0 -27 32.5 -37t127.5 -10q68 0 70 6v2q-10 27 -54 185.5t-44 163.5q0 7 -9 20q-2 4 -6 4q-5 0 -28 -53q-25 -55 -57 -156.5t-32 -124.5z" />
<glyph unicode="B" horiz-adv-x="897" d="M172 330q8 70 8 585q0 524 6 539q8 20 30 26.5t89 6.5q121 0 189.5 -16t115.5 -56q83 -65 83 -194q0 -26 -3 -54q-6 -49 -20 -104q-9 -33 -33 -73.5t-49 -63.5l-19 -17l33 -24q156 -117 203 -299q9 -35 9 -85q0 -14 -1 -28q-3 -87 -27.5 -146t-78.5 -104 q-69 -61 -168 -84q-49 -12 -117 -16q-27 -2 -48 -2q-32 0 -50 4q-80 17 -115 55q-28 30 -36 60q-4 16 -4 41q0 21 3 49zM289 571q-1 -51 -1 -93q0 -214 13 -230q6 -10 45.5 -19.5t73.5 -9.5q37 0 74 6q113 28 176 125q24 38 31 76q4 20 4 47q0 23 -3 49q-7 63 -27 101.5 t-69 91.5q-57 60 -90.5 83t-71.5 27q-12 2 -41 2q-91 0 -104 -16q-8 -10 -10 -240zM291 1163q0 -173 7 -202q7 -31 34 -30q12 1 59 15q138 40 176 137q15 39 15 91q0 137 -82 186q-21 12 -37 14t-72 4q-14 2 -37 2q-41 0 -51 -10q-9 -4 -10.5 -33t-1.5 -174z" />
<glyph unicode="C" horiz-adv-x="954" d="M168 690q-1 20 -1 41q0 141 36 289q31 133 79 217.5t132 153.5q87 71 153 84q27 6 51 6q63 0 115 -35t80 -98q16 -36 19.5 -62t-5.5 -40.5t-30 -14.5q-11 0 -26 12.5t-48 50.5q-60 69 -92 80q-8 3 -19 3q-29 0 -71 -23q-157 -88 -213 -291q-25 -91 -38 -229 q-8 -85 -8 -148q0 -38 3 -68q14 -148 53 -235q27 -59 82 -106t108 -54q18 -4 60 5t76 24q21 7 104 59q66 41 85 41h3q16 -8 15 -27.5t-22 -50t-56 -61.5q-80 -70 -152 -90q-35 -9 -107 -13q-27 -1 -47 -1q-35 0 -53 4q-57 13 -129 100q-69 85 -99.5 189t-37.5 288z" />
<glyph unicode="D" horiz-adv-x="956" d="M168 1401q12 34 51 37h2q29 -4 53 -17q50 -27 184 -162t199 -221q83 -111 143.5 -250.5t69.5 -238.5q2 -16 2 -32q0 -121 -86 -227q-98 -120 -264 -171q-63 -19 -149 -21q-23 -1 -43 -1q-59 0 -84 7q-44 12 -58.5 32.5t-15.5 76.5q-2 87 -4 629q-1 325 0 461v98z M270 1065q0 -53 1.5 -125.5t4 -150t3.5 -105.5q6 -270 6 -326q0 -164 6 -168q3 -10 20 -6l105 21q101 17 163.5 48t108.5 87q61 72 64 172q3 21 3 41q0 26 -5 49q-8 38 -39.5 110t-65.5 126q-81 129 -190 263.5t-166 166.5l-19 10v-213z" />
<glyph unicode="E" horiz-adv-x="823" d="M170 203q3 34 3 241q0 124 -1 310q-2 264 -2 546q0 73 11 98t50 34q34 7 153 14.5t189 7.5q87 0 118.5 -4t41.5 -20q8 -12 4.5 -30.5t-16.5 -25.5q-14 -3 -170 -10q-214 -9 -270 -27q-11 -3 -13.5 -7.5t-1.5 -22.5q7 -355 10 -387l5 -62l176 -2q171 -3 186 -12 q22 -13 12 -47q-5 -14 -10 -19.5t-28 -10t-54.5 -5.5t-105.5 -2l-166 -2l-2 -41q-5 -111 -9 -281q-2 -79 -1 -131q0 -58 2 -80l6 -18h196q84 0 126.5 -1t69.5 -4.5t34.5 -9t9.5 -16.5q2 -15 -7 -32.5t-22 -24.5q-25 -10 -215 -13q-216 -4 -235 -6q-12 -2 -37 -2q-2 0 -4 2 q-6 0 -8 2q-19 8 -24 28q-3 11 -3 32q0 17 2 41z" />
<glyph unicode="F" horiz-adv-x="804" d="M168 556q4 366 12 488q7 102 13 248q0 83 7 105t38 41q36 18 77 23t183 5h98q128 0 173 -5t48 -19q3 -9 -1.5 -24t-14.5 -25q-13 -13 -59 -19t-185 -14q-28 -2 -57 -3.5t-49 -2t-40 -2t-33.5 -2t-26 -1.5t-20 -1.5t-14 -1t-9 -1.5t-3.5 -2q-2 -5 -6 -53q-3 -44 -8.5 -203 t-5.5 -202v-43l209 2q75 1 126 1q84 0 97 -3q26 -6 8 -38q-16 -27 -47 -44q-20 -10 -193 -17q-177 -7 -190 -16q-11 -6 -15 -63q-2 -31 -2 -100q0 -60 1 -148q1 -87 1 -143q0 -75 -2 -97q-4 -38 -32 -65q-12 -19 -30 -20.5t-30 13.5h-2q-11 11 -14 50q-3 21 -3 157 q0 94 1 245z" />
<glyph unicode="G" horiz-adv-x="962" d="M128 784q5 200 26 299q3 15 47 127q21 50 35.5 74t42.5 55q72 82 163 128t179 46q14 0 22 -2q91 -6 164 -79q45 -45 45 -73q0 -6 -2 -11q-12 -32 -44.5 -27.5t-78.5 45.5q-46 40 -61 45q-16 6 -35 6q-46 0 -111 -31q-93 -45 -153 -118q-62 -76 -90 -167.5t-37 -252.5 q-2 -44 -2 -87q0 -128 20 -241q27 -150 80 -205q62 -65 155 -93q43 -12 79 -12q41 0 73 17q40 23 60.5 63.5t42.5 137.5q16 73 16 168q0 108 -6 129l-4 31l-119 4q-132 4 -185.5 14.5t-62.5 32.5q-13 32 8 53q9 9 31 10h15q29 0 98 -2q54 -2 94 -2q59 0 84 4q18 2 34 2 q41 0 65 -16q35 -24 52 -88q9 -33 9 -87q0 -66 -13 -163q-22 -172 -51 -242q-24 -56 -68 -100.5t-86 -58.5q-49 -15 -103 -15q-36 0 -75 7q-80 15 -130 42t-95 80q-53 62 -81 124t-40 147q-9 57 -9 173q0 49 2 109z" />
<glyph unicode="H" horiz-adv-x="1021" d="M172 928q-4 139 -4 242q0 246 22 292q6 14 22.5 20.5t33.5 0.5q18 -6 26 -39.5t11 -126.5q4 -136 4 -221q0 -92 4 -142l2 -39h156q127 0 219 5l67 4l-2 262q-1 80 -1 136q0 112 3 129q4 24 20 32q3 1 9 4l16 4q27 0 39 -45q5 -21 23 -395l6 -123l16 -15q23 -20 24 -45 t-22 -37l-18 -10l2 -127q1 -39 8 -135.5t8 -118.5q7 -115 7 -186q0 -81 -9 -104q-12 -26 -39 -33q0 -2 -2 -2q-24 -4 -39 8q-20 14 -26 76t-6 297q0 314 -9 319q-3 5 -223 5q-24 0 -46 1q-174 0 -179 -4q-2 -1 -2 -44q0 -78 6 -292q0 -37 1 -58t1.5 -56t1.5 -66 q2 -68 1.5 -104.5t-1.5 -42.5q-11 -23 -33 -29q-2 -2 -4 -2q-34 -10 -55 8q-9 13 -13 86.5t-12 323.5q-2 65 -7.5 206t-6.5 181z" />
<glyph unicode="I" horiz-adv-x="501" d="M210.5 1361.5q-0.5 21.5 0 32t2 26.5t7 26t13.5 16q23 13 37 13q16 3 23 -11q10 -12 13.5 -83t12.5 -371q3 -107 4 -318.5t3 -261.5q2 -58 2 -109q0 -73 -4 -135q-1 -38 -4.5 -51t-14.5 -24q-29 -32 -53 -11q-21 21 -39 162q-6 49 -6 375q0 261 4 698q0 5 -0.5 26.5z" />
<glyph unicode="J" horiz-adv-x="813" d="M86 16q0 18 14 31q8 6 19 6q28 0 76 -39q19 -19 61 -37q20 -6 45 -6q33 0 74 11q72 17 112 51q51 45 68.5 127t17.5 286q0 378 -38 652l-23 164l-10 94l-137 2q-90 3 -117.5 6t-36.5 10q-29 23 -29 49.5t29 38.5q10 6 74 10q41 2 83 2q24 0 48 -1q127 0 139 -9 q25 -12 36 -57t30 -209l32 -240q23 -204 25 -415q1 -50 1 -95q0 -175 -19 -270q-23 -121 -91 -203q-58 -72 -142 -100q-47 -16 -94 -16q-38 0 -75 10q-33 9 -65 26.5t-54.5 38t-37.5 42.5t-15 40z" />
<glyph unicode="K" horiz-adv-x="950" d="M168 289q8 1031 18 1100q6 46 17 64t33 20q5 1 10 1q34 0 45 -36q6 -14 6 -25.5t-6 -42.5q-8 -54 -8 -121q0 -66 4.5 -170.5t7.5 -109.5h2q14 -1 98 99q90 106 197 251q73 101 104.5 135t51.5 33q8 0 20 -6q23 -14 23 -43q0 -15 -22.5 -53t-43.5 -58q-12 -13 -84 -106 q-123 -154 -147 -183q-146 -180 -146 -188t133 -176q91 -122 181 -225q135 -155 182 -234q20 -34 21.5 -50t-13.5 -38q-10 -13 -32.5 -13.5t-39.5 11.5q-22 17 -69 73.5t-74 98.5q-40 57 -146 191.5t-137 166.5q-42 36 -47 39q-16 5 -20 -10q-6 -20 -6 -167v-81 q1 -74 1 -127q0 -80 -2 -116q-4 -59 -22 -76q-9 -9 -28 -11.5t-29 3.5q-22 9 -28 43q-5 30 -5 109v28z" />
<glyph unicode="L" horiz-adv-x="755" d="M170 1442q-5 29 2 44t31 27q8 6 18 11q5 0 17 -4q30 -19 41 -162.5t20 -636.5q9 -380 10 -393l4 -82l160 -2q112 -2 142 -4t47 -11q29 -15 30 -46t-28 -46q-24 -11 -204 -17q-72 -2 -122 -2q-74 0 -98 5q-5 2 -11.5 3.5t-10 2.5t-3.5 2q-9 12 -20 666q-5 574 -25 645z " />
<glyph unicode="M" horiz-adv-x="1052" d="M168 193q-1 36 -1 141.5t1 281.5q6 464 14 649.5t23 213.5q6 13 19 20.5t26 7.5q20 0 35 -12q13 -17 57 -111q47 -102 93 -195t75 -147.5t33 -54.5q7 0 68.5 121t129.5 270q53 108 62 117q22 20 51 7.5t37 -44.5q11 -60 18 -321q6 -173 9 -581q2 -204 1.5 -310t-1.5 -113 q-7 -23 -28 -24.5t-36 20.5q-22 26 -27 96.5t-6 390.5q-6 578 -16 627q-3 12 -8 7q-4 -5 -21 -36q-31 -60 -51 -104q-33 -73 -82.5 -167.5t-64.5 -111.5q-15 -20 -39 -20q-17 0 -35 20q-14 19 -64.5 118t-77.5 161q-8 16 -26 53.5t-25 50.5q-20 38 -23 38q-3 -1 -5 -9 q-11 -58 -17 -625q-5 -332 -9 -398.5t-24 -90.5q-10 -12 -27 -17t-26 1q-10 9 -12 80z" />
<glyph unicode="N" horiz-adv-x="1052" d="M174 1386q14 88 47 101q0 2 8 2q15 0 35.5 -29.5t54.5 -105.5q56 -106 103 -209q31 -52 153 -307q132 -275 218 -428l24 -39v137q0 161 -10 389q-8 274 -8 406q0 130 5.5 156t33.5 26q41 0 49 -35q7 -20 14 -238q2 -56 5 -202t5 -199q8 -239 8 -441q0 -11 1 -20 q0 -183 -9 -211q-10 -32 -34 -38.5t-46 16.5q-48 59 -245 463q-91 191 -131 260l-111 217q-19 36 -28.5 54.5t-17 32t-10.5 16t-5 -0.5q-3 -4 -3 -127q0 -74 1 -190q3 -312 10 -473q4 -82 4 -134q0 -35 -3 -57q-4 -54 -20 -67q-14 -12 -28 -12t-25 12q-20 23 -28.5 111 t-14.5 347q-9 377 -9 584q0 182 7 233z" />
<glyph unicode="O" horiz-adv-x="892" d="M127 752q0 364 117 585q20 38 71.5 94.5t73.5 65.5q27 10 68 10q63 0 104 -18q174 -66 223 -326q22 -115 26 -362q1 -37 0 -70q0 -191 -17 -272q-29 -145 -90.5 -243.5t-137.5 -121.5q-18 -5 -59 -5h-14q-52 1 -80 7q-70 15 -138 78t-92 137q-55 158 -55 441zM244 770 q-1 -32 -1 -62q0 -235 42 -352q9 -30 40.5 -72.5t53.5 -54.5q34 -21 79 -20q38 0 83 14q89 36 125 170q34 118 38 362v59q0 203 -24 333q-13 77 -54 145.5t-87 91.5q-22 11 -47 11q-45 0 -86.5 -38t-73.5 -110q-45 -94 -63.5 -194.5t-24.5 -282.5z" />
<glyph unicode="P" horiz-adv-x="776" d="M167.5 141.5q-1.5 10.5 0.5 61.5q4 65 4 319v57q0 228 -4 478q0 170 1.5 219.5t8.5 85.5q17 108 55 125q20 9 75 9q15 0 32 -1q93 0 137 -10q130 -26 213.5 -124t83.5 -226q0 -132 -92 -234q-53 -59 -114.5 -85.5t-149.5 -27.5q-70 0 -94 7l-33 6l-4 -39q-2 -23 -2 -227 q2 -91 3 -158q0 -93 -5 -143q-7 -84 -33 -99q-13 -7 -37.5 -9t-34.5 1q-9 4 -10.5 14.5zM274 922l17 -13q11 -9 48.5 -19.5t63.5 -10.5q20 0 60 8q58 13 109 52.5t77 92.5q13 40 13 96q0 44 -3 60t-16 45q-36 76 -111 119q-82 43 -192 47h-25q-19 0 -25 -3t-9 -12 q-8 -15 -8 -148q0 -40 1 -91v-223z" />
<glyph unicode="Q" horiz-adv-x="999" d="M131 854q20 413 195 594q38 38 60.5 50t64.5 15q3 0 9.5 1.5t10.5 1.5q77 -2 150.5 -50t111.5 -123q47 -92 64 -231q9 -50 12 -291q1 -70 1 -124q0 -81 -2 -127q-5 -78 -24 -154l-12 -43l84 -76q85 -76 113 -107t28 -53q0 -21 -11.5 -33t-29.5 -6q-13 3 -54 32t-77 60 l-65 52l-31 24l-14 -24q-44 -84 -107 -121q-25 -17 -40 -20t-64 -5q-72 0 -90 6q-52 10 -108.5 53.5t-90.5 96.5q-46 75 -70 248q-17 121 -17 248q0 52 3 106zM246 654q7 -189 41 -289q9 -30 41 -73.5t53 -55.5q30 -18 76 -20h9q41 0 77 13q25 9 50 30.5t38 45.5l14 29 q0 6 -51 41q-118 90 -145 139q-20 31 -18.5 48.5t24.5 29.5q24 13 43.5 3.5t89.5 -67.5q84 -69 90 -69t14 79q8 76 13 162q2 50 2 106q0 78 -5 166q-8 150 -26 216q-23 91 -75.5 153t-106.5 62q-75 0 -140 -107.5t-90 -269.5q-20 -142 -20 -289q0 -41 2 -83z" />
<glyph unicode="R" horiz-adv-x="933" d="M168 1146v44q0 74 2 128q4 68 11 89t22 29q9 7 113.5 30t125.5 23q46 0 129 -33t129 -70q96 -71 109 -184q1 -8 1 -16q0 -106 -140 -258q-47 -53 -54.5 -66t-7.5 -37q0 -41 57.5 -174.5t137.5 -281.5q53 -100 67 -140q22 -46 22 -67.5t-22 -40.5q-12 -11 -25 -11 q-19 0 -40 23q-52 58 -136.5 227t-144.5 330q-29 85 -41 101l-10 14l-90 -21l-92 -18l2 -33q5 -28 5 -198q0 -43 -1 -95q-2 -258 -6 -280q-9 -43 -49 -43q-23 0 -29 6q-17 18 -24 173q-5 105 -15 544q-5 202 -6 306zM266 1153q0 -155 4 -200.5t21 -55.5q9 -5 30 -5 q27 0 72 9q135 31 215 108t88 183q2 32 0 44.5t-12 31.5q-26 50 -92.5 82t-142.5 34q-5 0 -16.5 -1t-16.5 -1q-30 -3 -86 -15t-62 -17v-10q0 -11 -0.5 -29.5t-1 -41.5t-0.5 -54v-62z" />
<glyph unicode="S" horiz-adv-x="946" d="M127 467q0 107 37 107q3 0 6 -1q32 -10 41 -92q21 -109 82 -176q70 -76 166 -94q26 -5 51 -5q69 0 135 36q106 55 106 148q0 41 -20 89q-28 64 -84 129t-166 160q-149 128 -195 214q-36 68 -37 168q0 26 3 54q8 109 78 187q58 64 137 79q21 3 39 3q54 0 111.5 -22.5 t95.5 -57.5q45 -47 55 -111q2 -13 2 -23q0 -42 -29 -47q-15 -1 -29.5 14.5t-19.5 37.5q-5 20 -32.5 47.5t-59.5 42.5q-30 16 -66 18q-4 0 -6 1q-32 0 -57 -13q-26 -10 -54 -43t-42 -68q-21 -50 -21 -98q0 -51 24 -101q46 -94 202 -223q82 -65 149.5 -139.5t91.5 -122.5 q40 -84 40 -158q0 -31 -7 -61q-43 -172 -233 -225q-43 -12 -109 -13h-11q-58 0 -95 9q-132 32 -205.5 124.5t-73.5 225.5z" />
<glyph unicode="T" horiz-adv-x="911" d="M86 1423q1 11 8.5 18.5t30.5 13.5t56.5 9t94.5 5.5t135 3t187 0.5h127q136 0 160 -6t24 -39v-7q0 -38 -32 -47.5t-172 -15.5q-166 -4 -170 -8q-5 0 -5 -124q0 -83 2 -220q5 -235 5 -600q0 -181 -1.5 -221.5t-9.5 -51.5q-9 -10 -29.5 -12t-37.5 6q-15 7 -15 18 q-1 3 -1 34.5t0.5 100.5t0.5 119q0 229 -4 365q-9 150 -12 358l-6 236l-148 6q-120 5 -156 16t-32 43z" />
<glyph unicode="U" horiz-adv-x="958" d="M167 1115.5q0 317.5 3 352.5q3 20 6.5 25t18.5 6h6q39 0 47 -37q2 -16 6 -225q6 -333 21 -573t32 -299q14 -37 39 -68.5t53 -44.5q29 -10 101 -10q47 0 64 2.5t36 11.5q30 18 53.5 50.5t32.5 70.5q17 68 34 360t17 533q0 114 5 160.5t18 56.5q9 12 33 12q23 3 26 -10 q3 -15 5 -237q0 -74 1 -144q0 -140 -2 -266q-6 -329 -22.5 -447.5t-61.5 -175.5q-57 -61 -129 -84q-36 -10 -92 -12q-14 -1 -27 -1q-38 0 -65 5q-125 30 -188 115q-32 43 -46 131t-22 289q-3 136 -3 453.5z" />
<glyph unicode="V" horiz-adv-x="790" d="M45 1364q-2 31 0 39.5t14 21.5q26 26 49 10.5t35 -67.5q20 -84 48 -197.5t45 -185.5q38 -158 69 -258q6 -20 17 -58.5l26 -91t23 -81.5q41 -146 41 -154q1 -1 7.5 18t17.5 56t22 78q9 30 24.5 84.5t26 91.5t16.5 55q72 252 136 539q22 91 26 110q15 64 51 68q16 0 35 -19 q14 -25 14 -41q0 -47 -53 -245q-7 -24 -90 -349q-116 -453 -150 -567.5t-63 -144.5q-14 -12 -23 -13t-20 11q-19 24 -55 148t-148 562l-112 443q-25 91 -29 137z" />
<glyph unicode="W" horiz-adv-x="1097" d="M130 1410q-3 27 -2 45q0 35 9 40q7 7 24 7.5t27 -5.5q15 -10 30 -91t56 -359q6 -32 12.5 -75.5t11 -72t7.5 -39.5q1 -7 6.5 -43t14 -91.5t14.5 -104.5q30 -202 33 -205q3 -5 15 15l5 9q19 33 61 129t58 146q23 65 39 83t32.5 -2t41.5 -89q91 -222 118 -269q15 -26 19 -27 q3 0 4 7q14 69 33 227q7 47 15 103.5t12 83t5 26.5q3 5 7 23q84 576 96 594q20 30 43 30q9 0 18 -6q6 -6 12.5 -22t6.5 -27q0 -39 -64 -432q-75 -523 -86 -637q-20 -199 -28 -231q-3 -20 -9.5 -26.5t-23.5 -6.5q-24 0 -45.5 37t-73.5 168q-110 260 -115 260q-3 0 -21.5 -39 t-46.5 -104.5t-55 -135.5q-51 -121 -70.5 -153.5t-41.5 -32.5q-19 0 -27 8q-6 7 -11.5 51.5t-29.5 251.5q-17 164 -82 590q-46 314 -54 392z" />
<glyph unicode="X" horiz-adv-x="903" d="M125 162.5q-1 10.5 14.5 56.5t47.5 120.5t101 231.5q3 7 5 11q115 254 115 260q0 11 -172 368q-70 146 -88.5 192t-18.5 66q0 18 11 33t26 15q25 0 93.5 -113.5t156.5 -298.5l55 -125l27 61q52 120 129.5 263t115.5 186q20 24 38 24q16 0 30 -20l1 -2q9 -14 1 -39 q-13 -42 -184 -407l-1 -1v-1l-1 -1v-1l-1 -1v-1l-1 -1v-1l-1 -1v-1l-1 -2v-1l-1 -1v-1l-1 -1v-1l-1 -1v-1l-1 -1v-1l-1 -2l-86 -180l97 -215q186 -416 188 -449q5 -15 -12 -35t-33 -14.5t-35 39.5q-47 71 -198 399q-67 138 -70 138l-76 -162q-67 -145 -129 -267.5 t-74 -136.5q-10 -11 -25.5 -11t-27.5 11q-11 13 -12 23.5z" />
<glyph unicode="Y" horiz-adv-x="1003" d="M89 1422q-11 31 13 57q21 14 27 14q15 -4 33 -14q14 -8 54 -56t71 -94q185 -286 188 -291q30 -42 31 -43q10 -7 13.5 -7t12.5 9q21 25 179 263q45 66 93 127.5t70 82.5q25 22 44 22q15 0 26 -13q16 -20 16 -41q0 -10 -4 -20q-11 -33 -69 -103q-63 -77 -150 -209 t-125 -209q-22 -42 -29 -121.5t-8 -326.5q-3 -248 -10 -281q-9 -27 -43 -43t-45 2q-18 21 -18 397q0 241 -4 291q-7 40 -33 90q-40 82 -123.5 213t-142.5 203q-56 70 -67 101z" />
<glyph unicode="Z" horiz-adv-x="966" d="M134 220q18 68 95 235q140 301 301 573q177 297 177 331q0 19 -44 26q-41 7 -163 10q-148 3 -174 10q-25 11 -17 47q2 14 8.5 20t33.5 11.5t68 7.5t128 4q148 4 160 4q58 0 78.5 -5.5t33.5 -20.5q10 -17 8 -48q-13 -131 -268 -565q-125 -223 -256 -483l-70 -144l66 -2 q75 0 297 7q150 6 195 6h7q39 0 54 -8q30 -16 30 -44q0 -11 -5 -24q-8 -18 -13 -23t-20 -8q-24 -8 -275 -8q-54 -1 -133.5 -1.5t-130 -1t-69.5 -1.5q-34 -2 -56 -2q-30 0 -37 4q-16 14 -16 45q0 21 7 48z" />
<glyph unicode="[" horiz-adv-x="696" d="M170 -14q-3 14 10 88q10 58 13 146.5t2 309.5q-5 512 -5 717q0 13 -2.5 89t-1.5 120q0 50 11 100q3 20 12 35q9 12 22 15q64 6 124.5 9.5t109.5 8.5h8q24 0 48 -11t36 -26q6 -9 6 -18q4 -11 -6 -17q-14 -17 -55 -20h-2q-90 2 -197 -2v-109q0 -82 2 -139q0 -260 2 -414 q0 -624 -4 -716q-3 -64 0 -78q3 -6 4 -6h12q14 2 140 6q23 1 36.5 0t23.5 -3.5t13 -2.5q11 -2 21 -9q2 -2 6 -14q0 -14 -4 -22q-9 -18 -14 -23q-12 -12 -43 -18q-51 -9 -103 -11l-94 -6l-33 -6q-18 -3 -18 -4q-28 -12 -51 -2q-14 7 -19 12q-10 10 -10 21z" />
<glyph unicode="\" horiz-adv-x="919" d="M4 1616q9 12 37 12q22 0 37.5 -19t46.5 -83q41 -83 115 -223q142 -285 346 -750.5t270 -607.5q26 -57 45 -76q12 -14 15 -44.5t-7 -41.5q-11 -12 -51 -4.5t-49 22.5q-1 3 -15 32t-22 48q-11 24 -38 71t-36 71q-164 400 -290.5 685t-276.5 580q-69 137 -103 225t-24 103z " />
<glyph unicode="]" horiz-adv-x="679" d="M168 20q0 10 6 19q10 13 57 16q104 -2 199 -2l2 39q0 29 -2 64v139q0 52 -1 192.5t-1 221.5q0 671 2 716q3 66 0 78q0 6 -4 6q-3 3 -12 0q-3 0 -42.5 4t-76.5 5q-64 0 -96 4q-15 4 -19 8q-5 5 -8 14q0 7 4 23q5 10 17 22q15 15 43 17q12 2 102 6h104h41q4 1 9 1.5t8 1 t4 1.5h2q22 -7 29 -27q9 -21 6 -76q-4 -314 -2 -471q1 -101 2 -361t2 -355q0 -12 2.5 -88.5t1.5 -120.5q-4 -73 -10 -101q-7 -22 -15 -32q-9 -12 -22 -15q-67 -3 -128.5 -3.5t-105.5 -2.5q-27 -1 -52 11t-38 30q-8 8 -8 16z" />
<glyph unicode="^" horiz-adv-x="681" d="M68 1044q2 9 18 31q21 29 125 133q90 90 115 113q8 6 17.5 14.5t12.5 10.5q9 10 19 8.5t16 -11.5q0 1 9 -10t20.5 -25t15.5 -18q26 -38 107 -127q46 -52 49 -55q10 -14 14 -21q2 -4 6 -8q0 -1 1 -3t1 -3q0 -17 -20 -33q-21 -14 -43 -14q-12 0 -29 10q-5 4 -17 15t-18 16 q-44 44 -102 119l-37 47l-47 -51q-86 -92 -145 -135q-31 -21 -50 -27q-8 -3 -24 2q-14 14 -14 22z" />
<glyph unicode="_" horiz-adv-x="888" d="M68 154q0 15 13.5 34.5t35.5 24.5q11 3 85.5 5t211.5 6t245 9q162 8 162 -18q-1 -27 -10 -44.5t-25.5 -26.5t-31 -12.5t-37.5 -6.5q-50 -6 -305 -11t-293 1q-47 6 -51 39z" />
<glyph unicode="a" horiz-adv-x="696" d="M68 274q3 23 28 52q25 28 105.5 86.5t152.5 101.5q68 38 76 53q2 4 2 9q0 18 -18 57q-18 43 -45 67q-20 17 -28.5 20t-35.5 1q-37 -3 -90 -35q-44 -28 -66.5 -35t-35.5 2q-10 6 -19 33t-4 39q4 13 68.5 47.5t107.5 46.5q40 12 72 12q72 0 117 -51q35 -40 70.5 -140 t49.5 -196q18 -122 18 -196q0 -108 -38 -117q-21 -5 -53 23l-27 24l-55 -26q-36 -17 -55.5 -21t-61.5 -6q-21 -1 -38 -1q-35 0 -58 5q-49 9 -78.5 30t-48.5 60q-15 32 -12 55zM184.5 269.5q3.5 -17.5 57.5 -40.5q23 -11 56 -10q36 0 83 12q40 10 58 22.5t30 35.5 q10 21 10 72v18q0 66 -8 74q-4 4 -8 4q-18 0 -125 -68q-15 -10 -41 -27t-44.5 -29t-27.5 -18q-44 -28 -40.5 -45.5z" />
<glyph unicode="b" horiz-adv-x="710" d="M102 922q-1 147 -1 248q0 201 3 216q5 11 11.5 15.5t25.5 7.5q8 2 21 2q15 0 18 -6q10 -13 15 -262q4 -190 10 -256.5t18 -71.5q3 -2 16.5 4.5t26.5 16.5q50 35 104 35q89 0 191 -93q72 -69 78 -131q3 -23 3 -53q0 -24 -2 -54q-5 -66 -17 -112q-22 -73 -44.5 -110 t-76.5 -89q-68 -61 -101 -79q-43 -26 -123 -26h-6q-84 1 -141 30l-18 12l-4 121q-5 195 -7 635zM213 469q0 -128 4.5 -179.5t18.5 -74.5q6 -13 13.5 -15.5t37.5 -0.5q47 5 78 26q77 51 126.5 142t49.5 182q-1 33 -20 72.5t-50 71t-71 45.5q-19 7 -40 7q-22 0 -45 -8 q-28 -10 -42 -16t-27.5 -20.5t-18.5 -27t-9 -45.5t-4.5 -64.5t-0.5 -94.5z" />
<glyph unicode="c" horiz-adv-x="694" d="M68 464q4 72 16 105q25 71 77.5 134.5t119.5 101.5q54 33 114 33q17 0 49 -9q47 -15 93.5 -62t46.5 -79q0 -20 -21 -41q-17 -18 -26.5 -17.5t-26.5 23.5q-31 36 -57 50.5t-68 17.5q-32 1 -45.5 -1t-32.5 -11q-24 -13 -56 -54.5t-52 -81.5q-11 -30 -14 -47.5t-3 -64.5 q0 -111 39 -174q38 -58 125 -58q92 0 172 66q50 40 79 40q11 0 18 -5q12 -9 12 -29q0 -27 -64.5 -87t-111.5 -75q-31 -11 -105 -14q-18 -1 -34 -1q-47 0 -70 7q-66 20 -110.5 77t-59.5 140q-5 29 -5 71q0 21 1 45z" />
<glyph unicode="d" horiz-adv-x="761" d="M68 455q0 34 13 88.5t28 89.5q17 37 57.5 82t75.5 67q39 25 107 27h12q60 0 108 -18q30 -15 51 -15q17 0 21.5 4.5t11.5 30.5q10 37 16 154q1 31 5.5 120t5.5 127q7 130 12 144q9 18 33 18q14 0 22 -8q3 -5 5 -20.5t3 -79.5t2 -180.5t2 -333.5q0 -609 -4 -617 q-3 -9 -8.5 -11.5t-23.5 -2.5q-27 0 -40 11.5t-20 41.5l-8 29q-1 0 -7 -4.5t-18 -14t-22 -16.5q-56 -45 -124 -61q-30 -7 -57 -7q-33 0 -59 11q-38 17 -88 71.5t-76 108.5q-36 85 -36 164zM199 506q-10 -42 -10 -79q0 -95 63 -155q64 -62 108 -66h8q43 0 121 40l68 35l-4 67 q-11 230 -21 252q-26 53 -79 94q-23 19 -34 24t-30 5q-44 0 -87 -35.5t-77 -91.5q-15 -46 -26 -90z" />
<glyph unicode="e" horiz-adv-x="755" d="M104 373q-2 25 -2 49q0 111 45 211q55 121 156 180q29 15 61 25q28 8 62 9q4 -1 10 -1q40 -2 74 -17q46 -25 74 -69q21 -33 20 -62q0 -9 -2 -18q-12 -60 -92 -131.5t-191 -122.5q-65 -30 -83 -46t-15 -40q8 -40 33 -76t53 -45q26 -9 60 -9q41 0 93 14q95 24 148 71 q13 13 21.5 16.5t23.5 1.5q35 -6 35 -28q0 -12 -40.5 -49.5t-76.5 -59.5q-79 -50 -141 -62q-25 -5 -49 -4q-37 0 -74 11q-96 31 -144 90.5t-59 161.5zM219 485q3 -11 7 -11t28 9q41 15 106.5 62t102.5 88q20 22 24.5 31.5t4.5 29.5q0 29 -15 39q-11 8 -31 8q-44 0 -84 -24 q-56 -29 -106 -111q-40 -66 -39 -104q0 -9 2 -17z" />
<glyph unicode="f" horiz-adv-x="630" d="M18 752q-4 7 5 26.5t18 22.5q55 15 115 26l49 7q2 59 6 131q6 138 16 182q24 112 75 173q48 60 108 60h4q31 0 73 -22q123 -69 123 -271q0 -37 -8.5 -46.5t-36.5 -4.5q-27 4 -36 21t-9 63q0 93 -49 150q-19 22 -27.5 27.5t-23.5 5.5q-62 0 -96 -166q-25 -127 -25 -265 v-38q17 0 54.5 2t60 2t58.5 -6t71 -19q18 -7 17 -31t-23 -34q-40 -17 -125.5 -19.5t-112.5 -7.5l2 -174q5 -231 8 -553q2 -179 2 -265q0 -43 -1 -63q-1 -58 -9 -76q-9 -23 -26.5 -27t-34.5 13q-26 23 -30.5 108t-4.5 521v518h-55q-44 0 -85 9t-47 20z" />
<glyph unicode="g" horiz-adv-x="675" d="M-44 -134q7 28 32 28q36 0 82 -93q26 -54 85 -87.5t128 -35.5q73 0 116 43q37 38 52 110q9 45 9 97q0 32 -3 66q-8 73 -11 106q-3 35 -9.5 39.5t-35.5 -10.5q-49 -25 -104.5 -25t-99.5 25q-67 38 -105 146q-26 77 -26 157q0 32 4 64q13 113 60 187.5t136 127.5 q28 17 44 22.5t50 6.5h23q28 0 70 -23q39 -22 77 -67q30 -38 38 -66q5 -15 5 -33q0 -16 -4 -35q-9 -53 -13 -172q-1 -56 -1 -110q0 -61 2 -119q10 -208 11 -273v-15q0 -55 -7 -91q-15 -83 -53 -143.5t-94 -89.5q-24 -15 -41 -19t-54 -6q-64 0 -104 12q-139 37 -211 127 q-28 36 -41 78q-9 28 -9 50q0 11 2 21zM164 396q13 -99 59 -152q32 -37 64 -44q9 -3 19 -3q25 0 54 14q27 10 60 39l31 26l-2 191q1 44 1 78q0 50 -2 77q-3 45 -11 60.5t-31 30.5q-20 14 -37 14q-11 0 -17 -2q-30 -4 -55 -18q-23 -12 -62 -60t-53 -80q-22 -51 -22 -115 q0 -27 4 -56z" />
<glyph unicode="h" horiz-adv-x="735" d="M109 768q8 561 24 600q15 30 35 27h4q11 -5 18 -27q7 -13 9 -65t4 -254l2 -299h16q18 0 47 22q22 19 68 43q25 14 40.5 17.5t47.5 3.5q33 0 48.5 -3.5t37.5 -15.5q37 -22 71.5 -60.5t47.5 -74.5q25 -59 31 -104.5t8 -165.5q1 -41 1 -75q1 -85 -5 -127q-8 -60 -33 -83 q-15 -15 -31 -12.5t-25 22.5q-9 21 -14 199q-4 182 -10 213q-7 38 -28 86.5t-36 66.5q-11 11 -21.5 14t-41.5 3q-43 0 -64.5 -10t-50.5 -45q-75 -84 -102 -338q-9 -93 -15.5 -127.5t-19.5 -61.5q-10 -18 -16.5 -23t-18.5 -5q-22 0 -26 8q-7 10 -7 200q0 161 5 451z" />
<glyph unicode="i" horiz-adv-x="360" d="M102 1270q0 19 4.5 25.5t28.5 19.5q37 18 62 18q42 0 42 -56q0 -7 -1 -15q-3 -38 -15.5 -55.5t-40.5 -20.5q-20 -1 -27 2.5t-26 25.5q-27 29 -27 56zM128 512q-2 108 -2 175q0 80 3 101q6 48 39 52q29 0 41 -49q9 -39 20 -508q2 -38 2 -67q0 -95 -20 -95q-26 2 -41.5 19 t-20.5 34.5t-10 50.5q-6 49 -11 287z" />
<glyph unicode="j" horiz-adv-x="419" d="M-76 -268q0 34 31 37h7q31 0 93 -23q61 -25 100 -25q6 0 11 1q41 4 61 42q8 16 10.5 44.5t2.5 123.5q0 182 -19 678q-4 102 -4 142v14q1 32 8 49q6 15 11.5 20t17.5 5q29 0 39 -20t16 -89q8 -90 15 -254q1 -66 18 -373q10 -138 10 -246v-10q-1 -112 -12 -139 q-10 -23 -37.5 -49t-56.5 -41q-32 -17 -90 -21h-26q-41 0 -69 9q-58 19 -97.5 55t-39.5 70zM170.5 1254q-3.5 18 11.5 40q13 17 36 28t42 11q9 0 21 -4q26 -14 26 -51q0 -14 -4 -31q-7 -36 -18.5 -48.5t-36.5 -12.5q-17 0 -26 4.5t-23 19.5q-25 26 -28.5 44z" />
<glyph unicode="k" horiz-adv-x="630" d="M104 170q-2 8 -2 52t2 124q7 303 9 500q3 266 7.5 369t14.5 145q7 31 17 31h8q12 -2 20.5 -8t15 -26t10.5 -47.5t7.5 -81t5 -117.5t3.5 -165q8 -277 11 -305l3 -45l24 4q23 4 74.5 44t101.5 65q23 12 46 12q17 0 33 -7q37 -15 20 -49q-4 -10 -13 -20q-33 -32 -91 -73.5 t-95 -77.5q-9 -6 6 -21q28 -25 47.5 -47t63.5 -74t102 -116q29 -33 29 -62q0 -12 -5 -24q-14 -31 -46 -27q-26 2 -48 29q-169 195 -240 236q-22 12 -23 1q0 -22 -7 -103t-10 -102q-9 -50 -32 -64.5t-46 13.5q-16 21 -23 37z" />
<glyph unicode="l" horiz-adv-x="329" d="M104 924q3 358 9 413q4 39 15.5 60.5t25.5 21.5q17 0 32 -30q9 -15 12 -75t7 -341q8 -445 12 -500q10 -195 10 -260v-19q-2 -52 -28 -71q-17 -15 -38.5 -14.5t-29.5 14.5q-9 17 -13.5 59.5t-11.5 192.5q-4 94 -4 266q0 122 2 283z" />
<glyph unicode="m" horiz-adv-x="1208" d="M102 371q0 354 25 422q6 17 11.5 21.5t19.5 4.5q42 0 51 -53q8 -31 12 -31q1 0 5.5 4t13 12t14.5 13q81 80 172 80h1q91 0 173 -88l31 -35l37 35q98 83 201 83q10 0 20 -1q82 -5 141 -69t72 -165q5 -23 5 -96q0 -55 -3 -137q-5 -198 -19 -228q-11 -22 -40 -8q-4 1 -9 4 q-20 10 -24 21q-4 12 -4 196q0 174 -10 243t-40 108q-17 21 -35 28.5t-51 7.5q-90 0 -182 -120l-20 -29l-4 -107q-11 -283 -29 -325q-6 -17 -24.5 -32t-32.5 -15q-20 -1 -24 49q-1 15 -1 42q0 58 6 169q0 2 2 26.5t2.5 38.5t1 44.5t-1 51t-5.5 50t-10.5 49.5t-17 42t-25 35 t-35.5 21.5t-46 7.5q-190 -6 -217 -372q-10 -141 -20.5 -184t-36.5 -62q-29 -23 -43 -6q-7 11 -7 254z" />
<glyph unicode="n" horiz-adv-x="749" d="M103 259.5q0 35.5 1 96.5v53.5v39.5v83q0 76 1 122q2 70 5 86t9 34q17 31 26 37q7 6 13 4.5t18 -14.5q18 -25 21 -49q4 -29 7 -29q12 11 27 25q47 44 115 61q45 10 72 10q24 0 69 -10q72 -16 107 -72q53 -98 53 -341v-27q0 -142 -10 -194t-39 -66q-15 -8 -22.5 -3.5 t-16.5 25.5t-14 221q-5 201 -15 240q-20 73 -55 96q-19 15 -45 15q-22 -1 -50 -11q-60 -22 -110 -82q-40 -48 -50.5 -91t-15.5 -187q-3 -121 -8 -158t-22 -57q-12 -16 -20.5 -14.5t-28.5 22.5q-12 20 -17 59.5t-5 75z" />
<glyph unicode="o" horiz-adv-x="702" d="M68 471q0 86 8.5 129.5t34.5 85.5q19 33 60.5 71.5t82.5 59.5q47 23 92.5 23t106.5 -29q64 -32 109 -85.5t59 -109.5q12 -40 14 -126v-33q0 -61 -6 -92q-22 -95 -78.5 -157.5t-140.5 -82.5q-34 -9 -66.5 -9t-62.5 9q-72 20 -124 73.5t-75 131.5q-14 43 -14 141zM168 422 q20 -102 59 -156q33 -44 75 -54q16 -4 36 -4q31 0 72 11q55 13 93 94.5t38 186.5q0 35 -3.5 52.5t-15.5 43.5q-40 92 -90 121q-19 12 -74 12q-50 0 -76.5 -13t-56.5 -54q-44 -60 -57 -114q-6 -27 -6 -58.5t6 -67.5z" />
<glyph unicode="p" horiz-adv-x="638" d="M102 -328v38q0 78 2 288q4 372 4 449.5t-4 203.5q-4 47 -4 81q0 23 2 39q4 41 11 53.5t32 27.5q32 18 78 18q63 0 127.5 -27.5t104.5 -70.5q29 -32 59 -85.5t41 -90.5q17 -58 17 -135v-20q-3 -89 -25 -136q-29 -65 -98 -117.5t-140 -72.5q-34 -6 -69 -19l-31 -10l-2 -215 q-1 -94 -2.5 -135.5t-3 -53t-6.5 -26.5q-12 -34 -39.5 -46.5t-44.5 7.5q-8 9 -9 55zM203 440q0 -264 2 -264q30 11 67 21q61 19 87.5 33.5t50.5 43.5q30 35 40.5 74.5t10.5 114.5t-10 104.5t-52 79.5q-34 39 -77.5 68t-75.5 33q-6 2 -15 2q-21 -1 -24.5 -48.5t-3.5 -261.5z " />
<glyph unicode="q" horiz-adv-x="700" d="M68 449q0 154 94 288q62 90 104.5 116t126.5 26q64 -2 98.5 -13.5t59.5 -40.5q40 -46 45 -106q2 -14 2 -35q0 -70 -14 -219l-17 -160l11 -360q2 -85 2 -145q1 -31 1 -53.5t-1 -38.5q0 -31 -3 -48.5t-5 -20.5t-6 -4.5t-5 -3.5q-10 -12 -27 -22t-26 -10q-10 0 -16 12 q-4 4 -6 8t-3.5 10t-2.5 12.5t-1.5 20t-1 27.5t-0.5 39.5t-0.5 52t-1.5 68t-2 85.5q-3 156 -10 177q-6 20 -29 16q-4 0 -28 -6q-26 -7 -55 -7t-60 7q-62 13 -105 47q-118 92 -118 281zM182 379q14 -79 73 -123q42 -32 98 -32q23 0 48 5q26 12 40.5 44.5t31.5 117.5 q10 53 19 144q10 91 10 140q0 56 -24 77q-24 22 -91 22q-31 0 -44 -3t-32 -15q-66 -49 -107 -164q-29 -78 -29 -148q0 -33 7 -65z" />
<glyph unicode="r" horiz-adv-x="516" d="M102 465q3 304 11 346q5 31 23 34q4 1 18 1q32 0 43.5 -16t11.5 -62q0 -45 6 -45q9 0 25 16q5 3 57 45q51 36 74 45q36 17 61 17h8q49 0 49 -35q0 -15 -16 -32.5t-39 -24.5q-62 -20 -147 -121q-53 -62 -58 -86q-20 -75 -20 -225q0 -165 -39 -193q-15 -12 -39 -13.5 t-27 9.5q-2 4 -2 340z" />
<glyph unicode="s" horiz-adv-x="659" d="M68 246q1 17 5 20.5t19 5.5h5q22 0 77 -24q54 -26 92 -36q31 -8 71 -7h17q49 3 63 15.5t17 55.5q3 26 0 37t-18 35q-46 69 -137 154q-47 44 -67 70.5t-32 62.5q-16 49 -16 89q0 76 61 114q18 12 49 12q59 0 132 -36.5t100 -84.5q10 -20 11 -26.5t-7 -18.5q-7 -15 -24 -15 q-28 0 -80 42q-8 5 -17 10.5t-23.5 13t-27.5 10.5t-25.5 2.5t-20.5 -9.5t-9 -27v-10q0 -41 22 -74q25 -37 101 -99q88 -72 128 -169q23 -56 23 -103q0 -34 -12 -63q-25 -54 -90 -79q-45 -17 -100 -17q-24 0 -50 3q-99 13 -174 62q-38 23 -51.5 41t-11.5 43z" />
<glyph unicode="t" horiz-adv-x="495" d="M8 846q12 22 33 30t72 13q65 4 71 10q6 3 6 90q0 102 7.5 235t13.5 152q10 23 22 23q11 0 27 -19q17 -19 24 -76t13 -223l8 -163q4 -8 64 -11q51 -3 71 -13t27 -36q5 -22 -8 -33q-14 -12 -78 -12q-65 -4 -70 -6q-14 -11 -17 -221q-1 -42 -1 -79q0 -149 10 -222 q6 -73 10 -103q2 -39 0.5 -51t-10.5 -22q-11 -12 -33.5 -13.5t-36.5 8.5q-22 19 -29.5 104.5t-10.5 336.5l-5 256l-16 -4q-40 -10 -70 -10q-27 0 -47 8q-27 10 -40 24.5t-7 26.5z" />
<glyph unicode="u" horiz-adv-x="737" d="M104 561q-2 59 -2 106q0 124 17 156q8 11 14.5 13.5t24.5 1.5q34 -1 41.5 -27.5t13.5 -157.5q6 -176 14.5 -255t25 -115.5t52.5 -55.5q23 -12 38 -15t48 -3q52 2 75.5 11.5t35.5 35.5q18 34 22 88.5t6 243.5q0 15 0.5 60t1 73.5t5 61t12.5 46.5q16 13 37 13q20 0 32 -15 q9 -9 11.5 -30.5t5.5 -114.5q1 -28 1 -55q0 -169 -22 -297q-25 -148 -69 -178q-41 -32 -113 -40q-24 -3 -47 -2q-46 0 -88 11q-130 37 -160 139q-24 87 -33 301z" />
<glyph unicode="v" horiz-adv-x="710" d="M103 813.5q2 6.5 14 11.5q10 4 19 4q27 0 48 -36q20 -47 43 -131q27 -94 64.5 -207.5t46.5 -130.5q11 -15 14 -15q2 0 4 3.5t12 24.5t31 67.5t58 132.5q92 204 112 241t30 49.5t26 18.5q15 6 26 6t17 -2q15 -7 15 -29q0 -13 -5 -31q-14 -49 -80 -188l-131 -289 q-41 -93 -63 -139.5t-41.5 -71.5t-31.5 -23t-28 21q-31 37 -111.5 309.5t-87.5 366.5q-3 31 -1 37.5z" />
<glyph unicode="w" horiz-adv-x="956" d="M73 825q14 32 48 -5q2 -2 4 -5q27 -30 66 -136t63 -212q19 -82 29 -82q5 0 38 79.5t50 131.5q44 133 67 133q13 0 33 -20q17 -15 33.5 -52.5t44.5 -124.5q53 -158 88 -208l16 -23l6 14q21 52 44 161t38 163q8 32 18.5 67t19 60.5l9.5 28.5q12 49 43 49q19 0 41 -19 q12 -9 15 -15.5t2 -23.5q-4 -25 -41 -139q-65 -190 -113 -502q-6 -36 -61 -36q-34 0 -55 35t-95 218q-38 96 -48 116t-21 20t-18 -11t-25 -59q-24 -58 -55 -154t-31 -110q0 -9 -13 -35q-9 -13 -16 -16.5t-23 -3.5t-23.5 4t-19.5 18q-14 18 -28 88q-13 75 -57.5 255 t-59.5 224q-20 55 -20 91q0 21 7 36z" />
<glyph unicode="x" horiz-adv-x="776" d="M68 186q6 44 172 244q75 89 75 107q0 12 -26 43.5t-105 113.5q-46 50 -59 69t-14 42q0 43 41 53h6q33 0 69 -51q19 -30 92 -107l74 -73l58 59q59 63 86 105q49 69 71 69h2q17 0 29 -24q22 -40 17.5 -56t-50.5 -59q-89 -81 -133 -156l-16 -30l28 -50q24 -41 127 -163 q80 -95 92 -120t-14 -48q-24 -24 -47 -24q-8 0 -16 3q-18 9 -64 72q-66 92 -120.5 161t-65.5 74q-20 11 -48 -25t-120 -190q-31 -51 -51.5 -73.5t-42.5 -26.5q-17 -5 -35 18q-15 22 -12 43z" />
<glyph unicode="y" horiz-adv-x="665" d="M47 803q0 29 1.5 36.5t10.5 10.5q11 5 21 -8q50 -71 113 -219q48 -107 91.5 -187t53.5 -80q5 0 41.5 83t69.5 169q53 138 84 192t59 54q8 0 16 -4q17 -9 6 -53t-69 -199q-39 -103 -105 -303l-82 -250q-23 -56 -82 -252q-46 -149 -65.5 -198.5t-34.5 -61.5 q-12 -10 -31.5 -10.5t-25.5 8.5q-6 8 -6 29q0 76 80 321l86 275q5 17 3 29t-14 44q-11 37 -80 191q-60 131 -79 184q-1 2 -37 96q-25 61 -25 103z" />
<glyph unicode="z" horiz-adv-x="733" d="M106 154q0 25 101 157q133 182 209 316l55 92l-147 4q-123 4 -160.5 12t-52.5 31q-7 12 -7 24q0 25 33 46q15 10 78 10q60 0 107 -2q137 -1 178 -9t61 -36q17 -26 17 -60q0 -63 -38.5 -137.5t-131.5 -193.5q-83 -102 -109 -144l-27 -43l80 -2q94 0 156 6q75 7 112 7 q7 0 12 -1q35 -2 48 -14q16 -10 16 -29q0 -12 -11.5 -27.5t-25.5 -21.5q-9 -3 -157 -14q-171 -13 -193 -16q-54 -9 -102 -11t-60 4q-17 7 -29 23t-12 29z" />
<glyph unicode="{" horiz-adv-x="823" d="M172.5 812q-10.5 19 1.5 38q14 23 39 39.5t48.5 25t48 26t36.5 42.5q39 52 21 115q-42 156 -37 262q-7 73 37 123q40 52 97 80.5t116 25.5q50 4 61 -33q3 -29 -20 -43t-52 -16q-45 -3 -83 -27.5t-54 -68.5q-9 -25 -10 -52t4.5 -54t12.5 -50.5t16.5 -53.5t13.5 -50 q18 -61 -4.5 -124.5t-69.5 -107.5q-2 -6 -12 -15t-16.5 -15.5t-9 -15.5t9.5 -15q65 -59 65 -178q6 -76 -19 -215.5t-28 -171.5q-10 -57 14 -111t70 -84q73 -34 133 8q65 39 82 2q13 -28 -5 -50t-48 -36q-42 -27 -94 -32.5t-99 12.5q-43 8 -79.5 38t-53.5 74q-7 24 -11 52 t-5 49t2 55.5t5 50t8 55.5t7 50q1 5 5.5 37t5.5 40t4 36t3.5 40t1.5 36.5t-0.5 40t-4 35.5t-7.5 38q-6 19 -20 31.5t-27.5 17.5t-36 10.5t-32.5 9.5q-20 5 -30.5 24z" />
<glyph unicode="|" horiz-adv-x="501" d="M209 632q1 632 4 939q0 3 -0.5 26.5t0 32t2.5 26t7.5 27t13.5 15.5q21 12 36 12q16 3 23 -10q11 -12 15.5 -86.5t11.5 -368.5q3 -108 2.5 -661t1.5 -596q5 -138 -2 -244q-1 -38 -4.5 -51.5t-14.5 -24.5q-28 -32 -53 -10q-21 21 -39 162q-5 180 -4 812z" />
<glyph unicode="}" horiz-adv-x="815" d="M172 63q-11 49 4 66q19 -2 53.5 -23.5t51.5 -25.5q48 -13 94.5 5.5t64.5 66.5q11 66 9.5 105.5t-7 107t-4.5 108.5q-2 107 14.5 189.5t69.5 140.5q-30 32 -47.5 54.5t-35 58t-21.5 71.5q-5 65 4.5 191.5t5.5 187.5q-1 51 -39.5 81.5t-89.5 41.5q-5 2 -27.5 6.5 t-33.5 13.5t-11 27q-3 20 10 31.5t25.5 14t32.5 3.5q65 3 122.5 -43.5t86.5 -114.5q10 -30 13.5 -68t3 -63.5t-4 -72.5t-4.5 -66q-12 -56 1.5 -114t47.5 -103q16 -25 57.5 -52t55.5 -42q7 -7 9 -14.5t-2.5 -16t-7.5 -13.5t-12 -14l-10 -10q-3 -4 -44.5 -38.5t-49.5 -63.5 q-8 -56 -8.5 -121t1.5 -139.5t1 -120.5q0 -137 -62 -252q-49 -62 -149 -66q-138 -5 -168 86z" />
<glyph unicode="~" horiz-adv-x="692" d="M68 700q4 60 34 93q35 38 86 46.5t101 -18.5q45 -23 92 -67q40 -43 94 -54q45 0 47 45q3 4 4.5 24t3.5 26q4 14 7 18.5t16 15.5q56 18 65 -10q8 -24 5 -76q-6 -77 -50 -112q-44 -41 -116 -41q-62 8 -84 18q-45 25 -90 70q-49 49 -80 57q-13 3 -19 0q-4 -2 -6 -4.5 t-4.5 -7.5t-3.5 -6q-12 -24 -12 -62q0 -42 -21 -51q-12 -6 -24 -6q-13 3 -21 14q-28 25 -24 88z" />
<glyph unicode="&#xa1;" horiz-adv-x="477" d="M209 1470q5 15 17 27.5t26 13.5q18 4 44 1t38 -19q13 -24 9.5 -51.5t-19.5 -50.5q-14 -17 -35 -17q-25 0 -45 23q-35 44 -35 73zM215 188q-2 66 5.5 187.5t8.5 165.5q2 60 5.5 287t9.5 327q0 41 35 57q1 0 3.5 1t4.5 1q22 -4 32 -40q6 -31 11 -150q8 -393 2 -686 q-9 -127 -19 -178q0 -11 -10 -21t-24 -10h-5q-27 3 -44.5 20.5t-14.5 38.5z" />
<glyph unicode="&#xa3;" horiz-adv-x="946" d="M170 96q-6 19 10 39h-2q71 87 96 176v2q34 95 54 211.5t26 201.5t11 220q3 39 4.5 112t9.5 124t31 112q17 45 52 86t81 58q65 24 88 24h12q53 -3 100 -47q13 -12 45.5 -38t56 -49.5t36.5 -49.5q2 -2 2 -6q-3 -13 -17 -31q-12 -16 -35 -16q-4 0 -8 4q-122 122 -180 135 q-42 9 -74 -16q-37 -26 -67 -113q-13 -68 -15 -128t2 -140t3 -131q33 1 92 3t107.5 3t92.5 0q34 3 56 -19q12 -12 12 -26q0 -15 -14 -29q-22 -18 -70 -18q-53 0 -61 -2q-14 -2 -94.5 -3.5t-116.5 -15.5q-12 -17 -15 -45q-5 -46 -10 -57q-42 -252 -121 -441q14 2 80 15 t105 14q206 4 317 -35q2 -1 8 -4.5t8 -5.5q9 -9 9 -16q0 -12 -15 -27q-6 -6 -22 -18l-13 -13q-3 -8 -16 -8q-102 22 -111 23v2q-49 13 -121 9.5t-121.5 -12t-122 -20t-124.5 -14.5q-13 -3 -27 4q-11 7 -14 16z" />
<glyph unicode="&#xa5;" horiz-adv-x="1003" d="M89 1422q-11 31 13 57q21 14 27 14q15 -4 33 -14q14 -8 54 -56t71 -94q185 -286 188 -291q30 -42 31 -43q10 -7 13.5 -7t12.5 9q21 25 179 263q45 66 93 127.5t70 82.5q44 38 70 9q24 -29 12.5 -61.5t-69.5 -102.5q-63 -77 -150 -209t-125 -209q-19 -36 -26 -94l125 6 q161 7 161 -18q-1 -27 -10 -44.5t-25 -26.5t-31 -13t-38 -7q-59 -5 -188 -8l-2 -119l143 7q162 8 162 -19q-1 -26 -10 -44t-25.5 -27t-31.5 -12.5t-38 -6.5q-64 -5 -203 -8v-14q-3 -248 -10 -281q-9 -27 -43 -43t-45 2q-15 18 -18 332q-246 -4 -279 2q-47 6 -51 39 q0 15 13.5 34.5t35.5 24.5q12 3 281 10v119q-256 -4 -289 2q-47 6 -51 39q0 15 13.5 34.5t35.5 24.5q16 4 287 11v16q-7 40 -33 90q-40 82 -123.5 213t-142.5 203q-56 70 -67 101z" />
<glyph unicode="&#xa7;" horiz-adv-x="968" d="M159 808.5q1 36.5 5 68.5q24 130 137 184q-110 132 -76 274q21 78 68 125q63 61 112.5 81t104.5 20q92 -5 191.5 -61t127.5 -130q9 -23 13 -35.5t8.5 -34.5t2.5 -40t-11 -33q-12 -12 -28.5 -15.5t-27.5 9.5q-51 109 -80 147q-49 63 -114 84q-50 16 -92.5 14.5t-70 -17.5 t-48 -42t-28.5 -58.5t-11 -66t6 -65.5q6 -23 17 -42.5t22.5 -33t38.5 -33t48 -32.5t69 -42.5t84 -52.5l24 -12q30 -18 43.5 -27t29.5 -23t28 -32q34 -40 57 -92t30.5 -100.5t5.5 -91.5t-14 -71q-13 -31 -39 -62.5t-41.5 -46t-54.5 -48.5q49 -52 76 -86q50 -56 63.5 -110 t-4.5 -128q-21 -81 -67 -125q-65 -63 -132.5 -92.5t-119.5 -26.5q-58 3 -125 32t-122 78t-72 101q-9 24 -12.5 36t-8.5 34t-3 40t11 34q40 30 56 4q51 -106 76 -141q50 -68 118 -88q34 -14 72.5 -17.5t95 15.5t104.5 67q23 18 32 46t3 56q-11 53 -43 98.5t-57 61.5 q-42 33 -145 92t-150 99q-49 42 -86 90t-56 92.5t-30.5 89.5t-10.5 81.5zM267.5 805q7.5 -71 44 -135t89.5 -111q58 -42 98 -64t81.5 -30.5t77 10.5t69.5 66q42 62 6 168q-27 79 -56.5 111.5t-98.5 74.5q-73 41 -122 60.5t-78 16t-41.5 -11.5t-29.5 -28q-47 -56 -39.5 -127z " />
<glyph unicode="&#xa9;" horiz-adv-x="1398" d="M135 612.5q-17 81.5 0 159.5q32 156 119 287t219 203q67 29 144.5 46.5t170 21.5t188.5 -25.5t173 -92.5q122 -109 156 -333q10 -40 10.5 -81.5t-7 -85t-16.5 -77t-24 -78.5q-65 -214 -322 -356q-46 -29 -107 -43.5t-103.5 -16t-112.5 -0.5q-139 -1 -258.5 82t-174.5 213 q-38 95 -55 176.5zM256 788q-28 -157 47 -327q90 -139 236 -201q99 -23 268 -8q159 26 297 201q117 156 88 415q-28 138 -82 228q-40 46 -101 77.5t-128 43.5t-136.5 9t-128.5 -22q-163 -51 -288 -207q-49 -64 -72 -209zM466 791q6 73 46 131q28 41 92 88q66 47 154 53 q86 6 145 -59q31 -38 21 -76q-1 -6 -2.5 -11t-4 -8.5t-4 -5.5t-5.5 -4t-5.5 -3t-6 -3t-5.5 -2q-7 -5 -17.5 -2t-13.5 10q-6 24 -23.5 42t-41.5 24q-41 14 -105 -17q-47 -26 -80 -67t-39 -88q-6 -55 22 -110t83 -77q85 -34 221 27q1 0 21 9t32 9q27 -5 27 -22q2 -22 -23 -43 q-21 -18 -32 -23q-64 -46 -191 -53q-77 -9 -149 35q-62 38 -92 105.5t-24 140.5z" />
<glyph unicode="&#xab;" horiz-adv-x="835" d="M129 764q-10 23 14 51q111 137 205 219q5 5 41.5 36t54.5 48q15 15 45 19q33 -9 41 -21q9 -10 9 -26t-9 -27q-16 -19 -50 -47.5t-48 -42.5q-111 -108 -178 -201q-10 -21 -4 -27q8 -17 19 -31.5t32.5 -37.5t24.5 -27q41 -43 119 -119t96 -94q36 -36 34 -59 q-3 -15 -13.5 -26.5t-24.5 -8.5q-11 2 -20.5 5.5t-21 11.5t-16 11t-18.5 15.5t-15 13.5q-116 100 -243 244q-58 69 -74 121zM326 774q16 19 47.5 50.5t38.5 39.5q9 9 80 79.5t110 105.5q15 15 45 26q23 11 41.5 -15t13.5 -44q-5 -13 -13 -24t-25 -29.5t-19 -20.5 q-28 -31 -86 -92t-86 -92l-8 -11q-8 -11 -8 -18q5 -10 35 -45q18 -20 60.5 -62.5t63.5 -66.5q19 -28 15 -43q-6 -29 -23 -29q-18 -2 -63 21q-46 34 -101 92q-89 97 -114 139q-15 23 -4 39z" />
<glyph unicode="&#xad;" horiz-adv-x="679" d="M68 600q0 15 13.5 34.5t35.5 24.5q30 7 334 21q161 7 161 -18q-1 -27 -10 -44.5t-25 -26.5t-31 -13t-38 -7q-51 -7 -200.5 -11t-188.5 1q-47 6 -51 39z" />
<glyph unicode="&#xae;" horiz-adv-x="1005" d="M74 1348q24 107 86.5 195.5t156.5 137.5l2 2q113 48 232 48h8q157 0 256 -82q88 -72 115 -232q7 -28 8 -56.5t-5.5 -59.5t-12.5 -52t-17 -55q-48 -151 -233 -244q-18 -11 -40 -19t-36 -12t-44 -6.5t-37.5 -3.5t-43.5 -1.5t-37 -0.5q-102 -3 -190 55.5t-129 149.5v2 q-60 136 -39 234zM178 1354q-18 -106 35 -215q62 -90 162 -131q65 -15 186 -4q114 16 207 131q79 99 61 272q-21 93 -57 149q-37 41 -100.5 62.5t-134.5 21.5h-17q-43 0 -90 -14q-118 -38 -201 -137v2l-2 -2q-35 -44 -49 -135zM351 1422q-2 37 0 65t11 53q6 7 15.5 13 t16.5 9t20 5.5t19 3.5t21 2.5t19 1.5q47 -2 91 -25.5t63 -62.5q7 -15 8 -29.5t-4.5 -29t-11.5 -26t-18 -26t-19.5 -22.5t-20.5 -21q14 -39 50.5 -104t47.5 -88q15 -26 -10 -50.5t-51 -7.5q-17 17 -33 40t-24.5 38.5t-25 48.5l-21.5 43q-3 4 -8 18.5t-11.5 21t-17.5 1.5 q-6 -29 -6 -88t-5 -86q0 -31 -34 -39.5t-43 21.5q-7 39 -10 84t-4 98.5t-3 83.5q1 17 -1 54zM435.5 1427q-0.5 -12 0.5 -22t4 -19q33 0 62.5 17t38.5 45q4 23 -19 32t-47 7h-33q-1 -5 -3 -19t-2.5 -21.5t-1 -19.5z" />
<glyph unicode="&#xb0;" horiz-adv-x="536" d="M119 1194q-40 85 14 188q24 34 74 62q31 8 67 8q107 0 144 -98q43 -113 -23 -211q-45 -51 -94 -67t-97.5 13t-84.5 105zM188 1284q0 -47 25 -72q19 -27 42.5 -33t40.5 2.5t32 24.5q18 19 22.5 42.5t-2.5 43t-18.5 35t-24.5 21.5q-42 16 -79.5 -1.5t-37.5 -62.5z" />
<glyph unicode="&#xb1;" horiz-adv-x="888" d="M68 389q0 15 13.5 35t35.5 25q11 3 85.5 5t211.5 6t245 9q162 8 162 -18q-1 -27 -10 -44.5t-25 -26.5t-31 -13t-38 -7q-50 -6 -305 -11t-293 1q-47 6 -51 39zM68 864q0 15 13.5 35t35.5 25q12 3 264 10l-6 121q-8 162 18 162q18 -1 31.5 -4.5t23 -14t14.5 -15.5t10 -23 t6 -22t5 -26q5 -31 9 -174l167 6q162 8 162 -18q-1 -26 -9.5 -43.5t-26 -26.5t-30.5 -12.5t-38 -7.5q-21 -3 -221 -11q3 -200 -2 -231q-6 -47 -39 -51q-15 0 -35 13.5t-25 35.5q-4 14 -10 231q-233 -4 -266 2q-47 6 -51 39z" />
<glyph unicode="&#xb7;" horiz-adv-x="436" d="M168 662q0 50 18 73q14 19 46.5 22.5t48.5 -16.5q18 -22 21.5 -50t-9.5 -52q-12 -16 -38 -19t-44 1q-14 1 -27 14t-16 27z" />
<glyph unicode="&#xbb;" horiz-adv-x="827" d="M168 1016q-5 18 13.5 44t41.5 15q30 -11 45 -26q29 -26 61 -57t70.5 -69.5t59.5 -58.5q7 -8 38.5 -39.5t47.5 -50.5q11 -16 -4 -39q-9 -15 -19 -29t-24 -30t-22 -25.5t-26 -28.5t-24 -26q-57 -60 -100 -92q-45 -23 -64 -21q-16 0 -22 29q-4 16 14 43q21 24 64 66.5 t61 62.5q30 35 35 45q0 7 -8.5 17.5t-8.5 11.5q-28 31 -86 92t-86 92q-5 5 -15.5 16.5t-16.5 18.5t-13.5 18t-11.5 21zM295 377q0 5 0.5 9.5t1.5 8t4 8t4.5 7t6 7.5t6 6.5l6.5 6.5l6 6q18 18 96 94t119 119q6 7 20 22t22 24t18 23t16 27q6 6 -5 27q-67 93 -178 201 q-14 14 -48 42.5t-50 47.5q-9 11 -9 27t9 26q8 12 41 21q30 -4 45 -19q18 -17 54.5 -48t41.5 -36q94 -82 205 -219q24 -28 14 -51q-17 -54 -73 -121q-124 -141 -244 -244q-3 -3 -15.5 -13.5t-18 -15t-16 -12t-20 -11t-20.5 -5.5q-14 -3 -25 8.5t-14 26.5z" />
<glyph unicode="&#xbf;" horiz-adv-x="737" d="M68.5 438q-1.5 79 7.5 115q39 149 196 211q54 18 67 35q10 13 11 28q8 168 14 227.5t19 73.5q9 12 29.5 17t31.5 -2q33 -23 23 -316q-4 -102 -125 -135q-159 -44 -170 -262q-3 -31 0.5 -46.5t17.5 -43.5q19 -36 47 -67.5t52 -43.5q30 -12 84 -12t82.5 13t62.5 51 q39 55 92 81q52 25 59 -13q5 -29 -24 -93q-24 -33 -69 -68.5t-91 -52.5q-55 -20 -96 -20q-53 0 -121 26q-68 27 -118 77.5t-68 103.5q-12 37 -13.5 116zM342 1419q9 59 33 78q15 7 33.5 7t31.5 -9q2 -2 12.5 -12t14.5 -14.5t10.5 -13.5t8.5 -17t1 -17q-9 -26 -34.5 -42.5 t-55.5 -18.5h-4q-25 -1 -39.5 17.5t-11.5 41.5z" />
<glyph unicode="&#xc0;" horiz-adv-x="960" d="M66 160q0 57 18 119t80 208q36 86 112 299l109 312q67 194 80 239q21 72 27 84q3 7 14.5 13t23.5 6q2 0 6.5 -1t6.5 -1q17 -7 25 -25.5t14 -62.5q11 -78 51 -203q43 -134 67 -232q18 -72 31 -101t31 -38q17 -12 21 -25.5t-1 -37.5q-9 -50 47 -250q48 -172 61 -240.5 t1 -95.5q-9 -22 -27 -35q-9 -8 -13.5 -8t-14.5 8q-16 11 -30 45.5t-38 124.5q-102 382 -109 389q-5 5 -127 19q-99 12 -139 20q-22 3 -34 -15t-37 -87q-44 -124 -86 -223q-18 -44 -44.5 -113.5t-31.5 -79.5q-43 -90 -67 -91q-10 0 -19 13q-11 11 -8 66zM387 1741q0 18 4 26 q1 1 6.5 12.5t8.5 12.5q2 2 6 2h4q20 -4 37 -16q40 -30 59 -49q94 -85 117 -103q50 -40 53 -43q11 -11 14 -31q4 -17 -0.5 -32.5t-13.5 -20.5l-10 -2h-29q-29 4 -41 12q-19 11 -47 39q-15 13 -41.5 36t-39 34t-31 29.5t-27.5 31t-17.5 29t-11.5 33.5zM403 827 q0 -27 32.5 -37t127.5 -10q68 0 70 6v2q-10 27 -54 185.5t-44 163.5q0 7 -9 20q-2 4 -6 4q-5 0 -28 -53q-25 -55 -57 -156.5t-32 -124.5z" />
<glyph unicode="&#xc1;" horiz-adv-x="960" d="M66 160q0 57 18 119t80 208q36 86 112 299l109 312q67 194 80 239q21 72 27 84q3 7 14.5 13t23.5 6q2 0 6.5 -1t6.5 -1q17 -7 25 -25.5t14 -62.5q11 -78 51 -203q43 -134 67 -232q18 -72 31 -101t31 -38q17 -12 21 -25.5t-1 -37.5q-9 -50 47 -250q48 -172 61 -240.5 t1 -95.5q-9 -22 -27 -35q-9 -8 -13.5 -8t-14.5 8q-16 11 -30 45.5t-38 124.5q-102 382 -109 389q-5 5 -127 19q-99 12 -139 20q-22 3 -34 -15t-37 -87q-44 -124 -86 -223q-18 -44 -44.5 -113.5t-31.5 -79.5q-43 -90 -67 -91q-10 0 -19 13q-11 11 -8 66zM362 1552q3 19 15 31 q3 3 53 43q23 18 117 103q19 19 59 49q17 12 37 16h4q4 0 6 -2q3 -1 8.5 -12.5t6.5 -12.5q4 -8 4 -26q-3 -17 -11.5 -33.5t-17.5 -29t-27.5 -31t-31 -29.5t-39 -34t-41.5 -36q-28 -28 -47 -39q-12 -8 -41 -12h-29l-10 2q-9 5 -14 20.5t-1 32.5zM403 827q0 -27 32.5 -37 t127.5 -10q68 0 70 6v2q-10 27 -54 185.5t-44 163.5q0 7 -9 20q-2 4 -6 4q-5 0 -28 -53q-25 -55 -57 -156.5t-32 -124.5z" />
<glyph unicode="&#xc2;" horiz-adv-x="960" d="M66 160q0 57 18 119t80 208q36 86 112 299l109 312q67 194 80 239q21 72 27 84q3 7 14.5 13t23.5 6q2 0 6.5 -1t6.5 -1q17 -7 25 -25.5t14 -62.5q11 -78 51 -203q43 -134 67 -232q18 -72 31 -101t31 -38q17 -12 21 -25.5t-1 -37.5q-9 -50 47 -250q48 -172 61 -240.5 t1 -95.5q-9 -22 -27 -35q-9 -8 -13.5 -8t-14.5 8q-16 11 -30 45.5t-38 124.5q-102 382 -109 389q-5 5 -127 19q-99 12 -139 20q-22 3 -34 -15t-37 -87q-44 -124 -86 -223q-18 -44 -44.5 -113.5t-31.5 -79.5q-43 -90 -67 -91q-10 0 -19 13q-11 11 -8 66zM264 1483q1 5 19 30 q23 32 125 134q89 89 114 112q8 6 18 14.5t13 10.5q9 10 19 9t16 -11q0 1 9 -10t20.5 -25t15.5 -18q29 -42 106 -127q42 -47 49 -56q2 -3 6 -7.5t6 -7.5t3 -5q2 -4 6 -8q0 -1 1 -3.5t1 -3.5q0 -16 -20 -32q-23 -15 -43 -15q-11 0 -29 11q-4 4 -9.5 8.5t-13 11t-12.5 10.5 q-44 44 -102 119l-37 47l-47 -51q-84 -90 -146 -135q-31 -22 -49 -27q-8 -3 -24 2q-15 15 -15 23zM403 827q0 -27 32.5 -37t127.5 -10q68 0 70 6v2q-10 27 -54 185.5t-44 163.5q0 7 -9 20q-2 4 -6 4q-5 0 -28 -53q-25 -55 -57 -156.5t-32 -124.5z" />
<glyph unicode="&#xc3;" horiz-adv-x="960" d="M66 160q0 57 18 119t80 208q36 86 112 299l109 312q67 194 80 239q21 72 27 84q3 7 14.5 13t23.5 6q2 0 6.5 -1t6.5 -1q17 -7 25 -25.5t14 -62.5q11 -78 51 -203q43 -134 67 -232q18 -72 31 -101t31 -38q17 -12 21 -25.5t-1 -37.5q-9 -50 47 -250q48 -172 61 -240.5 t1 -95.5q-9 -22 -27 -35q-9 -8 -13.5 -8t-14.5 8q-16 11 -30 45.5t-38 124.5q-102 382 -109 389q-5 5 -127 19q-99 12 -139 20q-22 3 -34 -15t-37 -87q-44 -124 -86 -223q-18 -44 -44.5 -113.5t-31.5 -79.5q-43 -90 -67 -91q-10 0 -19 13q-11 11 -8 66zM299 1612q3 49 31 80 q29 32 72.5 39t86.5 -15q34 -17 80 -57q32 -35 82 -47q39 0 41 39q2 4 3 20.5t3 22.5q4 13 7 16.5t14 13.5q46 15 55 -10q7 -17 4 -65q-3 -68 -43 -97q-37 -34 -100 -34q-51 4 -72 14q-29 15 -78 61q-45 42 -69 49q-10 3 -17 0q-2 -2 -12 -16q-10 -23 -10 -53t-19 -43 q-9 -6 -20 -6q-11 4 -19 12q-24 24 -20 76zM403 827q0 -27 32.5 -37t127.5 -10q68 0 70 6v2q-10 27 -54 185.5t-44 163.5q0 7 -9 20q-2 4 -6 4q-5 0 -28 -53q-25 -55 -57 -156.5t-32 -124.5z" />
<glyph unicode="&#xc4;" horiz-adv-x="960" d="M66 160q0 57 18 119t80 208q36 86 112 299l109 312q67 194 80 239q21 72 27 84q3 7 14.5 13t23.5 6q2 0 6.5 -1t6.5 -1q17 -7 25 -25.5t14 -62.5q11 -78 51 -203q43 -134 67 -232q18 -72 31 -101t31 -38q17 -12 21 -25.5t-1 -37.5q-9 -50 47 -250q48 -172 61 -240.5 t1 -95.5q-9 -22 -27 -35q-9 -8 -13.5 -8t-14.5 8q-16 11 -30 45.5t-38 124.5q-102 382 -109 389q-5 5 -127 19q-99 12 -139 20q-22 3 -34 -15t-37 -87q-44 -124 -86 -223q-18 -44 -44.5 -113.5t-31.5 -79.5q-43 -90 -67 -91q-10 0 -19 13q-11 11 -8 66zM397 1653q0 51 2 63 q4 13 9 15q61 22 84 -35q13 -31 8 -109q-3 -13 -17 -24q-12 -10 -30 -17q-44 -7 -50 19l-4 32q-2 16 -2 56zM403 827q0 -27 32.5 -37t127.5 -10q68 0 70 6v2q-10 27 -54 185.5t-44 163.5q0 7 -9 20q-2 4 -6 4q-5 0 -28 -53q-25 -55 -57 -156.5t-32 -124.5zM586 1653 q0 17 1 27t4 24.5t12 23.5t24 13q18 4 32 -7t21 -30q14 -33 8 -117q-3 -14 -16 -24q-12 -9 -31 -17q-4 -2 -12.5 -0.5t-17 5t-15.5 16t-8 30.5q-2 16 -2 56z" />
<glyph unicode="&#xc5;" horiz-adv-x="960" d="M66 160q0 57 18 119t80 208q36 86 112 299l109 312q67 194 80 239q21 72 27 84q3 7 14.5 13t23.5 6q2 0 6.5 -1t6.5 -1q17 -7 25 -25.5t14 -62.5q11 -78 51 -203q43 -134 67 -232q18 -72 31 -101t31 -38q17 -12 21 -25.5t-1 -37.5q-9 -50 47 -250q48 -172 61 -240.5 t1 -95.5q-9 -22 -27 -35q-9 -8 -13.5 -8t-14.5 8q-16 11 -30 45.5t-38 124.5q-102 382 -109 389q-5 5 -127 19q-99 12 -139 20q-22 3 -34 -15t-37 -87q-44 -124 -86 -223q-18 -44 -44.5 -113.5t-31.5 -79.5q-43 -90 -67 -91q-10 0 -19 13q-11 11 -8 66zM403 827 q0 -27 32.5 -37t127.5 -10q68 0 70 6v2q-10 27 -54 185.5t-44 163.5q0 7 -9 20q-2 4 -6 4q-5 0 -28 -53q-25 -55 -57 -156.5t-32 -124.5zM418 1587q-35 74 12 162q18 27 64 53q27 8 59 8q90 0 123 -86q37 -98 -19 -182q-39 -44 -81.5 -57t-85 12t-72.5 90zM479 1665 q0 -40 21 -61q16 -24 36.5 -29t35.5 2t26 20q28 37 18 73.5t-36 49.5q-38 13 -69.5 -1.5t-31.5 -53.5z" />
<glyph unicode="&#xc6;" horiz-adv-x="1161" d="M35 94q-20 29 0 88q79 168 317.5 701.5t231.5 527.5q12 14 41 21q36 8 128 15t158 7q87 0 118.5 -4t41.5 -20q8 -12 4.5 -30.5t-16.5 -25.5q-14 -3 -170 -10q-68 -3 -110 -7.5t-53 -7.5t-38 -12q-11 -3 -13 -7.5t-1 -22.5q4 -198 -4 -387l-2 -93l120 -2q172 -3 187 -12 q22 -13 12 -47q-5 -14 -10.5 -20t-27.5 -10.5t-56 -5.5t-105 -1h-118l-2 -41q-5 -99 -5.5 -265.5t3.5 -195.5l6 -18l149 -2q160 -2 198 -6.5t42 -24.5q2 -15 -7 -32.5t-22 -24.5q-25 -10 -215 -13q-148 -3 -180 -6h-28.5t-21 3t-15.5 3t-10.5 7t-6.5 8.5t-3 14t-1 16v22.5 v27q5 79 7 161.5t2.5 202t0.5 160.5l-164 6q-7 -16 -76 -162.5t-114.5 -248.5t-65.5 -160q-11 -31 -50 -55t-56 -11zM444 844q32 -6 115 -6q2 22 2.5 47t1.5 33l8 196q-14 -19 -38 -70.5t-50.5 -113.5t-38.5 -86z" />
<glyph unicode="&#xc7;" horiz-adv-x="954" d="M168 690q-6 160 35 330q31 133 79 217.5t132 153.5q87 71 153 84q27 6 51 6q63 0 115 -35t80 -98q16 -36 19.5 -62t-5.5 -40.5t-30 -14.5q-11 0 -26 12.5t-48 50.5q-60 69 -92 80t-90 -20q-157 -88 -213 -291q-25 -92 -38 -229.5t-5 -215.5q14 -148 53 -235 q27 -59 82 -106t108 -54q18 -4 60 5t76 24q21 7 104 59q73 46 88 41q16 -8 15 -27.5t-22 -50t-56 -61.5q-80 -70 -152 -90q-32 -8 -109 -12q-3 -27 -8 -48q-6 -17 21 -22q49 -10 80 -41t41 -70q12 -59 -25.5 -119.5t-95.5 -70.5q-57 -11 -99.5 -0.5t-89.5 47.5 q-49 37 -21 64q23 21 64 14q17 -3 29 -12q47 -30 79.5 -27.5t45.5 29.5q12 40 -7 71t-59 35q-36 6 -53 22t-12 37q1 9 31 91l-19 2q-57 13 -129 100q-69 85 -99.5 189t-37.5 288z" />
<glyph unicode="&#xc8;" horiz-adv-x="823" d="M170 203q5 55 2 551q-2 264 -2 546q0 73 11 98t50 34q34 7 153 14.5t189 7.5q87 0 118.5 -4t41.5 -20q8 -12 4.5 -30.5t-16.5 -25.5q-14 -3 -170 -10q-214 -9 -270 -27q-11 -3 -13.5 -7.5t-1.5 -22.5q7 -355 10 -387l5 -62l176 -2q171 -3 186 -12q22 -13 12 -47 q-5 -14 -10 -19.5t-28 -10t-54.5 -5.5t-105.5 -2l-166 -2l-2 -41q-5 -112 -8.5 -281.5t0.5 -210.5l6 -18h196q84 0 126.5 -1t69.5 -4.5t34.5 -9t9.5 -16.5q2 -15 -7 -32.5t-22 -24.5q-25 -10 -215 -13q-216 -4 -235 -6q-12 -2 -37 -2q-2 0 -4 2q-6 0 -8 2q-19 8 -24 28 t-1 73zM264 1741q0 18 4 26q1 1 6.5 12.5t8.5 12.5q2 2 6 2h4q20 -4 37 -16q40 -30 59 -49q94 -85 117 -103q50 -40 53 -43q11 -11 14 -31q4 -17 -0.5 -32.5t-13.5 -20.5l-10 -2h-29q-29 4 -41 12q-19 11 -47 39q-15 13 -41.5 36t-39 34t-31 29.5t-27.5 31t-17.5 29 t-11.5 33.5z" />
<glyph unicode="&#xc9;" horiz-adv-x="823" d="M170 203q5 55 2 551q-2 264 -2 546q0 73 11 98t50 34q34 7 153 14.5t189 7.5q87 0 118.5 -4t41.5 -20q8 -12 4.5 -30.5t-16.5 -25.5q-14 -3 -170 -10q-214 -9 -270 -27q-11 -3 -13.5 -7.5t-1.5 -22.5q7 -355 10 -387l5 -62l176 -2q171 -3 186 -12q22 -13 12 -47 q-5 -14 -10 -19.5t-28 -10t-54.5 -5.5t-105.5 -2l-166 -2l-2 -41q-5 -112 -8.5 -281.5t0.5 -210.5l6 -18h196q84 0 126.5 -1t69.5 -4.5t34.5 -9t9.5 -16.5q2 -15 -7 -32.5t-22 -24.5q-25 -10 -215 -13q-216 -4 -235 -6q-12 -2 -37 -2q-2 0 -4 2q-6 0 -8 2q-19 8 -24 28 t-1 73zM313 1552q3 19 15 31q3 3 53 43q23 18 117 103q19 19 59 49q17 12 37 16h4q4 0 6 -2q3 -1 8 -12.5t6 -12.5q5 -10 5 -26q-3 -17 -11.5 -33.5t-17.5 -29t-27.5 -31t-31 -29.5t-39 -34t-41.5 -36q-28 -28 -47 -39q-12 -8 -41 -12h-29l-10 2q-9 5 -14 20.5t-1 32.5z" />
<glyph unicode="&#xca;" horiz-adv-x="823" d="M170 203q5 55 2 551q-2 264 -2 546q0 73 11 98t50 34q34 7 153 14.5t189 7.5q87 0 118.5 -4t41.5 -20q8 -12 4.5 -30.5t-16.5 -25.5q-14 -3 -170 -10q-214 -9 -270 -27q-11 -3 -13.5 -7.5t-1.5 -22.5q7 -355 10 -387l5 -62l176 -2q171 -3 186 -12q22 -13 12 -47 q-5 -14 -10 -19.5t-28 -10t-54.5 -5.5t-105.5 -2l-166 -2l-2 -41q-5 -112 -8.5 -281.5t0.5 -210.5l6 -18h196q84 0 126.5 -1t69.5 -4.5t34.5 -9t9.5 -16.5q2 -15 -7 -32.5t-22 -24.5q-25 -10 -215 -13q-216 -4 -235 -6q-12 -2 -37 -2q-2 0 -4 2q-6 0 -8 2q-19 8 -24 28 t-1 73zM174 1522q1 5 19 30q26 36 124 134q78 78 115 112q8 6 18 14.5t13 10.5q17 12 35 -2q6 -9 16 -19q9 -13 58.5 -73t76.5 -89q46 -52 49 -55q2 -3 6 -7.5t6 -7.5t3 -5q3 -6 6 -9q0 -1 1 -3t1 -3q0 -15 -21 -32q-23 -15 -43 -15q-11 0 -28 10q-5 4 -17 15t-18 16 q-44 44 -102 119l-37 47l-47 -51q-84 -90 -146 -135q-31 -22 -49 -27q-9 -3 -25 2q-6 0 -8 2v4h-2v2q-4 8 -4 15z" />
<glyph unicode="&#xcb;" horiz-adv-x="823" d="M170 203q5 55 2 551q-2 264 -2 546q0 73 11 98t50 34q34 7 153 14.5t189 7.5q87 0 118.5 -4t41.5 -20q8 -12 4.5 -30.5t-16.5 -25.5q-14 -3 -170 -10q-214 -9 -270 -27q-11 -3 -13.5 -7.5t-1.5 -22.5q7 -355 10 -387l5 -62l176 -2q171 -3 186 -12q22 -13 12 -47 q-5 -14 -10 -19.5t-28 -10t-54.5 -5.5t-105.5 -2l-166 -2l-2 -41q-5 -112 -8.5 -281.5t0.5 -210.5l6 -18h196q84 0 126.5 -1t69.5 -4.5t34.5 -9t9.5 -16.5q2 -15 -7 -32.5t-22 -24.5q-25 -10 -215 -13q-216 -4 -235 -6q-12 -2 -37 -2q-2 0 -4 2q-6 0 -8 2q-19 8 -24 28 t-1 73zM326 1653q0 51 2 63q4 13 8 15q61 22 84 -35q13 -31 8 -109q-3 -14 -16 -24q-12 -9 -31 -17q-43 -7 -49 19l-4 32q-2 16 -2 56zM514 1653q0 17 1 27t4 24.5t12 23.5t24 13q33 8 53 -37q14 -33 8 -117q-3 -14 -16 -24q-12 -9 -31 -17q-4 -2 -12.5 -0.5t-17 5t-15.5 16 t-8 30.5q-2 16 -2 56z" />
<glyph unicode="&#xcc;" horiz-adv-x="649" d="M164 1741q0 18 4 26q1 1 6 12.5t8 12.5q2 2 6 2h5q19 -4 36 -16q44 -33 60 -49q94 -85 117 -103q50 -40 53 -43q11 -11 14 -31q4 -17 -0.5 -32.5t-13.5 -20.5l-10 -2h-29q-29 4 -41 12q-19 11 -47 39q-15 13 -41.5 36t-39 34t-31 29.5t-27.5 31t-17.5 29t-11.5 33.5z M283 430q2 50 2.5 261t3.5 319q8 277 12 343.5t14 78.5q11 10 28.5 8t31.5 -10q8 -6 13.5 -16t7 -26t2 -26.5t0 -32t-0.5 -26.5q0 -50 1.5 -337.5t1 -480t-4.5 -223.5q-18 -141 -39 -162q-24 -21 -53 11q-10 10 -13 23t-5 52q-7 106 -2 244z" />
<glyph unicode="&#xcd;" horiz-adv-x="622" d="M190 1552q3 19 15 31q3 3 53 43q23 18 117 103q19 19 59 49q17 12 37 16h4q4 0 6 -2q3 -1 8.5 -12.5t6.5 -12.5q4 -8 4 -26q-3 -17 -11.5 -33.5t-17.5 -29t-27.5 -31t-31 -29.5t-39 -34t-41.5 -36q-28 -28 -47 -39q-12 -8 -41 -12h-29l-10 2q-9 5 -14 20.5t-1 32.5z M245.5 485.5q-0.5 192.5 1 480t1.5 337.5q0 5 -0.5 26.5t0 32t2 26.5t7 26t13.5 16q14 8 31.5 10t28.5 -8q10 -12 14 -78.5t12 -343.5q3 -108 3.5 -319t2.5 -261q5 -138 -2 -244q-2 -39 -5 -52t-13 -23q-29 -32 -53 -11q-21 21 -39 162q-4 31 -4.5 223.5z" />
<glyph unicode="&#xce;" horiz-adv-x="581" d="M25 1526q2 7 18 30q23 32 125 134q77 78 115 112q8 6 17.5 14.5t12.5 10.5q9 10 19 9t16 -11q0 1 9 -10t20.5 -25t15.5 -18q26 -38 107 -127q42 -47 49 -56q12 -16 14 -20t6 -8q0 -1 1 -3.5t1 -3.5q0 -16 -20 -32q-23 -15 -43 -15q-11 0 -29 11q-4 4 -9.5 8.5t-13 11 t-12.5 10.5q-44 44 -102 119l-37 47l-47 -51q-86 -92 -145 -135q-31 -21 -50 -27q-8 -3 -24 2q-14 14 -14 23zM243.5 1361.5q-0.5 21.5 0 32t2 26.5t7 26t13.5 16q23 13 37 13q16 3 23 -11q10 -12 14 -83t12 -371q3 -108 3.5 -319t2.5 -261q5 -138 -2 -244q-2 -39 -5 -52 t-13 -23q-29 -32 -53 -11q-21 21 -39 162q-10 89 -2 1073q0 5 -0.5 26.5z" />
<glyph unicode="&#xcf;" horiz-adv-x="512" d="M127 1653q0 51 2 63q4 13 8 15q61 22 84 -35q13 -31 8 -109q-3 -14 -16 -24q-11 -9 -31 -17q-43 -7 -49 19l-4 32q-2 16 -2 56zM212.5 1361.5q-0.5 23.5 0 32t2.5 26t7.5 27t13.5 15.5q23 13 36 13q16 3 23 -11q11 -12 15.5 -86t11.5 -368q3 -108 3.5 -319t2.5 -261 q5 -138 -2 -244q-1 -38 -4.5 -51t-14.5 -24q-29 -32 -53 -11q-21 21 -39 162q-10 89 -2 1073q0 3 -0.5 26.5zM315 1653q0 17 1 27t4 24.5t12 23.5t24 13q18 4 33 -7t21 -30q14 -33 8 -117q-3 -13 -17 -24q-13 -10 -30 -17q-9 -2 -19 0t-21.5 14.5t-13.5 36.5q-2 16 -2 56z " />
<glyph unicode="&#xd0;" horiz-adv-x="962" d="M35 676q-2 25 8.5 45t40.5 20q14 2 39 2h51v658q12 34 51 37h2q30 -4 54 -17q50 -27 184 -162t199 -221q83 -111 143.5 -250.5t69.5 -238.5q13 -138 -85 -258.5t-264 -171.5q-63 -19 -149 -21q-93 -3 -127 6q-44 12 -58.5 32.5t-15.5 76.5l-2 434q-45 0 -63 2 q-69 0 -78 27zM276 1065q0 -43 1 -99.5t3 -124t3 -98.5q210 0 213 -41q1 -13 -3 -22.5t-14 -15t-15.5 -7.5t-20.5 -5t-17 -3q-35 -6 -107 -6h-34q6 -135 6 -285q0 -164 6 -168q3 -10 20 -6l105 21q101 17 163.5 48t108.5 87q61 72 64 172q6 50 -2 90q-8 38 -39.5 110 t-65.5 126q-81 129 -190 263.5t-166 166.5l-19 10v-213z" />
<glyph unicode="&#xd1;" horiz-adv-x="1052" d="M174 1386q14 88 47 101q0 2 8 2q15 0 35.5 -29.5t54.5 -105.5q56 -106 103 -209q31 -52 153 -307q132 -275 218 -428l24 -39v137q0 161 -10 389q-8 274 -8 406q0 130 5.5 156t33.5 26q41 0 49 -35q7 -20 14 -238q2 -56 5 -202t5 -199q8 -238 8.5 -440.5t-8.5 -231.5 q-10 -32 -34 -38.5t-46 16.5q-48 59 -245 463q-91 191 -131 260l-111 217q-19 36 -28.5 54.5t-17 32t-10.5 16t-5 -0.5q-5 -6 -2 -317.5t10 -472.5q6 -136 2 -190.5t-21 -67.5q-14 -12 -28 -12t-25 12q-20 23 -28.5 111t-14.5 347q-17 709 -2 817zM301 1612q3 49 31 80 q29 32 73 39t87 -15q32 -16 79 -57q32 -35 82 -47q39 0 41 39q2 4 3 20.5t3 22.5q4 13 7 16.5t14 13.5q46 15 55 -10q7 -17 4 -65q-3 -68 -43 -97q-37 -34 -100 -34q-51 4 -72 14q-29 15 -78 61q-45 42 -69 49q-10 3 -17 0q-2 -2 -12 -16q-10 -23 -10 -53t-19 -43 q-9 -6 -20 -6q-9 3 -18 12q-25 25 -21 76z" />
<glyph unicode="&#xd2;" horiz-adv-x="892" d="M127 752q0 364 117 585q25 48 90.5 106.5t122.5 63.5q63 0 104 -18q174 -66 223 -326q22 -115 25.5 -362t-16.5 -342q-29 -145 -90.5 -243.5t-137.5 -121.5q-21 -6 -73.5 -5t-79.5 7q-70 15 -138 78t-92 137q-55 158 -55 441zM244 770q-6 -282 41 -414q9 -30 40.5 -72.5 t53.5 -54.5q63 -38 162 -6q89 36 125 170q34 118 38 362t-24 392q-13 77 -54 145.5t-87 91.5q-22 11 -47 11q-45 0 -86.5 -38t-73.5 -110q-45 -94 -63.5 -194.5t-24.5 -282.5zM354 1782q0 18 4 26q1 1 6.5 12.5t8.5 12.5q2 2 6 2h4q20 -4 37 -16q36 -27 59 -50 q84 -76 117 -102q50 -40 53 -43q12 -12 15 -31q4 -17 -1 -32.5t-14 -20.5l-10 -2h-29q-29 4 -41 12q-19 11 -47 39q-15 13 -41.5 36t-39 34t-31 29.5t-27.5 31t-17.5 29t-11.5 33.5z" />
<glyph unicode="&#xd3;" horiz-adv-x="892" d="M127 752q0 364 117 585q25 48 90.5 106.5t122.5 63.5q63 0 104 -18q174 -66 223 -326q22 -115 25.5 -362t-16.5 -342q-29 -145 -90.5 -243.5t-137.5 -121.5q-21 -6 -73.5 -5t-79.5 7q-70 15 -138 78t-92 137q-55 158 -55 441zM244 770q-6 -282 41 -414q9 -30 40.5 -72.5 t53.5 -54.5q63 -38 162 -6q89 36 125 170q34 118 38 362t-24 392q-13 77 -54 145.5t-87 91.5q-22 11 -47 11q-45 0 -86.5 -38t-73.5 -110q-45 -94 -63.5 -194.5t-24.5 -282.5zM305 1595q3 20 14 31q4 4 12.5 10.5t21.5 16.5t20 16q14 11 116 103q16 16 60 49q17 12 37 16h4 q4 0 6 -2q3 -1 8 -12.5t6 -12.5q4 -8 4 -26q-3 -17 -11.5 -33.5t-17.5 -29t-27.5 -31t-31 -29.5t-39 -34t-41.5 -36q-28 -28 -47 -39q-12 -8 -41 -12h-28l-11 2q-9 5 -13.5 20.5t-0.5 32.5z" />
<glyph unicode="&#xd4;" horiz-adv-x="892" d="M127 752q0 364 117 585q20 38 71.5 94.5t73.5 65.5q27 10 68 10q63 0 104 -18q174 -66 223 -326q22 -115 25.5 -362t-16.5 -342q-29 -145 -90.5 -243.5t-137.5 -121.5q-21 -6 -73.5 -5t-79.5 7q-70 15 -138 78t-92 137q-55 158 -55 441zM205 1526q2 7 18 30 q23 32 125 134q77 78 115 112q8 6 18 14.5t13 10.5q18 21 34 -2q0 1 9 -10t20.5 -25t15.5 -18q26 -38 107 -127q42 -47 49 -56q12 -16 14 -20q1 -2 7 -8q0 -1 1 -3.5t1 -3.5q0 -15 -21 -32q-23 -15 -43 -15q-11 0 -29 11q-5 4 -16.5 14.5t-17.5 15.5q-48 48 -103 119l-37 47 l-47 -51q-86 -92 -145 -135q-31 -22 -49 -27q-9 -3 -25 2q-14 14 -14 23zM244 770q-6 -282 41 -414q9 -30 40.5 -72.5t53.5 -54.5q63 -38 162 -6q89 36 125 170q34 118 38 362t-24 392q-13 77 -54 145.5t-87 91.5q-22 11 -47 11q-45 0 -86.5 -38t-73.5 -110 q-45 -94 -63.5 -194.5t-24.5 -282.5z" />
<glyph unicode="&#xd5;" horiz-adv-x="892" d="M127 752q0 364 117 585q20 38 71.5 94.5t73.5 65.5q27 10 68 10q63 0 104 -18q174 -66 223 -326q22 -115 25.5 -362t-16.5 -342q-29 -145 -90.5 -243.5t-137.5 -121.5q-21 -6 -73.5 -5t-79.5 7q-70 15 -138 78t-92 137q-55 158 -55 441zM244 770q-6 -282 41 -414 q9 -30 40.5 -72.5t53.5 -54.5q63 -38 162 -6q89 36 125 170q34 118 38 362t-24 392q-13 77 -54 145.5t-87 91.5q-22 11 -47 11q-45 0 -86.5 -38t-73.5 -110q-45 -94 -63.5 -194.5t-24.5 -282.5zM276 1673q3 49 31 80q29 32 73 39.5t87 -14.5q31 -16 80 -58q32 -35 82 -47 q39 0 41 39q2 4 3 20.5t3 22.5q6 19 20 31q47 15 56 -10q7 -17 4 -66q-3 -67 -43 -96q-38 -35 -101 -35q-50 3 -71 14q-27 14 -78 62q-44 42 -70 49q-10 3 -16 0q-2 -2 -12 -16q-11 -26 -11 -54q0 -31 -18 -43q-9 -6 -21 -6q-9 3 -18 12q-25 25 -21 76z" />
<glyph unicode="&#xd6;" horiz-adv-x="892" d="M127 752q0 364 117 585q20 38 71.5 94.5t73.5 65.5q27 10 68 10q63 0 104 -18q174 -66 223 -326q22 -115 25.5 -362t-16.5 -342q-29 -145 -90.5 -243.5t-137.5 -121.5q-21 -6 -73.5 -5t-79.5 7q-70 15 -138 78t-92 137q-55 158 -55 441zM244 770q-6 -282 41 -414 q9 -30 40.5 -72.5t53.5 -54.5q63 -38 162 -6q89 36 125 170q34 118 38 362t-24 392q-13 77 -54 145.5t-87 91.5q-22 11 -47 11q-45 0 -86.5 -38t-73.5 -110q-45 -94 -63.5 -194.5t-24.5 -282.5zM342 1673q0 52 2 64q4 12 8 14q61 22 84 -35q13 -31 8 -108q-3 -15 -16 -25 q-9 -7 -31 -16q-43 -7 -49 18l-4 33q-2 16 -2 55zM530 1673q0 17 1 27t4 24.5t12 23.5t24 13q34 8 54 -37q14 -32 8 -116q-3 -14 -17 -25q-10 -8 -30 -16q-9 -2 -19 0t-21.5 14.5t-13.5 36.5q-2 16 -2 55z" />
<glyph unicode="&#xd8;" horiz-adv-x="958" d="M127 752q0 364 117 585q37 71 92.5 120.5t120.5 49.5q63 0 104 -18q94 -37 152 -125l2 4q30 62 64 99.5t57 37.5q27 0 36 -12q6 -9 -7.5 -42.5t-40.5 -87.5t-36 -75l-20 -51q12 -45 16 -74q22 -115 25.5 -362t-16.5 -342q-29 -145 -90.5 -243.5t-137.5 -121.5 q-21 -6 -73.5 -5t-79.5 7q-72 15 -140 80l-32 -74q-9 -15 -49.5 -22.5t-51.5 4.5q-10 11 -7 41.5t15 44.5q21 21 46 76l10 20q-16 29 -21 45q-55 158 -55 441zM244 770q-6 -222 24 -358q37 81 107.5 241t130 288.5t145.5 301.5q-22 50 -52 88t-60 53q-22 11 -47 11 q-45 0 -86.5 -38t-73.5 -110q-45 -94 -63.5 -194.5t-24.5 -282.5zM328 281q28 -39 51 -52q63 -38 162 -6q89 36 125 170q29 101 36.5 307t-10.5 363q-19 -41 -133 -275t-209 -464q-8 -18 -22 -43z" />
<glyph unicode="&#xd9;" horiz-adv-x="958" d="M167 1115.5q0 317.5 3 352.5q3 20 6.5 25t18.5 6q45 3 53 -37q2 -16 6 -225q6 -333 21 -573t32 -299q14 -37 39 -68.5t53 -44.5q29 -10 101 -10q47 0 64 2.5t36 11.5q30 18 53.5 50.5t32.5 70.5q17 68 34 360t17 533q0 114 5 160.5t18 56.5q9 12 33 12q23 3 26 -10 q4 -15 5.5 -236.5t-1.5 -410.5q-6 -329 -22.5 -447.5t-61.5 -175.5q-57 -61 -129 -84q-36 -10 -92 -12t-92 4q-125 30 -188 115q-32 43 -46 131t-22 289q-3 136 -3 453.5zM332 1741q0 18 4 26q1 1 6 12.5t8 12.5q2 2 6 2h4q20 -4 37 -16q44 -33 60 -49q102 -92 116 -103 q7 -6 20 -16t21.5 -16.5t12.5 -10.5q11 -11 14 -31q4 -17 -0.5 -32.5t-13.5 -20.5l-11 -2h-28q-29 4 -41 12q-19 11 -47 39q-15 13 -41.5 36t-39 34t-31 29.5t-27.5 31t-17.5 29t-11.5 33.5z" />
<glyph unicode="&#xda;" horiz-adv-x="958" d="M167 1115.5q0 317.5 3 352.5q3 20 6.5 25t18.5 6q45 3 53 -37q2 -16 6 -225q6 -333 21 -573t32 -299q14 -37 39 -68.5t53 -44.5q29 -10 101 -10q47 0 64 2.5t36 11.5q30 18 53.5 50.5t32.5 70.5q17 68 34 360t17 533q0 114 5 160.5t18 56.5q9 12 33 12q23 3 26 -10 q4 -15 5.5 -236.5t-1.5 -410.5q-6 -329 -22.5 -447.5t-61.5 -175.5q-57 -61 -129 -84q-36 -10 -92 -12t-92 4q-125 30 -188 115q-32 43 -46 131t-22 289q-3 136 -3 453.5zM379 1552q3 20 14 31q3 3 53 43q23 18 117 103q16 16 60 49q17 12 36 16h5q4 0 6 -2q3 -1 8 -12.5 t6 -12.5q4 -8 4 -26q-3 -17 -11.5 -33.5t-17.5 -29t-27.5 -31t-31 -29.5t-39 -34t-41.5 -36q-28 -28 -47 -39q-12 -8 -41 -12h-29l-10 2q-9 5 -13.5 20.5t-0.5 32.5z" />
<glyph unicode="&#xdb;" horiz-adv-x="958" d="M167 1115.5q0 317.5 3 352.5q3 20 6.5 25t18.5 6q45 3 53 -37q2 -16 6 -225q6 -333 21 -573t32 -299q14 -37 39 -68.5t53 -44.5q29 -10 101 -10q47 0 64 2.5t36 11.5q30 18 53.5 50.5t32.5 70.5q17 68 34 360t17 533q0 114 5 160.5t18 56.5q9 12 33 12q23 3 26 -10 q4 -15 5.5 -236.5t-1.5 -410.5q-6 -329 -22.5 -447.5t-61.5 -175.5q-57 -61 -129 -84q-36 -10 -92 -12t-92 4q-125 30 -188 115q-32 43 -46 131t-22 289q-3 136 -3 453.5zM274 1563q1 5 19 30q23 32 88 97q78 78 115 112q8 6 17.5 14.5t12.5 10.5q9 10 19 9t16 -11 q0 1 9 -10t20.5 -25t15.5 -18q38 -55 76 -97q46 -52 49 -55q11 -14 14 -21q1 -2 7 -8q0 -1 1 -3t1 -3q0 -16 -21 -33q-21 -14 -43 -14q-11 0 -28 10q-5 4 -17 15t-18 16q-17 17 -72 88l-37 47l-47 -51q-28 -30 -48 -48.5t-28 -25t-33 -24.5q-31 -22 -49 -27q-8 -3 -24 2 q-15 15 -15 23z" />
<glyph unicode="&#xdc;" horiz-adv-x="958" d="M167 1115.5q0 317.5 3 352.5q3 20 6.5 25t18.5 6q45 3 53 -37q2 -16 6 -225q6 -333 21 -573t32 -299q14 -37 39 -68.5t53 -44.5q29 -10 101 -10q47 0 64 2.5t36 11.5q30 18 53.5 50.5t32.5 70.5q17 68 34 360t17 533q0 114 5 160.5t18 56.5q9 12 33 12q23 3 26 -10 q4 -15 5.5 -236.5t-1.5 -410.5q-6 -329 -22.5 -447.5t-61.5 -175.5q-57 -61 -129 -84q-36 -10 -92 -12t-92 4q-125 30 -188 115q-32 43 -46 131t-22 289q-3 136 -3 453.5zM356 1653q0 51 2 63q4 13 9 15q61 22 84 -35q13 -31 8 -109q-3 -13 -17 -24q-13 -10 -30 -17 q-44 -7 -50 19l-4 32q-2 16 -2 56zM545 1653q0 17 1 27t4 24.5t12 23.5t24 13q33 8 53 -37q14 -33 8 -117q-3 -14 -16 -24q-12 -9 -31 -17q-4 -2 -12.5 -0.5t-17 5t-15.5 16t-8 30.5q-2 16 -2 56z" />
<glyph unicode="&#xdd;" horiz-adv-x="1003" d="M89 1422q-11 31 13 57q21 14 27 14q15 -4 33 -14q14 -8 54 -56t71 -94q185 -286 188 -291q30 -42 31 -43q10 -7 13.5 -7t12.5 9q21 25 179 263q45 66 93 127.5t70 82.5q44 38 70 9q24 -29 12.5 -61.5t-69.5 -102.5q-63 -77 -150 -209t-125 -209q-22 -42 -29 -121.5 t-8 -326.5q-3 -248 -10 -281q-9 -27 -43 -43t-45 2q-18 21 -18 397q0 241 -4 291q-7 40 -33 90q-40 82 -123.5 213t-142.5 203q-56 70 -67 101zM410 1552q3 20 14 31q3 3 53 43q23 18 117 103q19 19 59 49q17 12 37 16h4q4 0 6 -2q3 -1 8.5 -12.5t6.5 -12.5q4 -8 4 -26 q-3 -17 -11.5 -33.5t-17.5 -29t-27.5 -31t-31 -29.5t-39 -34t-41.5 -36q-28 -28 -47 -39q-12 -8 -41 -12h-29l-10 2q-9 5 -13.5 20.5t-0.5 32.5z" />
<glyph unicode="&#xde;" horiz-adv-x="858" d="M167.5 98.5q-1.5 10.5 0.5 61.5q3 65 3.5 341t-3.5 556q0 170 1.5 219.5t8.5 85.5q17 108 55 125q30 -8 35.5 -38.5t5.5 -193.5v-29q-1 -54 5 -63t43 -8h18q93 0 137 -10q130 -26 213.5 -124t83.5 -226q0 -132 -92 -234q-52 -58 -114 -84t-150 -28q-24 0 -101 22l-32 6 l-4 -39q-3 -35 4 -209q3 -59 -3.5 -91t-31.5 -46q-13 -7 -37.5 -9t-34.5 1q-9 4 -10.5 14.5zM279 573l16 -12q10 -9 45 -15.5t63 -6.5q20 0 60 8q58 13 109 52.5t77 92.5q13 40 13 96q0 44 -3 60t-16 45q-36 76 -111 119q-82 43 -192 47h-25q-19 0 -25 -3t-9 -12 q-5 -10 -2 -247v-224z" />
<glyph unicode="&#xdf;" horiz-adv-x="784" d="M124.5 1078.5q-2.5 68.5 9.5 127t36 100t75.5 58t127.5 0.5q73 -17 119 -55t60.5 -84.5t15.5 -97t-12 -94.5t-26 -74t-22 -39l-16 -17l30 -22q69 -50 118.5 -126t68.5 -163q9 -35 6 -109q-3 -83 -26 -139.5t-71 -101.5q-68 -63 -157 -84q-93 -22 -127 6q-24 19 7 46 q26 21 79 34q110 27 164 121q39 65 28 165t-78 186.5t-157 106.5q-15 6 -22.5 14t-8 19t2 21t11 25t16 25.5t19 27t17.5 26.5q67 135 24 227q-27 59 -82 66q-45 5 -82 -31q-14 -14 -22 -45t-10.5 -54t-6.5 -79q0 -385 -2 -571q-1 -103 -0.5 -396.5t2.5 -328.5q0 -15 1 -45 q2 -91 -11 -107q-17 -20 -67 31q-24 27 -30.5 57t-0.5 88q6 99 6 1032q0 37 -3 114q-1 71 -3.5 139.5z" />
<glyph unicode="&#xe0;" horiz-adv-x="696" d="M68 274q3 23 28 52q25 28 105.5 86.5t152.5 101.5q69 38 76.5 53t-16.5 66q-18 43 -45 67q-20 17 -28.5 20t-35.5 1q-37 -3 -90 -35q-44 -28 -66.5 -35t-35.5 2q-10 6 -19 33t-4 39q4 13 68.5 47.5t107.5 46.5q40 12 72 12q72 0 117 -51q35 -40 70.5 -140t49.5 -196 q45 -298 -20 -313q-21 -5 -53 23l-27 24l-55 -26q-36 -17 -55.5 -21t-61.5 -6q-62 -4 -96 4q-49 9 -78.5 30t-48.5 60q-15 32 -12 55zM113 1169q0 19 4 27q1 1 6 12.5t8 12.5q2 2 6 2h4q18 -4 37 -17q44 -33 60 -49q92 -83 116 -102q7 -6 20 -16t21.5 -16.5t12.5 -10.5 q11 -11 14 -31q4 -17 -0.5 -32.5t-13.5 -20.5l-11 -2h-28q-29 4 -41 12q-19 11 -47 39q-15 13 -49 42t-46.5 41t-32 33t-28.5 38.5t-12 37.5zM184.5 269.5q3.5 -17.5 57.5 -40.5q49 -22 139 2q40 10 58 22.5t30 35.5q12 25 10 90q0 66 -8 74q-4 4 -8 4q-18 0 -125 -68 q-15 -10 -41 -27t-44.5 -29t-27.5 -18q-44 -28 -40.5 -45.5z" />
<glyph unicode="&#xe1;" horiz-adv-x="696" d="M68 274q3 23 28 52q25 28 105.5 86.5t152.5 101.5q69 38 76.5 53t-16.5 66q-18 43 -45 67q-20 17 -28.5 20t-35.5 1q-37 -3 -90 -35q-44 -28 -66.5 -35t-35.5 2q-10 6 -19 33t-4 39q4 13 68.5 47.5t107.5 46.5q40 12 72 12q72 0 117 -51q35 -40 70.5 -140t49.5 -196 q45 -298 -20 -313q-21 -5 -53 23l-27 24l-55 -26q-36 -17 -55.5 -21t-61.5 -6q-62 -4 -96 4q-49 9 -78.5 30t-48.5 60q-15 32 -12 55zM182 981q3 19 15 31q3 3 53 43q33 26 117 102q19 19 59 49q19 13 37 17h4q4 0 6 -2q3 -1 8 -12.5t6 -12.5q5 -10 5 -27q-3 -20 -12 -37.5 t-28.5 -38.5t-32 -33t-46.5 -41t-49 -42q-27 -27 -48 -39q-12 -8 -40 -12h-29l-10 2q-9 5 -14 20.5t-1 32.5zM184.5 269.5q3.5 -17.5 57.5 -40.5q49 -22 139 2q40 10 58 22.5t30 35.5q12 25 10 90q0 66 -8 74q-4 4 -8 4q-18 0 -125 -68q-15 -10 -41 -27t-44.5 -29t-27.5 -18 q-44 -28 -40.5 -45.5z" />
<glyph unicode="&#xe2;" horiz-adv-x="722" d="M68 940q2 9 18 31q21 29 125 133q90 90 115 113q8 6 17.5 14t12.5 10q9 10 19 9t16 -11q0 1 9 -10t20.5 -25t15.5 -18q26 -38 107 -127q46 -52 49 -55q10 -14 14 -21q2 -4 6 -8q0 -1 1 -3t1 -3q0 -17 -20 -33q-21 -14 -43 -14q-12 0 -29 10q-5 4 -17 15t-18 16 q-47 47 -102 118l-37 47l-47 -51q-86 -92 -145 -135q-31 -21 -50 -27q-7 -3 -24 3q-14 14 -14 22zM94.5 274q3.5 23 28.5 52q25 28 105.5 86.5t152.5 101.5q68 38 75.5 53t-16.5 66q-18 43 -45 67q-20 17 -28.5 20t-34.5 1q-37 -3 -90 -35q-44 -28 -67 -35t-36 2 q-10 6 -18.5 33t-3.5 39q4 13 68.5 47.5t107.5 46.5q40 12 72 12q71 0 116 -51q35 -40 71 -140.5t50 -195.5q44 -292 -19 -312q-21 -8 -55 22l-26 24l-56 -26q-36 -17 -55 -21t-61 -6q-63 -4 -97 4q-49 9 -78.5 30t-48.5 60q-15 32 -11.5 55zM211 269.5q3 -17.5 57 -40.5 q49 -22 140 2q40 10 58 22.5t30 35.5q12 25 10 90q0 66 -8 74q-4 4 -9 4q-17 0 -124 -68q-15 -10 -41 -27t-44.5 -29t-27.5 -18q-44 -28 -41 -45.5z" />
<glyph unicode="&#xe3;" horiz-adv-x="698" d="M68 1065q3 51 30 80q29 32 73 39t87 -15q34 -17 80 -57q32 -35 82 -47q39 0 41 39q2 4 3 20.5t3 22.5q6 19 20 31q46 15 56 -11q7 -17 4 -65q-3 -67 -43 -96q-38 -35 -101 -35q-50 3 -71 14q-27 14 -78 62q-44 42 -70 49q-10 3 -16 0q-1 -1 -12 -17q-11 -26 -11 -53 q0 -31 -18 -43q-9 -6 -21 -6q-9 3 -18 12q-24 24 -20 76zM70 274q3 23 28 52q25 28 105.5 86.5t152.5 101.5q69 38 76.5 53t-16.5 66q-18 43 -45 67q-20 17 -28.5 20t-35.5 1q-37 -3 -90 -35q-44 -28 -66.5 -35t-35.5 2q-10 6 -19 33t-4 39q4 13 68.5 47.5t107.5 46.5 q40 12 72 12q72 0 117 -51q35 -40 71 -140.5t50 -195.5q44 -292 -19 -312q-21 -8 -55 22l-27 24l-55 -26q-36 -17 -55.5 -21t-61.5 -6q-62 -4 -96 4q-49 9 -78.5 30t-48.5 60q-15 32 -12 55zM186.5 269.5q3.5 -17.5 57.5 -40.5q49 -22 139 2q40 10 58 22.5t30 35.5 q12 25 10 90q0 66 -8 74q-4 4 -8 4q-18 0 -125 -68q-15 -10 -41 -27t-44.5 -29t-27.5 -18q-44 -28 -40.5 -45.5z" />
<glyph unicode="&#xe4;" horiz-adv-x="696" d="M68 274q3 23 28 52q25 28 105.5 86.5t152.5 101.5q69 38 76.5 53t-16.5 66q-18 43 -45 67q-20 17 -28.5 20t-35.5 1q-37 -3 -90 -35q-44 -28 -66.5 -35t-35.5 2q-10 6 -19 33t-4 39q4 13 68.5 47.5t107.5 46.5q40 12 72 12q72 0 117 -51q35 -40 70.5 -140t49.5 -196 q45 -298 -20 -313q-21 -5 -53 23l-27 24l-55 -26q-36 -17 -55.5 -21t-61.5 -6q-62 -4 -96 4q-49 9 -78.5 30t-48.5 60q-15 32 -12 55zM182 1169q0 52 2 64q4 11 9 14q60 21 83 -35q14 -33 9 -108q-3 -14 -17 -25q-10 -8 -30 -16q-44 -7 -50 18l-4 33q-2 16 -2 55z M184.5 269.5q3.5 -17.5 57.5 -40.5q49 -22 139 2q40 10 58 22.5t30 35.5q12 25 10 90q0 66 -8 74q-4 4 -8 4q-18 0 -125 -68q-15 -10 -41 -27t-44.5 -29t-27.5 -18q-44 -28 -40.5 -45.5zM371 1169q0 17 1 27t4 24.5t12 23.5t24 13q34 8 53 -36q14 -33 8 -117q-3 -15 -16 -25 q-9 -7 -31 -16q-4 -2 -12.5 -0.5t-17 5t-15.5 16t-8 30.5q-2 16 -2 55z" />
<glyph unicode="&#xe5;" horiz-adv-x="696" d="M68 274q3 23 28 52q25 28 105.5 86.5t152.5 101.5q69 38 76.5 53t-16.5 66q-18 43 -45 67q-20 17 -28.5 20t-35.5 1q-37 -3 -90 -35q-44 -28 -66.5 -35t-35.5 2q-10 6 -19 33t-4 39q4 13 68.5 47.5t107.5 46.5q40 12 72 12q72 0 117 -51q35 -40 70.5 -140t49.5 -196 q45 -298 -20 -313q-21 -5 -53 23l-27 24l-55 -26q-36 -17 -55.5 -21t-61.5 -6q-62 -4 -96 4q-49 9 -78.5 30t-48.5 60q-15 32 -12 55zM172 1069q-35 74 12 162q18 27 64 53q27 8 59 8q90 0 123 -86q37 -99 -18 -182q-39 -44 -81.5 -57t-85.5 12t-73 90zM184.5 269.5 q3.5 -17.5 57.5 -40.5q49 -22 139 2q40 10 58 22.5t30 35.5q12 25 10 90q0 66 -8 74q-4 4 -8 4q-18 0 -125 -68q-15 -10 -41 -27t-44.5 -29t-27.5 -18q-44 -28 -40.5 -45.5zM233 1147q0 -41 21 -62q16 -24 36.5 -29t35 2.5t26.5 20.5q28 37 18 73.5t-36 49.5 q-38 13 -69.5 -1.5t-31.5 -53.5z" />
<glyph unicode="&#xe6;" horiz-adv-x="1132" d="M68 274q3 23 28 52q18 20 116.5 61.5t141.5 67.5q20 11 41 21.5t30 13.5t17.5 11t9.5 10.5t-0.5 15.5t-6 22t-14 34.5t-17.5 49.5q-18 43 -45 67q-20 17 -28.5 20t-35.5 1q-37 -3 -90 -35q-44 -28 -66.5 -35t-35.5 2q-10 6 -19 33t-4 39q4 13 68.5 47.5t107.5 46.5 q40 12 72 12q72 0 117 -51q33 -39 71 -139q58 129 154 186q28 16 60.5 25.5t73 8.5t73.5 -17q46 -25 73.5 -69.5t18.5 -80.5q-3 -13 -8.5 -25t-17 -24t-21.5 -21.5t-29.5 -21.5t-32.5 -19.5t-39.5 -20t-41 -19.5t-46 -21.5t-47.5 -21.5q-89 -30 -107 -50.5t1 -64.5 q39 -102 103.5 -142.5t138.5 -21.5t153 88q14 14 22 17t23 2q35 -6 35 -29q0 -12 -40.5 -49.5t-76.5 -59.5q-79 -49 -141 -61.5t-123 6.5q-95 30 -143 90q-29 -29 -66 -47l-55 -26q-36 -17 -55.5 -21t-61.5 -6q-62 -4 -96 4q-49 9 -78.5 30t-48.5 60q-15 32 -12 55z M184.5 269.5q3.5 -17.5 57.5 -40.5q49 -22 139 2q40 10 58 22.5t30 35.5q12 25 10 90q0 14 -8 22q-5 5 -8 5q-226 -83 -238 -91q-44 -28 -40.5 -45.5zM596 559q0 -1 1 -2q2 -9 7 -9q3 0 23 7q3 1 4 2q10 4 62 18t88.5 30.5t58.5 41.5q20 21 24 31t4 31q0 30 -14 39 q-11 8 -31 8q-42 0 -84 -25q-62 -34 -108 -85t-35 -87z" />
<glyph unicode="&#xe7;" horiz-adv-x="694" d="M68 463.5q4 71.5 16 105.5q25 71 77.5 134.5t119.5 101.5q54 33 114 33q17 0 49 -9q47 -15 93.5 -62t46.5 -79q0 -20 -21 -41q-17 -18 -26.5 -17.5t-26.5 23.5q-31 36 -57 50.5t-68 17.5q-32 1 -45.5 -1t-32.5 -11q-24 -13 -56 -54.5t-52 -81.5q-11 -30 -14 -47.5 t-3 -64.5q0 -111 39 -174q38 -58 125 -58q92 0 172 66q68 55 97 35q12 -9 12 -29q0 -27 -64.5 -87t-111.5 -75q-32 -11 -97 -14l-4 -21q-1 -9 2 -12t17 -6q44 -10 72 -38t38 -64q11 -53 -23.5 -108t-86.5 -64q-51 -9 -89.5 0t-80.5 41q-49 36 -23 60q22 19 62 12 q16 -3 26 -11q41 -28 71.5 -25.5t41.5 27.5q11 35 -7 63t-53 31q-32 6 -48 22t-11 34l21 59q-26 3 -37 6q-66 20 -110.5 77t-59.5 140q-8 44 -4 115.5z" />
<glyph unicode="&#xe8;" horiz-adv-x="755" d="M104 373q-12 139 43 260t156 180q28 16 60.5 25.5t73 8t73.5 -17.5q46 -25 73.5 -69t18.5 -80q-12 -60 -92 -131.5t-191 -122.5q-65 -30 -83 -46t-15 -40q8 -40 33 -76t53 -45q58 -20 153 4.5t148 71.5q13 13 21.5 16.5t23.5 1.5q35 -6 35 -28q0 -12 -40.5 -49.5 t-76.5 -59.5q-79 -49 -141 -61.5t-123 6.5q-96 31 -144 90.5t-59 161.5zM219 485q3 -11 7 -11t28 9q41 15 106.5 62t102.5 88q20 22 24.5 31.5t4.5 29.5q0 29 -15 39q-11 8 -31 8q-44 0 -84 -24q-56 -30 -105.5 -111.5t-37.5 -120.5zM221 1169q0 19 4 27q1 1 6.5 12.5 t8.5 12.5q2 2 6 2h4q18 -4 37 -17q40 -30 59 -49q84 -76 117 -102q50 -40 53 -43q11 -11 14 -31q4 -17 -0.5 -32.5t-13.5 -20.5l-10 -2h-29q-29 4 -41 12q-19 11 -47 39q-15 13 -49 42t-46.5 41t-32 33t-28.5 38.5t-12 37.5z" />
<glyph unicode="&#xe9;" horiz-adv-x="755" d="M104 373q-12 139 43 260t156 180q28 16 60.5 25.5t73 8t73.5 -17.5q46 -25 73.5 -69t18.5 -80q-12 -60 -92 -131.5t-191 -122.5q-65 -30 -83 -46t-15 -40q8 -40 33 -76t53 -45q58 -20 153 4.5t148 71.5q13 13 21.5 16.5t23.5 1.5q35 -6 35 -28q0 -12 -40.5 -49.5 t-76.5 -59.5q-79 -49 -141 -61.5t-123 6.5q-96 31 -144 90.5t-59 161.5zM219 485q3 -11 7 -11t28 9q41 15 106.5 62t102.5 88q20 22 24.5 31.5t4.5 29.5q0 29 -15 39q-11 8 -31 8q-44 0 -84 -24q-56 -30 -105.5 -111.5t-37.5 -120.5zM250 981q3 20 14 31q3 3 53 43 q33 26 117 102q16 16 60 49q19 14 36 17h5q4 0 6 -2q3 -1 8 -12.5t6 -12.5q4 -8 4 -27q-3 -20 -12 -37.5t-28.5 -38.5t-32 -33t-46.5 -41t-49 -42q-28 -28 -47 -39q-12 -8 -41 -12h-29l-10 2q-9 5 -13.5 20.5t-0.5 32.5z" />
<glyph unicode="&#xea;" horiz-adv-x="755" d="M104 373q-12 139 43 260t156 180q28 16 60.5 25.5t73 8t73.5 -17.5q46 -25 73.5 -69t18.5 -80q-12 -60 -92 -131.5t-191 -122.5q-65 -30 -83 -46t-15 -40q8 -40 33 -76t53 -45q58 -20 153 4.5t148 71.5q13 13 21.5 16.5t23.5 1.5q35 -6 35 -28q0 -12 -40.5 -49.5 t-76.5 -59.5q-79 -49 -141 -61.5t-123 6.5q-96 31 -144 90.5t-59 161.5zM135 940q2 7 19 31q21 29 125 133q102 102 114 113q8 6 18.5 14t12.5 10q9 10 19 9t16 -11q0 1 9 -10t20.5 -25t15.5 -18q29 -42 106 -127q46 -52 49 -55q14 -18 15 -21q2 -4 6 -8q0 -1 1 -3t1 -3 q0 -17 -20 -33q-21 -14 -44 -14q-11 0 -28 10q-5 4 -17 15t-18 16q-47 47 -102 118l-37 47l-47 -51q-84 -90 -146 -135q-31 -22 -49 -27q-7 -3 -24 3q-15 15 -15 22zM219 485q3 -11 7 -11t28 9q41 15 106.5 62t102.5 88q20 22 24.5 31.5t4.5 29.5q0 29 -15 39q-11 8 -31 8 q-44 0 -84 -24q-56 -30 -105.5 -111.5t-37.5 -120.5z" />
<glyph unicode="&#xeb;" horiz-adv-x="755" d="M104 373q-12 139 43 260t156 180q28 16 60.5 25.5t73 8t73.5 -17.5q46 -25 73.5 -69t18.5 -80q-12 -60 -92 -131.5t-191 -122.5q-65 -30 -83 -46t-15 -40q8 -40 33 -76t53 -45q58 -20 153 4.5t148 71.5q13 13 21.5 16.5t23.5 1.5q35 -6 35 -28q0 -12 -40.5 -49.5 t-76.5 -59.5q-79 -49 -141 -61.5t-123 6.5q-96 31 -144 90.5t-59 161.5zM219 485q3 -11 7 -11t28 9q41 15 106.5 62t102.5 88q20 22 24.5 31.5t4.5 29.5q0 29 -15 39q-11 8 -31 8q-44 0 -84 -24q-56 -30 -105.5 -111.5t-37.5 -120.5zM238 1169q0 52 2 64q4 12 8 14 q61 22 84 -35q13 -31 8 -108q-3 -15 -16 -25q-9 -7 -31 -16q-43 -7 -49 18l-4 33q-2 16 -2 55zM426 1169q0 17 1 27t4 24.5t12 23.5t24 13q34 8 53 -36q14 -33 8 -117q-3 -15 -16 -25q-9 -7 -31 -16q-4 -2 -12.5 -0.5t-17 5t-15.5 16t-8 30.5q-2 16 -2 55z" />
<glyph unicode="&#xec;" horiz-adv-x="454" d="M20 1169q0 17 5 27q1 1 6 12.5t8 12.5q2 2 6 2h4q18 -4 37 -17q40 -30 59 -49q10 -9 88 -75t82 -70q12 -12 15 -31q4 -17 -1 -32.5t-14 -20.5l-10 -2l-29 2q-9 0 -51 28q-19 11 -47 39q-22 19 -58.5 49t-51 43.5t-29.5 35.5t-19 46zM140.5 512.5q-5.5 237.5 0.5 275.5 q6 48 39 52q29 0 41 -49q10 -44 21 -508q8 -162 -19 -162q-26 2 -41.5 19t-20 34t-9.5 51q-6 50 -11.5 287.5z" />
<glyph unicode="&#xed;" horiz-adv-x="434" d="M104 981q3 19 15 31q4 4 82 70t88 75q19 19 59 49q19 13 37 17h4q4 0 6 -2q3 -1 8.5 -12.5t6.5 -12.5q4 -8 4 -27q-4 -24 -19 -46t-29.5 -35.5t-51 -43.5t-58.5 -49q-28 -28 -47 -39q-42 -28 -51 -28l-29 -2l-10 2q-9 5 -14 20.5t-1 32.5zM181.5 512.5 q-5.5 237.5 0.5 275.5q6 48 39 52q29 0 41 -49q10 -44 21 -508q8 -162 -19 -162q-26 2 -41.5 19t-20 34t-9.5 51q-6 50 -11.5 287.5z" />
<glyph unicode="&#xee;" horiz-adv-x="772" d="M102 940q2 7 19 31q21 29 125 133q102 102 114 113q8 6 18.5 14t12.5 10q9 10 19 9t16 -11q0 1 9 -10t20.5 -25t15.5 -18q26 -38 107 -127q47 -52 49 -55q10 -14 14 -21q2 -4 6 -8q0 -1 1 -3t1 -3q0 -17 -20 -33q-21 -14 -43 -14q-12 0 -29 10q-5 4 -17 15t-18 16 q-47 47 -102 118l-37 47l-47 -51q-84 -90 -146 -135q-31 -22 -49 -27q-7 -3 -24 3q-15 15 -15 22zM325 512.5q-5 237.5 1 275.5q6 48 39 52q29 0 41 -49q9 -39 20 -508q8 -162 -18 -162q-26 2 -41.5 19t-20.5 34.5t-10 50.5q-6 50 -11 287.5z" />
<glyph unicode="&#xef;" horiz-adv-x="518" d="M102 1169q0 52 2 64q4 11 9 14q61 22 84 -35q13 -31 8 -108q-3 -14 -17 -25q-10 -8 -30 -16q-43 -7 -49 18l-5 33q-2 16 -2 55zM192 512.5q-5 237.5 1 275.5q6 48 38 52q29 0 41 -49q10 -44 21 -508q8 -162 -19 -162q-26 2 -41.5 19t-20 34t-9.5 51q-6 50 -11 287.5z M291 1169q0 17 1 27t4 24.5t12 23.5t24 13q34 8 53 -36q14 -33 8 -117q-3 -15 -16 -25q-9 -7 -31 -16q-4 -2 -12.5 -0.5t-17 5t-15.5 16t-8 30.5q-2 16 -2 55z" />
<glyph unicode="&#xf0;" horiz-adv-x="784" d="M68 455q0 34 13 88.5t28 89.5q17 37 57.5 82t75.5 67q39 25 107 27t120 -18q30 -15 51 -15q3 0 -2.5 31.5t-21.5 85.5t-37 102l-13 -10q-28 -28 -47 -39q-12 -8 -41 -12h-28l-11 2q-9 5 -13.5 20.5t-0.5 32.5q3 20 14 31q4 4 12.5 10.5t21.5 16.5t20 16l35 29 q-17 28 -50 67q-80 112 -84 119q-3 22 15 37q8 8 22 8q16 -1 27 -4.5t35.5 -17t53 -49.5t58.5 -91l4 4q16 16 60 49q19 13 37 17h4q4 0 6 -2q3 -1 8 -12.5t6 -12.5q4 -8 4 -26q-10 -55 -82 -117q50 -116 101 -297q30 -107 41.5 -182.5t5.5 -150t-38 -137.5t-93 -126 q-69 -52 -152 -61t-164 37.5t-129 146.5q-36 85 -36 164zM180 514q-17 -72 5 -145.5t67 -116.5q24 -23 76 -34t110 4t86 59q30 45 41.5 121t-10 156t-78.5 116q-23 19 -33.5 23.5t-29.5 4.5q-55 0 -117 -25.5t-90 -72.5q-19 -57 -27 -90z" />
<glyph unicode="&#xf1;" horiz-adv-x="749" d="M103 259.5q0 35.5 1 96.5t0 93q-1 135 1 205.5t5 86t9 33.5q17 31 26 37q7 6 13 4.5t18 -14.5q18 -25 21 -49q4 -29 8 -29q12 11 26 25q47 44 115 61q45 10 72 10q24 0 69 -10q72 -16 107 -72q56 -103 53 -368q0 -142 -10 -194t-39 -66q-15 -8 -22.5 -3.5t-16.5 25.5 t-14 221q-5 201 -15 240q-20 73 -55 96q-35 27 -94.5 4.5t-110.5 -82.5q-40 -48 -50.5 -91t-14.5 -187q-3 -121 -8.5 -158t-22.5 -57q-12 -16 -20.5 -14.5t-28.5 22.5q-12 20 -17 59.5t-5 75zM117 1065q3 51 30 80q29 32 73 39t87 -15q34 -17 80 -57q32 -35 82 -47 q39 0 41 39q2 4 3 20.5t3 22.5q6 18 21 31q45 15 55 -11q7 -17 4 -65q-3 -67 -43 -96q-38 -35 -100 -35q-51 4 -72 14q-27 14 -78 62q-44 42 -70 49q-10 3 -16 0q-1 -1 -12 -17q-10 -23 -10 -53t-19 -43q-9 -6 -20 -6q-11 3 -19 12q-24 24 -20 76z" />
<glyph unicode="&#xf2;" horiz-adv-x="702" d="M68 471q0 86 8.5 129.5t34.5 85.5q19 33 60.5 71.5t82.5 59.5q47 23 92.5 23t106.5 -29q64 -32 109 -85.5t59 -109.5q12 -40 14 -126.5t-6 -124.5q-22 -95 -78.5 -157.5t-140.5 -82.5q-69 -18 -129 0q-72 20 -124 73.5t-75 131.5q-14 43 -14 141zM168 422 q20 -102 59 -156q34 -43 75.5 -53.5t107.5 6.5q55 13 93 94.5t38 186.5q0 35 -3.5 52.5t-15.5 43.5q-40 92 -90 121q-19 12 -74 12q-50 0 -76.5 -13t-56.5 -54q-44 -59 -57 -113.5t0 -126.5zM184 1169q0 19 4 27q1 1 6.5 12.5t8.5 12.5q2 2 6 2h4q18 -4 37 -17 q40 -30 59 -49q10 -9 88 -75t82 -70q12 -12 15 -31q4 -17 -1 -32.5t-14 -20.5l-10 -2l-29 2q-9 0 -51 28q-19 11 -47 39q-22 19 -58.5 49t-51 43.5t-29.5 35.5t-19 46z" />
<glyph unicode="&#xf3;" horiz-adv-x="702" d="M68 471q0 86 8.5 129.5t34.5 85.5q19 33 60.5 71.5t82.5 59.5q47 23 92.5 23t106.5 -29q64 -32 109 -85.5t59 -109.5q12 -40 14 -126.5t-6 -124.5q-22 -95 -78.5 -157.5t-140.5 -82.5q-69 -18 -129 0q-72 20 -124 73.5t-75 131.5q-14 43 -14 141zM168 422 q20 -102 59 -156q34 -43 75.5 -53.5t107.5 6.5q55 13 93 94.5t38 186.5q0 35 -3.5 52.5t-15.5 43.5q-40 92 -90 121q-19 12 -74 12q-50 0 -76.5 -13t-56.5 -54q-44 -59 -57 -113.5t0 -126.5zM201 981q3 20 14 31q3 3 53 43q33 26 117 102q19 19 59 49q19 13 37 17h4 q5 0 7 -2q3 -1 8 -12.5t6 -12.5q4 -8 4 -27q-3 -20 -12 -37.5t-28.5 -38.5t-32 -33t-46.5 -41t-49 -42q-28 -28 -47 -39q-12 -8 -41 -12h-29l-10 2q-9 5 -13.5 20.5t-0.5 32.5z" />
<glyph unicode="&#xf4;" horiz-adv-x="702" d="M68 471q0 86 8.5 129.5t34.5 85.5q19 33 60.5 71.5t82.5 59.5q47 23 92.5 23t106.5 -29q64 -32 109 -85.5t59 -109.5q12 -40 14 -126.5t-6 -124.5q-22 -95 -78.5 -157.5t-140.5 -82.5q-69 -18 -129 0q-72 20 -124 73.5t-75 131.5q-14 43 -14 141zM68 940q2 9 18 31 q21 29 125 133q90 90 115 113q8 6 17.5 14t12.5 10q9 10 19 9t16 -11q0 1 9 -10t20.5 -25t15.5 -18q26 -38 107 -127q46 -52 49 -55q10 -14 14 -21q2 -4 6 -8q0 -1 1 -3t1 -3q0 -17 -20 -33q-21 -14 -43 -14q-12 0 -29 10q-5 4 -17 15t-18 16q-47 47 -102 118l-37 47 l-47 -51q-86 -92 -145 -135q-31 -21 -50 -27q-7 -3 -24 3q-14 14 -14 22zM168 422q20 -102 59 -156q34 -43 75.5 -53.5t107.5 6.5q55 13 93 94.5t38 186.5q0 35 -3.5 52.5t-15.5 43.5q-40 92 -90 121q-19 12 -74 12q-50 0 -76.5 -13t-56.5 -54q-44 -59 -57 -113.5t0 -126.5z " />
<glyph unicode="&#xf5;" horiz-adv-x="702" d="M68 471q0 86 8.5 129.5t34.5 85.5q19 33 60.5 71.5t82.5 59.5q47 23 92.5 23t106.5 -29q64 -32 109 -85.5t59 -109.5q12 -40 14 -126.5t-6 -124.5q-22 -95 -78.5 -157.5t-140.5 -82.5q-69 -18 -129 0q-72 20 -124 73.5t-75 131.5q-14 43 -14 141zM113 1065q3 51 30 80 q29 32 73 39t87 -15q34 -17 80 -57q32 -35 82 -47q39 0 41 39q2 4 3 20.5t3 22.5q6 19 20 31q46 15 56 -11q7 -17 4 -65q-3 -67 -43 -96q-38 -35 -100 -35q-51 4 -72 14q-27 14 -78 62q-44 42 -70 49q-10 3 -16 0q-1 -1 -12 -17q-11 -26 -11 -53q0 -31 -18 -43q-9 -6 -20 -6 q-11 3 -19 12q-24 24 -20 76zM168 422q20 -102 59 -156q34 -43 75.5 -53.5t107.5 6.5q55 13 93 94.5t38 186.5q0 35 -3.5 52.5t-15.5 43.5q-40 92 -90 121q-19 12 -74 12q-50 0 -76.5 -13t-56.5 -54q-44 -59 -57 -113.5t0 -126.5z" />
<glyph unicode="&#xf6;" horiz-adv-x="702" d="M68 471q0 86 8.5 129.5t34.5 85.5q19 33 60.5 71.5t82.5 59.5q47 23 92.5 23t106.5 -29q64 -32 109 -85.5t59 -109.5q12 -40 14 -126.5t-6 -124.5q-22 -95 -78.5 -157.5t-140.5 -82.5q-69 -18 -129 0q-72 20 -124 73.5t-75 131.5q-14 43 -14 141zM168 422 q20 -102 59 -156q34 -43 75.5 -53.5t107.5 6.5q55 13 93 94.5t38 186.5q0 35 -3.5 52.5t-15.5 43.5q-40 92 -90 121q-19 12 -74 12q-50 0 -76.5 -13t-56.5 -54q-44 -59 -57 -113.5t0 -126.5zM182 1169q0 52 2 64q4 11 9 14q60 21 83 -35q14 -33 9 -108q-3 -14 -17 -25 q-10 -8 -30 -16q-44 -7 -50 18l-4 33q-2 16 -2 55zM371 1169q0 17 1 27t4 24.5t12 23.5t24 13q34 8 53 -36q14 -33 8 -117q-3 -15 -16 -25q-9 -7 -31 -16q-4 -2 -12.5 -0.5t-17 5t-15.5 16t-8 30.5q-2 16 -2 55z" />
<glyph unicode="&#xf8;" horiz-adv-x="702" d="M68 471q0 86 8.5 129.5t34.5 85.5q19 33 60.5 71.5t82.5 59.5q47 23 92.5 23t106.5 -29l10 -6q17 27 28.5 36t26.5 9q28 0 37 -12t-16 -86q63 -63 82 -136q12 -40 14 -126.5t-6 -124.5q-22 -95 -78.5 -157.5t-140.5 -82.5q-69 -18 -129 0q-12 2 -31 10l-8 -16 q-9 -15 -49.5 -23t-51.5 4q-10 11 -6.5 41.5t15.5 44.5l8 11q-51 51 -76 133q-14 43 -14 141zM168 422q12 -68 41 -127q27 57 60 124.5t50 104.5q27 50 103 199q-21 6 -64 6q-50 0 -76.5 -13t-56.5 -54q-44 -59 -57 -113.5t0 -126.5zM287 217q45 -16 123 2q55 13 93 94.5 t38 186.5q0 35 -3.5 52.5t-15.5 43.5q-18 39 -26 53q-27 -62 -68 -139q-24 -48 -44 -98t-32 -72q-5 -10 -29 -53.5t-36 -69.5z" />
<glyph unicode="&#xf9;" horiz-adv-x="737" d="M104 561q-9 218 15 262q8 11 14.5 13.5t24.5 1.5q34 -1 41.5 -27.5t13.5 -157.5q6 -176 14.5 -255t25 -115.5t52.5 -55.5q23 -12 38 -15t48 -3q52 2 75.5 11.5t35.5 35.5q18 34 22 88.5t6 243.5q0 15 0.5 60t1 73.5t5 61t12.5 46.5q16 13 37 13q20 0 32 -15 q9 -9 11.5 -30.5t5.5 -114.5q4 -204 -21 -351.5t-69 -178.5q-41 -31 -113 -39.5t-135 8.5q-130 37 -160 139q-24 87 -33 301zM195 1169q0 19 4 27q1 1 6 12.5t8 12.5q2 2 6 2h4q18 -4 37 -17q40 -30 59 -49q10 -9 88 -75t82 -70q12 -12 15 -31q4 -17 -1 -32.5t-14 -20.5 l-10 -2l-28 2q-10 0 -52 28q-19 11 -47 39q-21 19 -58 49t-51 43t-29 35.5t-19 46.5z" />
<glyph unicode="&#xfa;" horiz-adv-x="737" d="M104 561q-9 218 15 262q8 11 14.5 13.5t24.5 1.5q34 -1 41.5 -27.5t13.5 -157.5q6 -176 14.5 -255t25 -115.5t52.5 -55.5q23 -12 38 -15t48 -3q52 2 75.5 11.5t35.5 35.5q18 34 22 88.5t6 243.5q0 15 0.5 60t1 73.5t5 61t12.5 46.5q16 13 37 13q20 0 32 -15 q9 -9 11.5 -30.5t5.5 -114.5q4 -204 -21 -351.5t-69 -178.5q-41 -31 -113 -39.5t-135 8.5q-130 37 -160 139q-24 87 -33 301zM221 981q3 19 15 31q3 3 53 43q33 26 117 102q19 19 59 49q19 13 37 17h4q4 0 6 -2q3 -1 8 -12.5t6 -12.5q4 -8 4 -27q-3 -20 -12 -37.5 t-28.5 -38.5t-32 -33t-46.5 -41t-49 -42q-28 -28 -47 -39q-12 -8 -41 -12h-28l-10 2q-9 5 -14 20.5t-1 32.5z" />
<glyph unicode="&#xfb;" horiz-adv-x="737" d="M92 940q2 7 19 31q21 29 125 133q102 102 114 113q8 6 18.5 14t12.5 10q9 10 19 9t16 -11q0 1 9 -10t20.5 -25t15.5 -18q29 -42 106 -127q47 -52 49 -55q14 -18 15 -21q2 -4 6 -8q0 -1 1 -3t1 -3q0 -16 -21 -33q-21 -14 -43 -14q-11 0 -28 10q-5 4 -17 15t-18 16 q-47 47 -102 118l-37 47l-47 -51q-84 -90 -146 -135q-31 -22 -49 -27q-7 -3 -25 3q-14 14 -14 22zM104 561q-9 218 15 262q8 11 14.5 13.5t24.5 1.5q34 -1 41.5 -27.5t13.5 -157.5q6 -176 14.5 -255t25 -115.5t52.5 -55.5q23 -12 38 -15t48 -3q52 2 75.5 11.5t35.5 35.5 q18 34 22 88.5t6 243.5q0 15 0.5 60t1 73.5t5 61t12.5 46.5q16 13 37 13q20 0 32 -15q9 -9 11.5 -30.5t5.5 -114.5q4 -204 -21 -351.5t-69 -178.5q-41 -31 -113 -39.5t-135 8.5q-130 37 -160 139q-24 87 -33 301z" />
<glyph unicode="&#xfc;" horiz-adv-x="737" d="M104 561q-9 218 15 262q8 11 14.5 13.5t24.5 1.5q34 -1 41.5 -27.5t13.5 -157.5q6 -176 14.5 -255t25 -115.5t52.5 -55.5q23 -12 38 -15t48 -3q52 2 75.5 11.5t35.5 35.5q18 34 22 88.5t6 243.5q0 15 0.5 60t1 73.5t5 61t12.5 46.5q16 13 37 13q20 0 32 -15 q9 -9 11.5 -30.5t5.5 -114.5q4 -204 -21 -351.5t-69 -178.5q-41 -31 -113 -39.5t-135 8.5q-130 37 -160 139q-24 87 -33 301zM215 1169q0 52 2 64q4 12 8 14q61 22 84 -35q13 -31 8 -108q-3 -15 -16 -25q-9 -7 -31 -16q-43 -7 -49 18l-4 33q-2 16 -2 55zM403 1169q0 17 1 27 t4 24.5t12 23.5t24 13q35 8 54 -36q14 -33 8 -117q-3 -14 -17 -25q-10 -8 -30 -16q-4 -2 -12.5 -0.5t-17 5t-15.5 16t-8 30.5q-3 24 -3 55z" />
<glyph unicode="&#xfd;" horiz-adv-x="665" d="M47 803q0 29 1.5 36.5t10.5 10.5q11 5 21 -8q50 -71 113 -219q48 -107 91.5 -187t53.5 -80q5 0 41.5 83t69.5 169q53 138 84 192t59 54q8 0 16 -4q17 -9 6 -53t-69 -199q-39 -103 -105 -303l-82 -250q-23 -56 -82 -252q-46 -149 -65.5 -198.5t-34.5 -61.5 q-12 -10 -31.5 -10.5t-25.5 8.5q-27 40 74 350l86 275q5 17 3 29t-14 44q-11 37 -80 191q-60 131 -79 184q-1 2 -37 96q-25 61 -25 103zM201 981q3 20 14 31q3 3 53 43q33 26 117 102q19 19 59 49q19 13 37 17h4q5 0 7 -2q3 -1 8 -12.5t6 -12.5q4 -8 4 -27q-3 -20 -12 -37.5 t-28.5 -38.5t-32 -33t-46.5 -41t-49 -42q-28 -28 -47 -39q-12 -8 -41 -12h-29l-10 2q-9 5 -13.5 20.5t-0.5 32.5z" />
<glyph unicode="&#xfe;" horiz-adv-x="638" d="M102 -328q-1 46 2 326q4 372 4 449.5t-4 203.5q-7 185 1.5 423.5t39.5 256.5q43 24 58 -57q11 -60 7 -263q-1 -138 13 -141q63 0 127.5 -27.5t104.5 -70.5q29 -32 59 -85.5t41 -90.5q19 -66 16.5 -155t-24.5 -136q-29 -65 -98 -117.5t-140 -72.5q-34 -6 -69 -19l-31 -10 l-2 -215q-1 -94 -2.5 -135.5t-3 -53t-6.5 -26.5q-12 -34 -39.5 -46.5t-44.5 7.5q-8 9 -9 55zM203 440q0 -264 2 -264q30 11 67 21q61 19 87.5 33.5t50.5 43.5q30 35 40.5 74.5t10.5 114.5t-10 104.5t-52 79.5q-34 39 -77.5 68t-75.5 33q-6 2 -15 2q-21 -1 -24.5 -48.5 t-3.5 -261.5z" />
<glyph unicode="&#xff;" horiz-adv-x="665" d="M47 803q0 29 1.5 36.5t10.5 10.5q11 5 21 -8q50 -71 113 -219q48 -107 91.5 -187t53.5 -80q5 0 41.5 83t69.5 169q53 138 84 192t59 54q8 0 16 -4q17 -9 6 -53t-69 -199q-39 -103 -105 -303l-82 -250q-23 -56 -82 -252q-46 -149 -65.5 -198.5t-34.5 -61.5 q-12 -10 -31.5 -10.5t-25.5 8.5q-27 40 74 350l86 275q5 17 3 29t-14 44q-11 37 -80 191q-60 131 -79 184q-1 2 -37 96q-25 61 -25 103zM182 1169q0 52 2 64q4 11 9 14q60 21 83 -35q14 -33 9 -108q-3 -14 -17 -25q-10 -8 -30 -16q-44 -7 -50 18l-4 33q-2 16 -2 55z M371 1169q0 17 1 27t4 24.5t12 23.5t24 13q34 8 53 -36q14 -33 8 -117q-3 -15 -16 -25q-9 -7 -31 -16q-4 -2 -12.5 -0.5t-17 5t-15.5 16t-8 30.5q-2 16 -2 55z" />
<glyph unicode="&#x100;" horiz-adv-x="960" d="M66 160q0 57 18 119t80 208q36 86 112 299l109 312q67 194 80 239q21 72 27 84q3 7 14.5 13t23.5 6q2 0 6.5 -1t6.5 -1q17 -7 25 -25.5t14 -62.5q11 -78 51 -203q43 -134 67 -232q18 -72 31 -101t31 -38q17 -12 21 -25.5t-1 -37.5q-9 -50 47 -250q48 -172 61 -240.5 t1 -95.5q-9 -22 -27 -35q-9 -8 -13.5 -8t-14.5 8q-16 11 -30 45.5t-38 124.5q-102 382 -109 389q-5 5 -127 19q-99 12 -139 20q-22 3 -34 -15t-37 -87q-44 -124 -86 -223q-18 -44 -44.5 -113.5t-31.5 -79.5q-43 -90 -67 -91q-10 0 -19 13q-11 11 -8 66zM305 1575 q-2 25 8.5 45t40.5 20q14 2 39 2h146q225 0 227 -40q0 -11 -3 -20t-7.5 -13.5t-14 -8.5t-14.5 -5.5t-16.5 -3.5t-14.5 -3q-35 -6 -106 -6q-73 0 -109 2q-17 1 -50.5 2t-47.5 2q-69 0 -78 27zM403 827q0 -27 32.5 -37t127.5 -10q68 0 70 6v2q-10 27 -54 185.5t-44 163.5 q0 7 -9 20q-2 4 -6 4q-5 0 -28 -53q-25 -55 -57 -156.5t-32 -124.5z" />
<glyph unicode="&#x101;" horiz-adv-x="696" d="M68 274q3 23 28 52q25 28 105.5 86.5t152.5 101.5q69 38 76.5 53t-16.5 66q-18 43 -45 67q-20 17 -28.5 20t-35.5 1q-37 -3 -90 -35q-44 -28 -66.5 -35t-35.5 2q-10 6 -19 33t-4 39q4 13 68.5 47.5t107.5 46.5q40 12 72 12q72 0 117 -51q35 -40 70.5 -140t49.5 -196 q45 -298 -20 -313q-21 -5 -53 23l-27 24l-55 -26q-36 -17 -55.5 -21t-61.5 -6q-62 -4 -96 4q-49 9 -78.5 30t-48.5 60q-15 32 -12 55zM74 997q-2 25 8.5 45.5t40.5 20.5q14 2 39 2h145q226 0 228 -41q1 -13 -3 -22.5t-14 -15t-15.5 -7.5t-20.5 -5t-17 -3q-35 -6 -107 -6 t-108 2q-17 1 -50.5 2t-47.5 2q-69 0 -78 26zM184.5 269.5q3.5 -17.5 57.5 -40.5q49 -22 139 2q40 10 58 22.5t30 35.5q12 25 10 90q0 66 -8 74q-4 4 -8 4q-18 0 -125 -68q-15 -10 -41 -27t-44.5 -29t-27.5 -18q-44 -28 -40.5 -45.5z" />
<glyph unicode="&#x102;" horiz-adv-x="960" d="M66 160q0 57 18 119t80 208q36 86 112 299l109 312q67 194 80 239q21 72 27 84q3 7 14.5 13t23.5 6q2 0 6.5 -1t6.5 -1q17 -7 25 -25.5t14 -62.5q11 -78 51 -203q43 -134 67 -232q18 -72 31 -101t31 -38q17 -12 21 -25.5t-1 -37.5q-9 -50 47 -250q48 -172 61 -240.5 t1 -95.5q-9 -22 -27 -35q-9 -8 -13.5 -8t-14.5 8q-16 11 -30 45.5t-38 124.5q-102 382 -109 389q-5 5 -127 19q-99 12 -139 20q-22 3 -34 -15t-37 -87q-44 -124 -86 -223q-18 -44 -44.5 -113.5t-31.5 -79.5q-43 -90 -67 -91q-10 0 -19 13q-11 11 -8 66zM305 1647 q-3 19 0.5 41t13.5 30q12 8 17 8q8 3 18 -4q15 -10 37 -47q60 -96 133 -96q80 -3 127 113q5 16 25 32q14 11 33 11q2 2 4 2l2 -2q15 0 18 -2q5 -3 9 -10.5t3 -10.5q3 -42 -20 -88t-63 -80q-41 -35 -95.5 -49.5t-109.5 -1.5q-26 6 -58.5 29.5t-58.5 54.5q-31 44 -35 70z M403 827q0 -27 32.5 -37t127.5 -10q68 0 70 6v2q-10 27 -54 185.5t-44 163.5q0 7 -9 20q-2 4 -6 4q-5 0 -28 -53q-25 -55 -57 -156.5t-32 -124.5z" />
<glyph unicode="&#x103;" horiz-adv-x="696" d="M68 274q3 23 28 52q25 28 105.5 86.5t152.5 101.5q69 38 76.5 53t-16.5 66q-18 43 -45 67q-20 17 -28.5 20t-35.5 1q-37 -3 -90 -35q-44 -28 -66.5 -35t-35.5 2q-10 6 -19 33t-4 39q4 13 68.5 47.5t107.5 46.5q40 12 72 12q72 0 117 -51q35 -40 70.5 -140t49.5 -196 q45 -298 -20 -313q-21 -5 -53 23l-27 24l-55 -26q-36 -17 -55.5 -21t-61.5 -6q-62 -4 -96 4q-49 9 -78.5 30t-48.5 60q-15 32 -12 55zM111 1108q-3 18 0 39.5t12 30.5q1 0 7 3t9 3q7 2 19 -4q15 -8 35 -43q57 -93 126 -93q77 -3 121 107q7 21 23 31q13 10 31 10q2 2 4 2 l2 -2q12 0 18 -2q4 -1 9 -8.5t3 -10.5q2 -41 -19.5 -84t-59.5 -75q-92 -77 -197 -49q-25 6 -56 28t-55 51q-26 33 -32 66zM184.5 269.5q3.5 -17.5 57.5 -40.5q49 -22 139 2q40 10 58 22.5t30 35.5q12 25 10 90q0 66 -8 74q-4 4 -8 4q-18 0 -125 -68q-15 -10 -41 -27 t-44.5 -29t-27.5 -18q-44 -28 -40.5 -45.5z" />
<glyph unicode="&#x104;" horiz-adv-x="1228" d="M66 160q0 57 18 119t80 208q36 86 112 299l109 312q67 194 80 239q21 72 27 84q3 7 14.5 13t23.5 6q2 0 6.5 -1t6.5 -1q17 -7 25 -25.5t14 -62.5q11 -78 51 -203q43 -134 67 -232q18 -72 31 -101t31 -38q17 -12 21 -25.5t-1 -37.5q-9 -50 47 -250q48 -172 61 -240.5 t1 -95.5l-2 -4q-7 -21 -39 -62q-55 -65 -27 -116q11 -17 24 -27.5t33.5 -9.5t41.5 24q23 24 59 24q30 0 29 -21q-2 -16 -25 -41q-23 -24 -39.5 -38t-40.5 -27.5t-48.5 -11.5t-49.5 19q-97 70 -92 164q5 52 16 76q13 29 45 69q15 21 15 39l-23 78q-102 382 -109 389 q-5 5 -127 19q-99 12 -139 20q-22 3 -34 -15t-37 -87q-44 -124 -86 -223q-18 -44 -44.5 -113.5t-31.5 -79.5q-43 -90 -67 -91q-10 0 -19 13q-11 11 -8 66zM403 827q0 -27 32.5 -37t127.5 -10q68 0 70 6v2q-10 27 -54 185.5t-44 163.5q0 7 -9 20q-2 4 -6 4q-5 0 -28 -53 q-25 -55 -57 -156.5t-32 -124.5z" />
<glyph unicode="&#x105;" horiz-adv-x="700" d="M68 274q3 23 28 52q25 28 105.5 86.5t152.5 101.5q69 38 76.5 53t-16.5 66q-18 43 -45 67q-20 17 -28.5 20t-35.5 1q-37 -3 -90 -35q-44 -28 -66.5 -35t-35.5 2q-10 6 -19 33t-4 39q4 13 68.5 47.5t107.5 46.5q40 12 72 12q72 0 117 -51q35 -40 70.5 -140t49.5 -196 q6 -38 16.5 -94.5t15.5 -86.5t5 -61t-10 -46q-8 -14 -27 -33t-34.5 -34t-31 -37t-16 -41t10.5 -46q11 -17 23.5 -27.5t33 -9t41.5 24.5q22 24 59 24q31 -1 29 -22q-1 -16 -24 -41q-23 -24 -40 -38t-41 -27.5t-48.5 -11t-49.5 19.5q-97 70 -92 163q3 31 17.5 56.5t62.5 89.5 q-105 -38 -172 -41q-62 -4 -96 4q-49 9 -78.5 30t-48.5 60q-15 32 -12 55zM184.5 269.5q3.5 -17.5 57.5 -40.5q49 -22 139 2q40 10 58 22.5t30 35.5q12 25 10 90q0 66 -8 74q-4 4 -8 4q-18 0 -125 -68q-15 -10 -41 -27t-44.5 -29t-27.5 -18q-44 -28 -40.5 -45.5z" />
<glyph unicode="&#x106;" horiz-adv-x="954" d="M168 690q-6 160 35 330q31 133 79 217.5t132 153.5q87 71 153 84q27 6 51 6q63 0 115 -35t80 -98q16 -36 19.5 -62t-5.5 -40.5t-30 -14.5q-11 0 -26 12.5t-48 50.5q-60 69 -92 80t-90 -20q-157 -88 -213 -291q-25 -92 -38 -229.5t-5 -215.5q14 -148 53 -235 q27 -59 82 -106t108 -54q18 -4 60 5t76 24q21 7 104 59q73 46 88 41q16 -8 15 -27.5t-22 -50t-56 -61.5q-80 -70 -152 -90q-34 -9 -106.5 -12.5t-100.5 2.5q-57 13 -129 100q-69 85 -99.5 189t-37.5 288zM391 1552q3 19 15 31q3 3 53 43q14 11 116 103q16 16 60 49 q17 12 37 16h4q4 0 6 -2q3 -1 8 -12.5t6 -12.5q4 -8 4 -26q-3 -17 -11.5 -33.5t-17.5 -29t-27.5 -31t-31 -29.5t-39 -34t-41.5 -36q-28 -28 -47 -39q-12 -8 -41 -12h-28l-10 2q-9 5 -14 20.5t-1 32.5z" />
<glyph unicode="&#x107;" horiz-adv-x="694" d="M68 463.5q4 71.5 16 105.5q25 71 77.5 134.5t119.5 101.5q54 33 114 33q17 0 49 -9q47 -15 93.5 -62t46.5 -79q0 -20 -21 -41q-17 -18 -26.5 -17.5t-26.5 23.5q-31 36 -57 50.5t-68 17.5q-32 1 -45.5 -1t-32.5 -11q-24 -13 -56 -54.5t-52 -81.5q-11 -30 -14 -47.5 t-3 -64.5q0 -111 39 -174q38 -58 125 -58q92 0 172 66q68 55 97 35q12 -9 12 -29q0 -27 -64.5 -87t-111.5 -75q-31 -11 -105 -14t-104 6q-66 20 -110.5 77t-59.5 140q-8 44 -4 115.5zM201 981q3 20 14 31q3 3 53 43q33 26 117 102q19 19 59 49q19 13 37 17h4q5 0 7 -2 q3 -1 8 -12.5t6 -12.5q4 -8 4 -27q-3 -20 -12 -37.5t-28.5 -38.5t-32 -33t-46.5 -41t-49 -42q-28 -28 -47 -39q-12 -8 -41 -12h-29l-10 2q-9 5 -13.5 20.5t-0.5 32.5z" />
<glyph unicode="&#x10a;" horiz-adv-x="954" d="M168 690q-6 160 35 330q31 133 79 217.5t132 153.5q87 71 153 84q27 6 51 6q63 0 115 -35t80 -98q16 -36 19.5 -62t-5.5 -40.5t-30 -14.5q-11 0 -26 12.5t-48 50.5q-60 69 -92 80t-90 -20q-157 -88 -213 -291q-25 -92 -38 -229.5t-5 -215.5q14 -148 53 -235 q27 -59 82 -106t108 -54q18 -4 60 5t76 24q21 7 104 59q73 46 88 41q16 -8 15 -27.5t-22 -50t-56 -61.5q-80 -70 -152 -90q-34 -9 -106.5 -12.5t-100.5 2.5q-57 13 -129 100q-69 85 -99.5 189t-37.5 288zM526 1675q0 17 1 27t4 24.5t12 23.5t24 13q34 8 54 -37 q14 -32 8 -116q-3 -14 -17 -25q-10 -8 -30 -16q-9 -2 -19 0t-21.5 14.5t-13.5 36.5q-2 16 -2 55z" />
<glyph unicode="&#x10b;" horiz-adv-x="694" d="M68 463.5q4 71.5 16 105.5q25 71 77.5 134.5t119.5 101.5q54 33 114 33q17 0 49 -9q47 -15 93.5 -62t46.5 -79q0 -20 -21 -41q-17 -18 -26.5 -17.5t-26.5 23.5q-31 36 -57 50.5t-68 17.5q-32 1 -45.5 -1t-32.5 -11q-24 -13 -56 -54.5t-52 -81.5q-11 -30 -14 -47.5 t-3 -64.5q0 -111 39 -174q38 -58 125 -58q92 0 172 66q68 55 97 35q12 -9 12 -29q0 -27 -64.5 -87t-111.5 -75q-31 -11 -105 -14t-104 6q-66 20 -110.5 77t-59.5 140q-8 44 -4 115.5zM309 1073q0 17 1 27t4 24.5t12 23.5t24 13q33 8 53 -37q15 -34 9 -116q-3 -14 -17 -25 q-10 -8 -30 -16q-9 -2 -19 0t-21.5 14.5t-13.5 36.5q-2 16 -2 55z" />
<glyph unicode="&#x10c;" horiz-adv-x="954" d="M168 690q-6 160 35 330q31 133 79 217.5t132 153.5q87 71 153 84q27 6 51 6q63 0 115 -35t80 -98q16 -36 19.5 -62t-5.5 -40.5t-30 -14.5q-11 0 -26 12.5t-48 50.5q-60 69 -92 80t-90 -20q-157 -88 -213 -291q-25 -92 -38 -229.5t-5 -215.5q14 -148 53 -235 q27 -59 82 -106t108 -54q18 -4 60 5t76 24q21 7 104 59q73 46 88 41q16 -8 15 -27.5t-22 -50t-56 -61.5q-80 -70 -152 -90q-34 -9 -106.5 -12.5t-100.5 2.5q-57 13 -129 100q-69 85 -99.5 189t-37.5 288zM373 1774q0 16 20 32q23 15 43 15q11 0 29 -11l35 -30q31 -31 82 -97 l36 -47l48 52q57 63 116 106q31 22 49 27q9 3 25 -2q14 -14 14 -23q-2 -9 -18 -31q-21 -29 -96 -104q-90 -90 -115 -113q-8 -6 -18.5 -14t-12.5 -10q-9 -10 -19 -9t-16 11q0 -1 -9 10t-20.5 25t-15.5 18q-26 38 -86 104q-42 47 -49 56q-12 16 -14 20t-6 8q0 1 -1 3.5t-1 3.5 z" />
<glyph unicode="&#x10d;" horiz-adv-x="708" d="M68 463.5q4 71.5 16 105.5q25 71 77.5 134.5t119.5 101.5q54 33 114 33q17 0 49 -9q47 -15 93.5 -62t46.5 -79q0 -20 -21 -41q-17 -18 -26.5 -17.5t-26.5 23.5q-31 36 -57 50.5t-68 17.5q-32 1 -45.5 -1t-32.5 -11q-24 -13 -56 -54.5t-52 -81.5q-11 -30 -14 -47.5 t-3 -64.5q0 -111 39 -174q38 -58 125 -58q92 0 172 66q68 55 97 35q12 -9 12 -29q0 -27 -64.5 -87t-111.5 -75q-31 -11 -105 -14t-104 6q-66 20 -110.5 77t-59.5 140q-8 44 -4 115.5zM143 1159q0 16 21 33q21 14 43 14q12 0 29 -10q5 -4 16 -14.5t18 -16.5q34 -34 82 -96 l37 -47l47 51q58 64 117 107q29 20 49 26q9 3 25 -2q14 -14 14 -22q-2 -9 -18 -31q-18 -25 -97 -104q-102 -102 -114 -113q-8 -6 -18 -14.5t-13 -10.5q-9 -10 -19 -9t-16 11q0 -1 -9 10.5t-20.5 25.5t-15.5 18q-26 38 -86 104q-47 52 -49 55q-10 14 -14 21q-1 2 -7 8 q0 1 -1 3t-1 3z" />
<glyph unicode="&#x10e;" horiz-adv-x="983" d="M168 1774q0 16 20 32q22 15 43 15q11 0 29 -11l35 -30q31 -31 82 -97l37 -47l47 52q55 61 117 106q31 22 49 27q8 3 24 -2q15 -15 15 -23q-2 -7 -19 -31q-21 -29 -96 -104q-90 -90 -115 -113q-8 -6 -17.5 -14t-12.5 -10q-9 -10 -19 -9t-16 11q0 -1 -9 10t-20.5 25 t-15.5 18q-26 38 -86 104q-48 53 -50 56q-12 16 -14 20t-6 8q0 1 -1 3.5t-1 3.5zM195 1401q12 34 51 37h2q29 -4 53 -17q50 -27 184 -162t199 -221q83 -111 143.5 -250.5t69.5 -238.5q13 -138 -84.5 -258.5t-263.5 -171.5q-63 -19 -150 -21q-93 -3 -127 6q-43 12 -57.5 32.5 t-15.5 76.5q-2 87 -3.5 629t-0.5 559zM297 1065q0 -21 8 -381q6 -270 6 -326q0 -164 6 -168q3 -10 21 -6q1 0 19 4t41 8.5t44 8.5q101 17 164 48.5t109 86.5q60 71 63 172q6 50 -2 90q-8 39 -39.5 111t-64.5 125q-80 128 -190 263t-167 167l-18 10v-213z" />
<glyph unicode="&#x10f;" horiz-adv-x="909" d="M68 455q0 34 13 88.5t28 89.5q17 37 57.5 82t75.5 67q39 25 107 27t120 -18q30 -15 51 -15q17 0 21.5 4.5t11.5 30.5q10 37 16 154q1 31 5.5 120t5.5 127q7 130 12 144q9 18 33 18q14 0 22 -8q3 -5 5 -20.5t3.5 -79.5t2 -180.5t1.5 -333.5q0 -609 -4 -617 q-3 -9 -8.5 -11.5t-23.5 -2.5q-27 0 -40 11.5t-20 41.5l-8 29q-1 0 -7 -4.5t-18 -14t-22 -16.5q-57 -45 -124.5 -61t-115.5 4q-38 17 -88 71.5t-76 108.5q-36 85 -36 164zM199 506q-34 -150 53 -234q64 -61 107.5 -65.5t129.5 39.5l68 35l-4 67q-11 230 -21 252 q-26 53 -79 94q-23 19 -34 24t-30 5q-44 0 -87 -35.5t-77 -91.5q-15 -46 -26 -90zM737 1001q7 39 13 64q6 20 23 99t20 100q2 24 12 71q5 21 16 35l4 2q1 0 2.5 1t3.5 1q2 2 6.5 0t10.5 -5t8 -3q10 -5 21 -16q11 -20 11 -56.5t-5.5 -68.5t-17 -87t-15.5 -83q-3 -42 -10 -58 q-1 -4 -21 -34l-22 -19l-9 -2q-9 -3 -23 6t-20 23q-11 17 -8 30z" />
<glyph unicode="&#x110;" horiz-adv-x="962" d="M35 676q-2 25 8.5 45t40.5 20q14 2 39 2h51v658q12 34 51 37h2q30 -4 54 -17q50 -27 184 -162t199 -221q83 -111 143.5 -250.5t69.5 -238.5q13 -138 -85 -258.5t-264 -171.5q-63 -19 -149 -21q-93 -3 -127 6q-44 12 -58.5 32.5t-15.5 76.5l-2 434q-45 0 -63 2 q-69 0 -78 27zM276 1065q0 -43 1 -99.5t3 -124t3 -98.5q210 0 213 -41q1 -13 -3 -22.5t-14 -15t-15.5 -7.5t-20.5 -5t-17 -3q-35 -6 -107 -6h-34q6 -135 6 -285q0 -164 6 -168q3 -10 20 -6l105 21q101 17 163.5 48t108.5 87q61 72 64 172q6 50 -2 90q-8 38 -39.5 110 t-65.5 126q-81 129 -190 263.5t-166 166.5l-19 10v-213z" />
<glyph unicode="&#x111;" horiz-adv-x="837" d="M68 455q0 34 13 88.5t28 89.5q17 37 57.5 82t75.5 67q39 25 107 27t120 -18q30 -15 51 -15q17 0 21.5 4.5t11.5 30.5q10 37 16 154v10q-34 0 -77 2q-17 1 -51 2t-48 2q-69 0 -78 27q-2 25 9 45t41 20q14 2 38 2h170l7 137q7 130 12 144q9 18 33 18q14 0 22 -8 q8 -13 10 -295q116 -7 119 -37q1 -13 -3 -22.5t-13.5 -15t-15 -7.5t-20.5 -5t-17 -3q-28 -4 -48 -4v-225q0 -609 -4 -617q-3 -9 -8.5 -11.5t-23.5 -2.5q-27 0 -40 11.5t-20 41.5l-8 29q-1 0 -7 -4.5t-18 -14t-22 -16.5q-57 -45 -124.5 -61t-115.5 4q-38 17 -88 71.5 t-76 108.5q-36 85 -36 164zM199 506q-34 -150 53 -234q64 -61 107.5 -65.5t129.5 39.5l68 35l-4 67q-11 230 -21 252q-26 53 -79 94q-23 19 -34 24t-30 5q-44 0 -87 -35.5t-77 -91.5q-15 -46 -26 -90z" />
<glyph unicode="&#x112;" horiz-adv-x="823" d="M170 203q5 55 2 551q-2 264 -2 546q0 73 11 98t50 34q34 7 153 14.5t189 7.5q87 0 118.5 -4t41.5 -20q8 -12 4.5 -30.5t-16.5 -25.5q-14 -3 -170 -10q-214 -9 -270 -27q-11 -3 -13.5 -7.5t-1.5 -22.5q7 -355 10 -387l5 -62l176 -2q171 -3 186 -12q22 -13 12 -47 q-5 -14 -10 -19.5t-28 -10t-54.5 -5.5t-105.5 -2l-166 -2l-2 -41q-5 -112 -8.5 -281.5t0.5 -210.5l6 -18h196q84 0 126.5 -1t69.5 -4.5t34.5 -9t9.5 -16.5q2 -15 -7 -32.5t-22 -24.5q-25 -10 -215 -13q-216 -4 -235 -6q-12 -2 -37 -2q-2 0 -4 2q-6 0 -8 2q-19 8 -24 28 t-1 73zM227 1575q-2 25 8.5 45t40.5 20q14 2 39 2h146q225 0 227 -40q0 -11 -3 -20t-7.5 -13.5t-14 -8.5t-14.5 -5.5t-16.5 -3.5t-14.5 -3q-35 -6 -106 -6q-73 0 -109 2q-17 1 -50.5 2t-47.5 2q-69 0 -78 27z" />
<glyph unicode="&#x113;" horiz-adv-x="755" d="M104 373q-12 139 43 260t156 180q28 16 60.5 25.5t73 8t73.5 -17.5q46 -25 73.5 -69t18.5 -80q-12 -60 -92 -131.5t-191 -122.5q-65 -30 -83 -46t-15 -40q8 -40 33 -76t53 -45q58 -20 153 4.5t148 71.5q13 13 21.5 16.5t23.5 1.5q35 -6 35 -28q0 -12 -40.5 -49.5 t-76.5 -59.5q-79 -49 -141 -61.5t-123 6.5q-96 31 -144 90.5t-59 161.5zM168 997q-2 25 8.5 45.5t40.5 20.5q14 2 39 2h145q226 0 228 -41q1 -13 -3 -22.5t-14 -15t-15.5 -7.5t-20.5 -5t-17 -3q-35 -6 -106 -6q-73 0 -109 2q-17 1 -50.5 2t-47.5 2q-69 0 -78 26zM219 485 q3 -11 7 -11t28 9q41 15 106.5 62t102.5 88q20 22 24.5 31.5t4.5 29.5q0 29 -15 39q-11 8 -31 8q-44 0 -84 -24q-56 -30 -105.5 -111.5t-37.5 -120.5z" />
<glyph unicode="&#x116;" horiz-adv-x="823" d="M170 203q5 55 2 551q-2 264 -2 546q0 73 11 98t50 34q34 7 153 14.5t189 7.5q87 0 118.5 -4t41.5 -20q8 -12 4.5 -30.5t-16.5 -25.5q-14 -3 -170 -10q-214 -9 -270 -27q-11 -3 -13.5 -7.5t-1.5 -22.5q7 -355 10 -387l5 -62l176 -2q171 -3 186 -12q22 -13 12 -47 q-5 -14 -10 -19.5t-28 -10t-54.5 -5.5t-105.5 -2l-166 -2l-2 -41q-5 -112 -8.5 -281.5t0.5 -210.5l6 -18h196q84 0 126.5 -1t69.5 -4.5t34.5 -9t9.5 -16.5q2 -15 -7 -32.5t-22 -24.5q-25 -10 -215 -13q-216 -4 -235 -6q-12 -2 -37 -2q-2 0 -4 2q-6 0 -8 2q-19 8 -24 28 t-1 73zM393 1653q0 17 1 27t4 24.5t12 23.5t24 13q33 8 53 -37q15 -35 9 -117q-3 -13 -17 -24q-12 -10 -30 -17q-9 -2 -19 0t-21.5 14.5t-13.5 36.5q-2 16 -2 56z" />
<glyph unicode="&#x117;" horiz-adv-x="755" d="M104 373q-12 139 43 260t156 180q28 16 60.5 25.5t73 8t73.5 -17.5q46 -25 73.5 -69t18.5 -80q-12 -60 -92 -131.5t-191 -122.5q-65 -30 -83 -46t-15 -40q8 -40 33 -76t53 -45q58 -20 153 4.5t148 71.5q13 13 21.5 16.5t23.5 1.5q35 -6 35 -28q0 -12 -40.5 -49.5 t-76.5 -59.5q-79 -49 -141 -61.5t-123 6.5q-96 31 -144 90.5t-59 161.5zM219 485q3 -11 7 -11t28 9q41 15 106.5 62t102.5 88q20 22 24.5 31.5t4.5 29.5q0 29 -15 39q-11 8 -31 8q-44 0 -84 -24q-56 -30 -105.5 -111.5t-37.5 -120.5zM334 1073q0 17 1 27t4 24.5t12 23.5 t24 13q33 8 53 -37q14 -32 8 -116q-3 -15 -16 -25q-9 -7 -31 -16q-4 -2 -12.5 -0.5t-17 5t-15.5 16t-8 30.5q-2 16 -2 55z" />
<glyph unicode="&#x118;" horiz-adv-x="841" d="M170 203q5 55 2 551q-2 264 -2 546q0 73 11 98t50 34q34 7 153 14.5t189 7.5q87 0 118.5 -4t41.5 -20q8 -12 4.5 -30.5t-16.5 -25.5q-14 -3 -170 -10q-214 -9 -270 -27q-11 -3 -13.5 -7.5t-1.5 -22.5q7 -355 10 -387l5 -62l176 -2q171 -3 186 -12q22 -13 12 -47 q-5 -14 -10 -19.5t-28 -10t-54.5 -5.5t-105.5 -2l-166 -2l-2 -41q-5 -112 -8.5 -281.5t0.5 -210.5l6 -18h196q84 0 126.5 -1t69.5 -4.5t34.5 -9t9.5 -16.5v-8q10 -37 -43 -96q-55 -65 -27 -117q11 -17 24 -27.5t33.5 -9t41.5 24.5q23 24 59 24q30 -1 29 -22q-2 -17 -25 -41 t-39.5 -38t-40.5 -27.5t-48.5 -11.5t-49.5 19q-97 70 -92 164q0 4 1.5 16t2 16.5t2.5 14.5t4.5 16.5t7 16t10.5 19.5l-94 -3q-216 -4 -235 -6q-12 -2 -37 -2q-2 0 -4 2q-6 0 -8 2q-19 8 -24 28t-1 73z" />
<glyph unicode="&#x119;" horiz-adv-x="755" d="M104 373q-12 139 43 260t156 180q28 16 60.5 25.5t73 8t73.5 -17.5q46 -25 73.5 -69t18.5 -80q-12 -60 -92 -131.5t-191 -122.5q-65 -30 -83 -46t-15 -40q8 -40 33 -76t53 -45q58 -20 153 4.5t148 71.5q13 13 21.5 16.5t23.5 1.5q35 -6 35 -28q0 -11 -31.5 -43.5 t-68.5 -55.5q-42 -26 -112.5 -50t-78.5 -32q-43 -51 -8 -116q44 -71 98 -13q24 25 61 24q29 -1 27 -22q-1 -16 -24 -40t-39.5 -38t-40.5 -27.5t-48.5 -11.5t-49.5 19q-104 75 -92 164q1 4 2 12.5t1.5 13t2.5 12t4 13t6 12.5t10 15q-10 3 -21 7t-17 6.5t-7 2.5 q-73 34 -111 90.5t-47 145.5zM219 485q3 -11 7 -11t28 9q41 15 106.5 62t102.5 88q20 22 24.5 31.5t4.5 29.5q0 29 -15 39q-11 8 -31 8q-44 0 -84 -24q-56 -30 -105.5 -111.5t-37.5 -120.5z" />
<glyph unicode="&#x11a;" horiz-adv-x="823" d="M170 203q5 55 2 551q-2 264 -2 546q0 73 11 98t50 34q34 7 153 14.5t189 7.5q87 0 118.5 -4t41.5 -20q8 -12 4.5 -30.5t-16.5 -25.5q-14 -3 -170 -10q-214 -9 -270 -27q-11 -3 -13.5 -7.5t-1.5 -22.5q7 -355 10 -387l5 -62l176 -2q171 -3 186 -12q22 -13 12 -47 q-5 -14 -10 -19.5t-28 -10t-54.5 -5.5t-105.5 -2l-166 -2l-2 -41q-5 -112 -8.5 -281.5t0.5 -210.5l6 -18h196q84 0 126.5 -1t69.5 -4.5t34.5 -9t9.5 -16.5q2 -15 -7 -32.5t-22 -24.5q-25 -10 -215 -13q-216 -4 -235 -6q-12 -2 -37 -2q-2 0 -4 2q-6 0 -8 2q-19 8 -24 28 t-1 73zM225 1774q0 15 21 32q22 15 43 15q10 0 28 -11l35 -30q31 -31 82 -97l37 -47l47 52q55 61 117 106q31 22 49 27q9 3 25 -2q14 -14 14 -23q-2 -9 -18 -31q-18 -25 -97 -104q-102 -102 -114 -113q-8 -6 -18.5 -14t-12.5 -10q-9 -10 -19 -9t-16 11q0 -1 -9 10t-20.5 25 t-15.5 18q-26 38 -86 104q-42 47 -49 56l-15 20q-2 4 -6 8q0 1 -1 3.5t-1 3.5z" />
<glyph unicode="&#x11b;" horiz-adv-x="755" d="M104 373q-12 139 43 260t156 180q28 16 60.5 25.5t73 8t73.5 -17.5q46 -25 73.5 -69t18.5 -80q-12 -60 -92 -131.5t-191 -122.5q-65 -30 -83 -46t-15 -40q8 -40 33 -76t53 -45q58 -20 153 4.5t148 71.5q13 13 21.5 16.5t23.5 1.5q35 -6 35 -28q0 -12 -40.5 -49.5 t-76.5 -59.5q-79 -49 -141 -61.5t-123 6.5q-96 31 -144 90.5t-59 161.5zM164 1159q0 17 20 33q21 14 43 14q12 0 29 -10q5 -4 17 -15t18 -16q34 -34 82 -96l37 -47l47 51q60 66 116 107q28 20 50 26q8 3 24 -2q15 -15 15 -22q-2 -7 -19 -31q-21 -29 -96 -104 q-90 -90 -115 -113q-8 -6 -18 -14.5t-13 -10.5q-18 -21 -34 2q0 -1 -9 10.5t-20.5 25.5t-15.5 18q-26 38 -86 104q-4 4 -23.5 25t-26.5 30q-11 14 -14 21q-2 4 -6 8q0 1 -1 3t-1 3zM219 485q3 -11 7 -11t28 9q41 15 106.5 62t102.5 88q20 22 24.5 31.5t4.5 29.5q0 29 -15 39 q-11 8 -31 8q-44 0 -84 -24q-56 -30 -105.5 -111.5t-37.5 -120.5z" />
<glyph unicode="&#x11e;" horiz-adv-x="962" d="M127.5 783.5q5.5 200.5 26.5 299.5q3 15 47 127q21 50 35.5 74t42.5 55q72 82 163 128t179 46q14 0 22 -2q91 -6 164 -79q54 -54 43 -84q-12 -32 -44.5 -27.5t-78.5 45.5q-46 40 -61 45q-53 19 -146 -25.5t-153 -117.5q-62 -76 -90 -167.5t-37 -252.5q-9 -177 18 -327.5 t80 -205.5q62 -65 155 -92.5t152 4.5q40 23 60.5 63.5t42.5 137.5q16 73 16 168q0 108 -6 129l-4 31l-119 4q-132 4 -185.5 14.5t-62.5 32.5q-13 32 8 53q9 9 30.5 10t113.5 -2q136 -4 178 2q65 9 99.5 -14.5t51.5 -87.5q19 -72 -4 -250q-22 -172 -51 -242 q-24 -56 -68 -100.5t-86 -58.5q-82 -25 -178 -8q-80 15 -130 42t-95 80q-53 62 -81 124t-40 147q-13 81 -7.5 281.5zM383 1710q-3 19 0.5 41.5t13.5 30.5q12 8 17 8q8 3 18 -4q15 -10 37 -47q61 -97 133 -97q80 -3 127 113q6 18 25 33q12 10 32 10q2 2 5 2l2 -2q15 0 18 -2 q5 -3 9 -10t3 -10q3 -42 -20.5 -88t-63.5 -80q-92 -78 -204 -52q-26 6 -58.5 29.5t-58.5 54.5q-31 44 -35 70z" />
<glyph unicode="&#x11f;" horiz-adv-x="675" d="M-43.5 -134.5q6.5 28.5 31.5 28.5q36 0 82 -93q26 -54 85 -87.5t128 -35.5q73 0 116 43q37 38 52 110t6 163q-8 73 -11 106q-3 35 -9.5 39.5t-35.5 -10.5q-49 -25 -104.5 -25t-99.5 25q-67 38 -104.5 146t-22.5 221q13 113 60 187.5t136 127.5q28 17 44 22.5t50 6.5h23 q28 0 70 -23q39 -22 77 -67q30 -38 38.5 -66.5t0.5 -67.5q-9 -53 -12.5 -172.5t0.5 -228.5q10 -208 11 -273.5t-7 -105.5q-15 -83 -53 -143.5t-94 -89.5q-24 -15 -41 -19t-54 -6q-64 0 -104 12q-139 37 -211 127q-28 36 -41 78t-6.5 70.5zM129 1108q-3 18 0 39.5t12 30.5 q1 0 7 3t10 3q6 2 18 -4q15 -8 35 -43q57 -93 127 -93q77 -3 121 107q7 22 22 31q12 10 31 10q2 2 4 2l2 -2q13 0 19 -2q4 -1 9 -8.5t3 -10.5q1 -41 -20.5 -84t-59.5 -75q-92 -77 -197 -49q-24 6 -55 27.5t-55 51.5q-28 34 -33 66zM164 396q13 -99 59 -152q32 -37 64 -44.5 t73 11.5q27 10 60 39l31 26l-2 191q2 110 -1 155t-11 60.5t-31 30.5q-20 14 -37 14q-11 0 -17 -2q-30 -4 -55 -18q-23 -12 -62 -60t-53 -80q-31 -72 -18 -171z" />
<glyph unicode="&#x120;" horiz-adv-x="962" d="M127.5 783.5q5.5 200.5 26.5 299.5q3 15 47 127q21 50 35.5 74t42.5 55q72 82 163 128t179 46q14 0 22 -2q91 -6 164 -79q54 -54 43 -84q-12 -32 -44.5 -27.5t-78.5 45.5q-46 40 -61 45q-53 19 -146 -25.5t-153 -117.5q-62 -76 -90 -167.5t-37 -252.5q-9 -177 18 -327.5 t80 -205.5q62 -65 155 -92.5t152 4.5q40 23 60.5 63.5t42.5 137.5q16 73 16 168q0 108 -6 129l-4 31l-119 4q-132 4 -185.5 14.5t-62.5 32.5q-13 32 8 53q9 9 30.5 10t113.5 -2q136 -4 178 2q65 9 99.5 -14.5t51.5 -87.5q19 -72 -4 -250q-22 -172 -51 -242 q-24 -56 -68 -100.5t-86 -58.5q-82 -25 -178 -8q-80 15 -130 42t-95 80q-53 62 -81 124t-40 147q-13 81 -7.5 281.5zM532 1669q0 17 1 27t4 24.5t12 23.5t24 13q34 8 54 -37q14 -32 8 -116q-3 -14 -17 -25q-10 -8 -30 -16q-4 -2 -12.5 -0.5t-17 5t-15.5 16t-8 30.5 q-3 24 -3 55z" />
<glyph unicode="&#x121;" horiz-adv-x="675" d="M-43.5 -134.5q6.5 28.5 31.5 28.5q36 0 82 -93q26 -54 85 -87.5t128 -35.5q73 0 116 43q37 38 52 110t6 163q-8 73 -11 106q-3 35 -9.5 39.5t-35.5 -10.5q-49 -25 -104.5 -25t-99.5 25q-67 38 -104.5 146t-22.5 221q13 113 60 187.5t136 127.5q28 17 44 22.5t50 6.5h23 q28 0 70 -23q39 -22 77 -67q30 -38 38.5 -66.5t0.5 -67.5q-9 -53 -12.5 -172.5t0.5 -228.5q10 -208 11 -273.5t-7 -105.5q-15 -83 -53 -143.5t-94 -89.5q-24 -15 -41 -19t-54 -6q-64 0 -104 12q-139 37 -211 127q-28 36 -41 78t-6.5 70.5zM164 396q13 -99 59 -152 q32 -37 64 -44.5t73 11.5q27 10 60 39l31 26l-2 191q2 110 -1 155t-11 60.5t-31 30.5q-20 14 -37 14q-11 0 -17 -2q-30 -4 -55 -18q-23 -12 -62 -60t-53 -80q-31 -72 -18 -171zM303 1073q0 17 1 27t4 24.5t12 23.5t24 13q33 8 53 -37q15 -34 9 -116q-3 -14 -17 -25 q-9 -7 -31 -16q-4 -2 -12.5 -0.5t-17 5t-15.5 16t-8 30.5q-2 16 -2 55z" />
<glyph unicode="&#x122;" horiz-adv-x="962" d="M127.5 783.5q5.5 200.5 26.5 299.5q3 15 47 127q21 50 35.5 74t42.5 55q72 82 163 128t179 46q14 0 22 -2q91 -6 164 -79q54 -54 43 -84q-12 -32 -44.5 -27.5t-78.5 45.5q-46 40 -61 45q-53 19 -146 -25.5t-153 -117.5q-62 -76 -90 -167.5t-37 -252.5q-9 -177 18 -327.5 t80 -205.5q62 -65 155 -92.5t152 4.5q40 23 60.5 63.5t42.5 137.5q16 73 16 168q0 108 -6 129l-4 31l-119 4q-132 4 -185.5 14.5t-62.5 32.5q-13 32 8 53q9 9 30.5 10t113.5 -2q136 -4 178 2q65 9 99.5 -14.5t51.5 -87.5q19 -72 -4 -250q-22 -172 -51 -242 q-24 -56 -68 -100.5t-86 -58.5q-82 -25 -178 -8q-80 15 -130 42t-95 80q-53 62 -81 124t-40 147q-13 81 -7.5 281.5zM429 -283q0 7 22 95q26 106 26 188q0 26 26.5 35t45.5 -6q48 -58 14.5 -158.5t-114.5 -157.5q-20 -14 -20 4z" />
<glyph unicode="&#x123;" horiz-adv-x="675" d="M-43.5 -134.5q6.5 28.5 31.5 28.5q36 0 82 -93q26 -54 85 -87.5t128 -35.5q73 0 116 43q37 38 52 110t6 163q-8 73 -11 106q-3 35 -9.5 39.5t-35.5 -10.5q-49 -25 -104.5 -25t-99.5 25q-67 38 -104.5 146t-22.5 221q13 113 60 187.5t136 127.5q28 17 44 22.5t50 6.5h23 q28 0 70 -23q39 -22 77 -67q30 -38 38.5 -66.5t0.5 -67.5q-9 -53 -12.5 -172.5t0.5 -228.5q10 -208 11 -273.5t-7 -105.5q-15 -83 -53 -143.5t-94 -89.5q-24 -15 -41 -19t-54 -6q-64 0 -104 12q-139 37 -211 127q-28 36 -41 78t-6.5 70.5zM164 396q13 -99 59 -152 q32 -37 64 -44.5t73 11.5q27 10 60 39l31 26l-2 191q2 110 -1 155t-11 60.5t-31 30.5q-20 14 -37 14q-11 0 -17 -2q-30 -4 -55 -18q-23 -12 -62 -60t-53 -80q-31 -72 -18 -171zM314 950q0 7 22 95q26 106 26 188q0 26 26.5 35t45.5 -6q48 -58 14.5 -158.5t-114.5 -157.5 q-20 -14 -20 4z" />
<glyph unicode="&#x126;" horiz-adv-x="1032" d="M66 1116q-2 25 8.5 45.5t40.5 20.5q14 2 39 2h20q3 232 23 278q6 14 22 20.5t33 0.5q18 -6 26 -39.5t11 -126.5l4 -133h6q336 0 440 -2v4q-2 239 2 265q4 24 20 32q3 1 9 4l16 4q27 0 39 -45q5 -25 17 -266q89 -3 123 -10t36 -21q1 -13 -3 -22.5t-13.5 -15t-15 -7.5 t-20.5 -5t-17 -3q-40 -6 -86 -6l2 -39l6 -123l16 -15q23 -20 24 -45t-22 -37l-18 -10l2 -127q1 -39 8 -135.5t8 -118.5q14 -246 -2 -290q-12 -26 -39 -33q0 -2 -2 -2q-23 -4 -38 8q-14 10 -20 33t-9.5 100t-3.5 240q0 315 -8 319q-3 5 -223 5.5t-226 -3.5q-5 -2 4 -336 q0 -37 1 -58t1.5 -56t1.5 -66q3 -135 0 -147q-11 -23 -33 -29q-2 -2 -4 -2q-34 -10 -55 8q-8 13 -12 81t-12 329q-2 67 -8 207.5t-7 179.5l-4 159q-5 0 -15.5 1.5t-15.5 1.5q-68 0 -77 26zM293 1083q0 -83 4 -129l2 -39h156q127 0 219 5l67 4l-2 163q-62 0 -228.5 -2 t-217.5 -2z" />
<glyph unicode="&#x127;" horiz-adv-x="741" d="M6 997q-2 25 8.5 45.5t40.5 20.5q14 2 39 2h27q6 275 18 303q15 30 35 27h4q12 -6 19 -27q7 -13 8.5 -58t3.5 -245h31q225 0 227 -41q1 -13 -3 -22.5t-14 -15t-15.5 -7.5t-20.5 -5t-17 -3q-35 -6 -106 -6q-9 0 -21.5 -0.5t-26 -0.5t-34.5 1l2 -215h16q18 0 47 22 q22 19 68 43q25 14 40.5 17.5t47.5 3.5q33 0 48.5 -3.5t37.5 -15.5q37 -22 71.5 -60.5t47.5 -74.5q25 -59 31 -104.5t8 -165.5q3 -143 -4.5 -202.5t-32.5 -82.5q-15 -15 -30.5 -12.5t-24.5 22.5q-10 23 -15 199q-4 182 -10 213q-7 38 -27.5 87t-35.5 66q-11 11 -22 14t-42 3 q-43 0 -64.5 -10t-50.5 -45q-75 -84 -102 -338q-9 -93 -15.5 -127.5t-19.5 -61.5q-10 -18 -16.5 -23t-18.5 -5q-22 0 -26 8q-13 19 -2 651l4 201q-6 0 -18 1t-17 1q-69 0 -78 26z" />
<glyph unicode="&#x12a;" horiz-adv-x="516" d="M66 1604q-2 25 8.5 45t40.5 20q14 2 39 2h145q225 0 227 -41q1 -13 -3 -22.5t-13.5 -15t-15 -7.5t-20.5 -5t-17 -3q-35 -6 -107 -6t-108 2q-17 1 -51 2t-48 2q-68 0 -77 27zM214.5 1361.5q-0.5 23.5 0 32t2.5 26t7.5 27t13.5 15.5q23 13 36 13q16 3 23 -11 q11 -12 15.5 -86t11.5 -368q3 -108 3.5 -319t2.5 -261q5 -138 -2 -244q-1 -38 -4.5 -51t-14.5 -24q-29 -32 -53 -11q-21 21 -39 162q-10 89 -2 1073q0 3 -0.5 26.5z" />
<glyph unicode="&#x12b;" horiz-adv-x="686" d="M102 997q-2 25 9 45.5t41 20.5q14 2 38 2h146q225 0 227 -41q1 -13 -3 -22.5t-13.5 -15t-15 -7.5t-20.5 -5t-17 -3q-35 -6 -107 -6t-108 2q-17 1 -51 2t-48 2q-69 0 -78 26zM273.5 512.5q-5.5 237.5 0.5 275.5q6 48 39 52q29 0 41 -49q10 -44 21 -508q8 -162 -19 -162 q-26 2 -41.5 19t-20 34t-9.5 51q-6 50 -11.5 287.5z" />
<glyph unicode="&#x12e;" horiz-adv-x="677" d="M209 6q3 30 5 42.5t15.5 40t40.5 63.5q9 12 11.5 27.5t1.5 51.5l-4 31q-11 97 -3 1073q0 3 -0.5 26.5t0 32t2.5 26t7.5 27t13.5 15.5q23 13 37 13q15 3 22 -11q11 -12 15.5 -86t11.5 -368q3 -108 3.5 -319t2.5 -261q5 -138 -2 -244l-2 -26q3 -16 -8 -41.5t-35 -50.5 q-55 -65 -27 -117q11 -17 24 -27.5t33.5 -9t41.5 24.5q23 24 59 24q30 -1 29 -22q-2 -17 -25 -41t-39.5 -38t-40.5 -27.5t-48.5 -11.5t-49.5 19q-97 70 -92 164z" />
<glyph unicode="&#x12f;" horiz-adv-x="1228" d="M63 0q3 29 5.5 42.5t16 40t40.5 62.5q8 11 11 61t-1 56l2 -2q-7 102 -10 295.5t2 232.5q6 48 39 52q29 0 41 -49q10 -41 20 -461q8 -60 -2 -143.5t-43 -116.5q-24 -28 -26 -63.5t14 -61.5q44 -71 98 -13q24 25 61 24q29 -1 27 -22q-1 -16 -24 -40t-39.5 -38t-40.5 -27.5 t-48.5 -11.5t-49.5 19q-98 71 -93 164zM102 1270q0 19 4.5 25.5t28.5 19.5q37 18 62 18q47 0 41 -71q-3 -38 -15.5 -55.5t-40.5 -20.5q-20 -1 -27 2.5t-26 25.5q-27 29 -27 56z" />
<glyph unicode="&#x130;" horiz-adv-x="501" d="M209 1653q0 17 1 27t4 24.5t12 23.5t24 13q33 8 53 -37q14 -33 8 -117q-3 -14 -16 -24q-12 -9 -31 -17q-4 -2 -12.5 -0.5t-17 5t-15.5 16t-8 30.5q-2 16 -2 56zM210.5 1361.5q-0.5 21.5 0 32t2 26.5t7 26t13.5 16q23 13 37 13q16 3 23 -11q10 -12 14 -83t12 -371 q3 -107 4 -318.5t3 -261.5q5 -138 -2 -244q-1 -38 -4.5 -51t-14.5 -24q-29 -32 -53 -11q-21 21 -39 162q-10 89 -2 1073q0 5 -0.5 26.5z" />
<glyph unicode="&#x131;" horiz-adv-x="360" d="M128 512.5q-5 237.5 1 275.5q6 48 39 52q29 0 41 -49q9 -39 20 -508q8 -162 -18 -162q-26 2 -41.5 19t-20.5 34.5t-10 50.5q-6 50 -11 287.5z" />
<glyph unicode="&#x136;" horiz-adv-x="950" d="M168 289q8 1031 18 1100q6 46 17 64t33 20q43 6 55 -35q6 -14 6 -25.5t-6 -42.5q-8 -54 -8 -121q0 -66 4.5 -170.5t7.5 -109.5q10 -7 100 99.5t197 250.5q73 101 104.5 135t51.5 33q8 0 20 -6q23 -14 23 -43q0 -15 -22.5 -53t-43.5 -58q-12 -13 -84 -106 q-123 -154 -147 -183q-146 -180 -146 -188t133 -176q91 -122 181 -225q135 -155 182 -234q20 -34 21.5 -50t-13.5 -38q-10 -13 -32.5 -13.5t-39.5 11.5q-22 17 -69 73.5t-74 98.5q-40 57 -146 191.5t-137 166.5q-42 36 -47 39q-16 5 -20 -10q-8 -25 -6 -248 q3 -184 -1.5 -243t-21.5 -76q-9 -9 -28 -11.5t-29 3.5q-22 9 -28 43.5t-5 136.5zM405 -282q0 6 22 95q26 105 26 187q0 26 26 35t45 -6q48 -58 14.5 -158.5t-114.5 -157.5q-20 -14 -19 5z" />
<glyph unicode="&#x137;" horiz-adv-x="630" d="M104 170q-3 17 0 176q7 303 9 500q3 266 7.5 369t14.5 145q7 31 17 31h8q12 -2 20.5 -8t15 -26t10.5 -47.5t7.5 -81t5.5 -117.5t4 -165q8 -277 10 -305l3 -45l24 4q23 4 74.5 44t101.5 65q41 21 79 5q37 -15 20 -49q-4 -10 -13 -20q-33 -32 -91 -73.5t-95 -77.5 q-9 -6 6 -21q28 -25 47.5 -47t63.5 -74t102 -116q41 -46 24 -86q-14 -31 -46 -27q-26 2 -48 29q-169 195 -240 236q-22 12 -22 1q0 -22 -7.5 -103t-10.5 -102q-9 -50 -32 -64.5t-46 13.5q-16 21 -23 37zM231 -282q0 6 22 95q26 105 26 187q0 26 26 35t45 -6 q48 -58 14.5 -158.5t-114.5 -157.5q-20 -14 -19 5z" />
<glyph unicode="&#x139;" horiz-adv-x="765" d="M170 1610q3 19 14 30q4 4 12.5 10.5t21.5 16.5t20 16q11 9 41 40t38 38q16 16 60 49q19 13 37 17h4q4 0 6 -2q3 -1 8 -12.5t6 -12.5q4 -8 4 -26q-4 -23 -9.5 -38.5t-25 -38t-27 -29.5t-48.5 -43q-14 -12 -21 -19q-28 -28 -47 -39q-14 -9 -41 -13h-28l-11 2q-9 5 -13.5 21 t-0.5 33zM180 1399q-5 29 2 44t31 27q8 6 18 11q5 0 17 -4q30 -19 41 -156t20 -600q9 -380 10 -393l5 -82l159 -2q112 -2 142 -4t47 -11q29 -15 30 -46t-28 -46q-25 -11 -204.5 -17t-219.5 3q-5 2 -11.5 3.5t-10 2.5t-3.5 2q-9 12 -20 666q-5 529 -25 602z" />
<glyph unicode="&#x13a;" horiz-adv-x="479" d="M104 1610q3 18 15 30q3 3 53 43q11 9 41.5 40t38.5 38q19 19 59 49q19 13 37 17h4q4 0 6 -2q3 -1 8.5 -12.5t6.5 -12.5q4 -8 4 -26q-4 -23 -9.5 -38.5t-25 -38t-27 -29.5t-48.5 -43q-14 -12 -21 -19q-28 -28 -47 -39q-14 -9 -41 -13h-29l-10 2q-9 5 -14 21t-1 33z M172 924q4 369 8 413q4 39 15.5 60.5t25.5 21.5q18 0 33 -30q9 -15 11 -70.5t7 -345.5q8 -425 13 -500q12 -227 9.5 -278.5t-28.5 -71.5q-17 -15 -38 -14.5t-29 14.5q-9 17 -13.5 59.5t-11.5 192.5q-7 162 -2 549z" />
<glyph unicode="&#x13b;" horiz-adv-x="755" d="M170 1442q-5 29 2 44t31 27q8 6 18 11q5 0 17 -4q30 -19 41 -162.5t20 -636.5q9 -380 10 -393l4 -82l160 -2q112 -2 142 -4t47 -11q29 -15 30 -46t-28 -46q-25 -11 -204.5 -17t-219.5 3q-5 2 -11.5 3.5t-10 2.5t-3.5 2q-9 12 -20 666q-5 574 -25 645zM355 -283q0 7 22 95 q26 106 26 188q0 26 26.5 35t45.5 -6q48 -58 14.5 -158.5t-114.5 -157.5q-20 -14 -20 4z" />
<glyph unicode="&#x13c;" horiz-adv-x="352" d="M104 -282q0 6 22 95q26 105 26 187q0 26 26 35t45 -6q48 -58 14.5 -158.5t-114.5 -157.5q-20 -14 -19 5zM119 924q4 369 8 413q4 39 15.5 60.5t25.5 21.5q18 0 33 -30q9 -15 11 -70.5t7 -345.5q8 -445 12 -500q12 -227 10 -278.5t-28 -71.5q-17 -15 -38.5 -14.5 t-29.5 14.5q-9 17 -12.5 57.5t-11.5 194.5q-7 162 -2 549z" />
<glyph unicode="&#x13d;" horiz-adv-x="755" d="M170 1399q-5 29 2 44t31 27q8 6 18 11q5 0 17 -4q30 -19 41 -156t20 -600q9 -380 10 -393l4 -82l160 -2q112 -2 142 -4t47 -11q29 -15 30 -46t-28 -46q-25 -11 -204.5 -17t-219.5 3q-5 2 -11.5 3.5t-10 2.5t-3.5 2q-9 12 -20 666q-5 529 -25 602zM408 1059q9 56 12 67 q43 193 45 207q1 18 14 76q5 20 17 37l4 2q2 2 6 2q3 2 13.5 -3t12.5 -5q11 -5 21 -19q12 -21 12 -59t-6 -71.5t-17 -91t-16 -87.5q-3 -43 -10 -59q-2 -7 -22 -37l-23 -19l-10 -4q-9 -3 -23.5 6.5t-21.5 24.5q-11 18 -8 33z" />
<glyph unicode="&#x13e;" horiz-adv-x="428" d="M104 924q3 358 9 413q4 39 15.5 60.5t25.5 21.5q17 0 32 -30q9 -15 12 -75t7 -341q8 -445 12 -500q12 -227 10 -278.5t-28 -71.5q-17 -15 -38.5 -14.5t-29.5 14.5q-9 17 -13.5 59.5t-11.5 192.5q-7 162 -2 549zM276 1001q7 39 13 64q6 20 23 99t20 100q2 24 12 71 q5 21 16 35l5 2q1 0 2.5 1t3.5 1q2 2 6.5 0t10 -5t7.5 -3q10 -5 21 -16q11 -20 11 -56.5t-5.5 -68.5t-17 -87t-15.5 -83q-3 -42 -10 -58q-1 -4 -21 -34l-22 -19l-8 -2q-9 -3 -23 6t-20 23q-11 19 -9 30z" />
<glyph unicode="&#x141;" horiz-adv-x="856" d="M168 699q2 17 18 30q8 12 29 29l80 65q-5 551 -25 619q-5 29 2 44t31 27q6 5 19 11q4 0 16 -4q27 -18 38.5 -133t18.5 -478l31 25q172 146 201 115q11 -12 11 -26t-3 -21t-15.5 -22t-13.5 -17q-14 -16 -78 -72q-4 -4 -14 -13.5t-19.5 -18t-35 -30t-62.5 -49.5l2 -59 q8 -365 11 -393l4 -82l159 -2q112 -2 142 -4t47 -11q29 -15 30 -46t-28 -46q-25 -11 -204.5 -17t-219.5 3q-5 2 -11.5 3.5t-10 2.5t-3.5 2q-7 10 -18 569l-31 -22q-53 -45 -76 -31q-11 11 -17.5 23t-4.5 29z" />
<glyph unicode="&#x142;" horiz-adv-x="516" d="M104 612q3 19 15 31q19 20 78 66q0 131 2 215q4 369 8 413q4 39 15.5 60.5t25.5 21.5q18 0 33 -30q9 -15 11 -70.5t7 -345.5q1 -28 2 -86t2 -86q7 7 15.5 14t17 13.5t12.5 9.5q17 12 37 16h4q4 0 6 -2q3 -1 8.5 -12.5t6.5 -12.5q4 -8 4 -26q-5 -25 -22 -49t-32 -37.5 t-55 -46.5q3 -154 6 -195q12 -227 10 -278.5t-28 -71.5q-17 -15 -38.5 -14.5t-29.5 14.5q-9 17 -12.5 57.5t-11.5 194.5q-4 126 -4 203q-29 -19 -39 -19l-29 -2l-10 2q-9 5 -14 20.5t-1 32.5z" />
<glyph unicode="&#x143;" horiz-adv-x="1052" d="M174 1386q14 88 47 101q0 2 8 2q15 0 35.5 -29.5t54.5 -105.5q56 -106 103 -209q31 -52 153 -307q132 -275 218 -428l24 -39v137q0 161 -10 389q-8 274 -8 406q0 130 5.5 156t33.5 26q41 0 49 -35q7 -20 14 -238q2 -56 5 -202t5 -199q8 -238 8.5 -440.5t-8.5 -231.5 q-10 -32 -34 -38.5t-46 16.5q-48 59 -245 463q-91 191 -131 260l-111 217q-19 36 -28.5 54.5t-17 32t-10.5 16t-5 -0.5q-5 -6 -2 -317.5t10 -472.5q6 -136 2 -190.5t-21 -67.5q-14 -12 -28 -12t-25 12q-20 23 -28.5 111t-14.5 347q-17 709 -2 817zM391 1552q3 19 15 31 q3 3 53 43q14 11 116 103q16 16 60 49q17 12 37 16h4q4 0 6 -2q3 -1 8 -12.5t6 -12.5q4 -8 4 -26q-3 -17 -11.5 -33.5t-17.5 -29t-27.5 -31t-31 -29.5t-39 -34t-41.5 -36q-28 -28 -47 -39q-12 -8 -41 -12h-28l-10 2q-9 5 -14 20.5t-1 32.5z" />
<glyph unicode="&#x144;" horiz-adv-x="749" d="M103 259.5q0 35.5 1 96.5t0 93q-1 135 1 205.5t5 86t9 33.5q17 31 26 37q7 6 13 4.5t18 -14.5q18 -25 21 -49q4 -29 8 -29q12 11 26 25q47 44 115 61q45 10 72 10q24 0 69 -10q72 -16 107 -72q56 -103 53 -368q0 -142 -10 -194t-39 -66q-15 -8 -22.5 -3.5t-16.5 25.5 t-14 221q-5 201 -15 240q-20 73 -55 96q-35 27 -94.5 4.5t-110.5 -82.5q-40 -48 -50.5 -91t-14.5 -187q-3 -121 -8.5 -158t-22.5 -57q-12 -16 -20.5 -14.5t-28.5 22.5q-12 20 -17 59.5t-5 75zM182 981q3 19 15 31q3 3 53 43q33 26 117 102q19 19 59 49q19 13 37 17h4 q4 0 6 -2q3 -1 8 -12.5t6 -12.5q5 -10 5 -27q-3 -20 -12 -37.5t-28.5 -38.5t-32 -33t-46.5 -41t-49 -42q-27 -27 -48 -39q-12 -8 -40 -12h-29l-10 2q-9 5 -14 20.5t-1 32.5z" />
<glyph unicode="&#x145;" horiz-adv-x="1052" d="M174 1386q14 88 47 101q0 2 8 2q15 0 35.5 -29.5t54.5 -105.5q56 -106 103 -209q31 -52 153 -307q132 -275 218 -428l24 -39v137q0 161 -10 389q-8 274 -8 406q0 130 5.5 156t33.5 26q41 0 49 -35q7 -20 14 -238q2 -56 5 -202t5 -199q8 -238 8.5 -440.5t-8.5 -231.5 q-10 -32 -34 -38.5t-46 16.5q-48 59 -245 463q-91 191 -131 260l-111 217q-19 36 -28.5 54.5t-17 32t-10.5 16t-5 -0.5q-5 -6 -2 -317.5t10 -472.5q6 -136 2 -190.5t-21 -67.5q-14 -12 -28 -12t-25 12q-20 23 -28.5 111t-14.5 347q-17 709 -2 817zM437 -283q0 7 22 95 q26 106 26 188q0 26 26.5 35t45.5 -6q48 -58 14.5 -158.5t-114.5 -157.5q-20 -14 -20 4z" />
<glyph unicode="&#x146;" horiz-adv-x="749" d="M103 259.5q0 35.5 1 96.5t0 93q-1 135 1 205.5t5 86t9 33.5q17 31 26 37q7 6 13 4.5t18 -14.5q18 -25 21 -49q4 -29 8 -29q12 11 26 25q47 44 115 61q45 10 72 10q24 0 69 -10q72 -16 107 -72q56 -103 53 -368q0 -142 -10 -194t-39 -66q-15 -8 -22.5 -3.5t-16.5 25.5 t-14 221q-5 201 -15 240q-20 73 -55 96q-35 27 -94.5 4.5t-110.5 -82.5q-40 -48 -50.5 -91t-14.5 -187q-3 -121 -8.5 -158t-22.5 -57q-12 -16 -20.5 -14.5t-28.5 22.5q-12 20 -17 59.5t-5 75zM269 -283q0 7 22 95q26 106 26 188q0 26 26.5 35t45.5 -6q48 -58 14.5 -158.5 t-114.5 -157.5q-20 -14 -20 4z" />
<glyph unicode="&#x147;" horiz-adv-x="1052" d="M174 1386q14 88 47 101q0 2 8 2q15 0 35.5 -29.5t54.5 -105.5q56 -106 103 -209q31 -52 153 -307q132 -275 218 -428l24 -39v137q0 161 -10 389q-8 274 -8 406q0 130 5.5 156t33.5 26q41 0 49 -35q7 -20 14 -238q2 -56 5 -202t5 -199q8 -238 8.5 -440.5t-8.5 -231.5 q-10 -32 -34 -38.5t-46 16.5q-48 59 -245 463q-91 191 -131 260l-111 217q-19 36 -28.5 54.5t-17 32t-10.5 16t-5 -0.5q-5 -6 -2 -317.5t10 -472.5q6 -136 2 -190.5t-21 -67.5q-14 -12 -28 -12t-25 12q-20 23 -28.5 111t-14.5 347q-17 709 -2 817zM317 1774q0 15 21 32 q22 15 43 15q11 0 29 -11q5 -4 16.5 -14.5t17.5 -15.5q31 -31 82 -97l37 -47l47 52q55 61 117 106q31 22 49 27q9 3 25 -2q14 -14 14 -23q-2 -9 -18 -31q-18 -25 -97 -104q-101 -102 -114 -113q-8 -6 -18.5 -14t-12.5 -10q-9 -10 -19 -9t-16 11q0 -1 -9 10t-20.5 25 t-15.5 18q-26 38 -86 104q-42 47 -49 56q-12 16 -14 20q-1 2 -7 8q0 1 -1 3.5t-1 3.5z" />
<glyph unicode="&#x148;" horiz-adv-x="749" d="M103 259.5q0 35.5 1 96.5t0 93q-1 135 1 205.5t5 86t9 33.5q17 31 26 37q7 6 13 4.5t18 -14.5q18 -25 21 -49q4 -29 8 -29q12 11 26 25q47 44 115 61q45 10 72 10q24 0 69 -10q72 -16 107 -72q56 -103 53 -368q0 -142 -10 -194t-39 -66q-15 -8 -22.5 -3.5t-16.5 25.5 t-14 221q-5 201 -15 240q-20 73 -55 96q-35 27 -94.5 4.5t-110.5 -82.5q-40 -48 -50.5 -91t-14.5 -187q-3 -121 -8.5 -158t-22.5 -57q-12 -16 -20.5 -14.5t-28.5 22.5q-12 20 -17 59.5t-5 75zM131 1159q0 16 21 33q21 14 43 14q11 0 28 -10q5 -4 17 -15t18 -16 q34 -34 82 -96l37 -47l47 51q58 64 117 107q29 20 49 26q8 3 24 -2q15 -15 15 -22q-2 -7 -19 -31q-21 -29 -96 -104q-90 -90 -115 -113q-8 -6 -17.5 -14.5t-12.5 -10.5q-9 -10 -19 -9t-16 11q0 -1 -9 10.5t-20.5 25.5t-15.5 18q-26 38 -86 104q-47 52 -49 55q-13 18 -15 21 q-2 4 -6 8q0 1 -1 3t-1 3z" />
<glyph unicode="&#x14a;" horiz-adv-x="1050" d="M174 1386q14 88 47 101q0 2 8 2q15 0 35.5 -29.5t54.5 -105.5q56 -106 103 -209q31 -52 153 -307q132 -275 218 -428l24 -39v137q0 161 -10 389q-8 274 -8 406q0 130 5.5 156t33.5 26q41 0 49 -35q7 -20 14 -238q2 -56 5 -202t5 -199q10 -311 4 -643q-4 -322 -137 -332 q-55 -4 -96.5 15t-81.5 65t-7 65q27 16 67 0q13 -6 22 -14q19 -19 37 -23.5t32.5 4.5t23 18t18.5 24q13 26 6 100.5t-27 124.5q-18 40 -81 160t-105 205q-91 191 -131 260l-111 217q-19 36 -28.5 54.5t-17 32t-10.5 16t-5 -0.5q-5 -6 -2 -317.5t10 -472.5q6 -136 2 -190.5 t-21 -67.5q-14 -12 -28 -12t-25 12q-20 23 -28.5 111t-14.5 347q-17 709 -2 817z" />
<glyph unicode="&#x14b;" horiz-adv-x="751" d="M103 259.5q0 35.5 1 96.5t0 93q-1 135 1 205.5t5 86t9 33.5q17 31 26 37q7 6 13 4.5t18 -14.5q18 -25 21 -49q4 -29 8 -29q12 11 26 25q47 44 115 61q45 10 72 10q24 0 69 -10q72 -16 107 -72q56 -103 53 -368q0 -13 1 -91.5t1.5 -133.5t-0.5 -91q-3 -81 -36 -147 t-87 -70q-55 -4 -96.5 15t-81.5 65t-7 65q27 16 67 0q13 -5 22 -14q19 -19 37 -23.5t32.5 4.5t23 18t18.5 24q13 28 8 221l-4 141q-5 201 -15 240q-20 73 -55 96q-35 27 -94.5 4.5t-110.5 -82.5q-40 -48 -50.5 -91t-14.5 -187q-3 -121 -8.5 -158t-22.5 -57 q-12 -16 -20.5 -14.5t-28.5 22.5q-12 20 -17 59.5t-5 75z" />
<glyph unicode="&#x14c;" horiz-adv-x="892" d="M127 752q0 364 117 585q20 38 71.5 94.5t73.5 65.5q27 10 68 10q63 0 104 -18q174 -66 223 -326q22 -115 25.5 -362t-16.5 -342q-29 -145 -90.5 -243.5t-137.5 -121.5q-21 -6 -73.5 -5t-79.5 7q-70 15 -138 78t-92 137q-55 158 -55 441zM244 770q-6 -282 41 -414 q9 -30 40.5 -72.5t53.5 -54.5q63 -38 162 -6q89 36 125 170q34 118 38 362t-24 392q-13 77 -54 145.5t-87 91.5q-22 11 -47 11q-45 0 -86.5 -38t-73.5 -110q-45 -94 -63.5 -194.5t-24.5 -282.5zM270 1597q-2 25 8.5 45.5t40.5 20.5q14 2 39 2h146q225 0 227 -41 q1 -13 -3 -22.5t-13.5 -15t-15 -7.5t-20.5 -5t-17 -3q-35 -6 -107 -6q-73 0 -109 2q-17 1 -50.5 2t-47.5 2q-69 0 -78 26z" />
<glyph unicode="&#x14d;" horiz-adv-x="702" d="M68 471q0 86 8.5 129.5t34.5 85.5q19 33 60.5 71.5t82.5 59.5q47 23 92.5 23t106.5 -29q64 -32 109 -85.5t59 -109.5q12 -40 14 -126.5t-6 -124.5q-22 -95 -78.5 -157.5t-140.5 -82.5q-69 -18 -129 0q-72 20 -124 73.5t-75 131.5q-14 43 -14 141zM115 997q-2 25 8.5 45.5 t40.5 20.5q14 2 39 2h145q225 0 227 -41q1 -13 -3 -22.5t-13.5 -15t-15 -7.5t-20.5 -5t-17 -3q-35 -6 -107 -6t-108 2q-17 1 -50.5 2t-47.5 2q-69 0 -78 26zM168 422q20 -102 59 -156q34 -43 75.5 -53.5t107.5 6.5q55 13 93 94.5t38 186.5q0 35 -3.5 52.5t-15.5 43.5 q-40 92 -90 121q-19 12 -74 12q-50 0 -76.5 -13t-56.5 -54q-44 -59 -57 -113.5t0 -126.5z" />
<glyph unicode="&#x150;" horiz-adv-x="919" d="M127 752q0 364 117 585q20 38 71.5 94.5t73.5 65.5q27 10 68 10q63 0 104 -18q174 -66 223 -326q22 -115 25.5 -362t-16.5 -342q-29 -145 -90.5 -243.5t-137.5 -121.5q-21 -6 -73.5 -5t-79.5 7q-70 15 -138 78t-92 137q-55 158 -55 441zM244 770q-6 -282 41 -414 q9 -30 40.5 -72.5t53.5 -54.5q63 -38 162 -6q89 36 125 170q34 118 38 362t-24 392q-13 77 -54 145.5t-87 91.5q-22 11 -47 11q-45 0 -86.5 -38t-73.5 -110q-45 -94 -63.5 -194.5t-24.5 -282.5zM319 1610q3 18 15 30q3 3 53 43q11 9 41.5 40t38.5 38q19 19 59 49 q19 13 37 17h4q4 0 6 -2q3 -1 8.5 -12.5t6.5 -12.5q4 -8 4 -26q-4 -23 -9.5 -38.5t-25 -38t-27 -29.5t-48.5 -43q-14 -12 -21 -19q-28 -28 -47 -39q-14 -9 -41 -13h-29l-10 2q-9 5 -14 21t-1 33zM563 1610q3 18 15 30q3 3 53 43q11 9 41.5 40t38.5 38q19 19 59 49 q19 13 37 17h4q4 0 6 -2q3 -1 8 -12.5t6 -12.5q5 -10 5 -26q-4 -23 -9.5 -38.5t-25 -38t-27 -29.5t-48.5 -43q-14 -12 -21 -19q-27 -27 -48 -39q-14 -9 -41 -13h-28l-10 2q-9 5 -14 21t-1 33z" />
<glyph unicode="&#x151;" horiz-adv-x="702" d="M68 471q0 86 8.5 129.5t34.5 85.5q19 33 60.5 71.5t82.5 59.5q47 23 92.5 23t106.5 -29q64 -32 109 -85.5t59 -109.5q12 -40 14 -126.5t-6 -124.5q-22 -95 -78.5 -157.5t-140.5 -82.5q-69 -18 -129 0q-72 20 -124 73.5t-75 131.5q-14 43 -14 141zM168 422 q20 -102 59 -156q34 -43 75.5 -53.5t107.5 6.5q55 13 93 94.5t38 186.5q0 35 -3.5 52.5t-15.5 43.5q-40 92 -90 121q-19 12 -74 12q-50 0 -76.5 -13t-56.5 -54q-44 -59 -57 -113.5t0 -126.5zM170 981q3 20 14 31q4 4 12.5 10.5t21.5 16.5t20 16q11 9 41 40t38 38 q16 16 60 49q17 12 37 16h4q4 0 6 -2q3 -1 8 -12.5t6 -12.5q4 -8 4 -26q-4 -23 -9.5 -38.5t-25 -38t-27 -29.5t-48.5 -43l-6.5 -6.5t-7 -6t-7.5 -6.5q-28 -28 -47 -39q-12 -8 -41 -12h-28l-11 2q-9 5 -13.5 20.5t-0.5 32.5zM414 981q3 20 14 31q3 3 53 43q11 9 41.5 40 t38.5 38q16 16 60 49q17 12 36 16h5q4 0 6 -2q3 -1 8 -12.5t6 -12.5q4 -8 4 -26q-4 -23 -9.5 -38.5t-25 -38t-27 -29.5t-48.5 -43l-6.5 -6.5t-7 -6t-7.5 -6.5q-28 -28 -47 -39q-12 -8 -41 -12h-29l-10 2q-9 5 -13.5 20.5t-0.5 32.5z" />
<glyph unicode="&#x152;" horiz-adv-x="1155" d="M66 752q0 182 34 345.5t82 227.5q13 22 29 41t35 32.5t36 23.5t38 17.5t32.5 11.5t29 8t19.5 5q47 13 124 -20t96 -86q19 65 55 74q36 8 130 15t161 7q87 0 118 -4t41 -20q8 -12 4.5 -30.5t-16.5 -25.5q-14 -3 -170 -10q-156 -6 -219 -27q-11 -3 -13 -7.5t-1 -22.5 l22 -449l117 -2q171 -3 186 -12q23 -13 13 -47q-3 -9 -6.5 -14t-11 -9.5t-19.5 -6t-33 -3t-51 -2.5t-75 -2h-3l-115 -2l-2 -31q0 -111 -6 -190q-8 -277 -2 -312l6 -18h146q56 0 91 -0.5t63 -1.5t42.5 -3t24.5 -6t13 -8.5t5 -11.5q2 -15 -7 -32.5t-22 -24.5q-25 -10 -215 -13 q-153 -3 -184 -6q-12 -2 -37 -2q-2 0 -4 2q-6 0 -8 2q-19 8 -24 26.5t-1 68.5q-62 -89 -125 -103q-127 -29 -227 36t-141 181q-55 158 -55 441zM182 791q-3 -311 41 -435q9 -30 40.5 -72.5t53.5 -54.5q36 -21 78.5 -21t81.5 19t70 62.5t43 103.5q8 41 13.5 82t7.5 85.5 t3 73.5t1.5 79t0.5 69q1 100 -0.5 184.5t-1.5 108.5q-6 56 -12.5 88t-20 70t-37.5 64t-61 44q-22 11 -47 11q-69 0 -119 -40.5t-78.5 -117.5t-41.5 -175t-15 -228z" />
<glyph unicode="&#x153;" horiz-adv-x="1175" d="M68 471q0 86 8.5 129.5t34.5 85.5q19 33 60.5 71.5t82.5 59.5q47 23 92.5 23t106.5 -29q95 -47 143 -135q50 92 127 137q28 16 60.5 25.5t73 8t73.5 -17.5q46 -25 73.5 -69t18.5 -80q-12 -60 -92 -131.5t-191 -122.5q-65 -30 -83 -46t-15 -40q8 -40 33 -76t53 -45 q58 -20 153 4.5t148 71.5q13 13 21.5 16.5t23.5 1.5q35 -6 35 -28q0 -12 -40.5 -49.5t-76.5 -59.5q-79 -49 -141 -61.5t-123 6.5q-115 36 -154 115q-66 -88 -163 -111q-69 -18 -129 0q-72 20 -124 73.5t-75 131.5q-14 43 -14 141zM168 422q20 -102 59 -156 q34 -43 75.5 -53.5t107.5 6.5q55 13 93 94.5t38 186.5q0 35 -3.5 52.5t-15.5 43.5q-40 92 -90 121q-19 12 -74 12q-50 0 -76.5 -13t-56.5 -54q-44 -59 -57 -113.5t0 -126.5zM639 485q0 -1 1 -2q2 -9 7 -9q3 0 23 7q3 1 4 2q41 15 106.5 62t102.5 88q20 21 24 30.5t4 30.5 q0 30 -14 39q-11 8 -31 8q-44 0 -84 -24q-56 -30 -105.5 -111.5t-37.5 -120.5z" />
<glyph unicode="&#x154;" horiz-adv-x="933" d="M168 1145.5q-1 104.5 2.5 173t10.5 89t22 28.5q9 7 113.5 30t125.5 23q46 0 129 -33t129 -70q96 -71 109 -184q12 -110 -139 -274q-47 -53 -54.5 -66t-7.5 -37q0 -41 57.5 -174.5t137.5 -281.5q53 -100 67 -140q22 -46 22 -67.5t-22 -40.5q-29 -26 -65 12 q-52 58 -136.5 227t-144.5 330q-29 85 -41 101l-10 14l-90 -21l-92 -18l2 -33q6 -35 4.5 -292.5t-6.5 -280.5q-9 -43 -49 -43q-23 0 -29 6q-17 18 -24 173q-5 105 -15 544q-5 201 -6 305.5zM266 1153q0 -155 4 -200.5t21 -55.5q22 -12 102 4q135 31 215 108t88 183 q2 32 0 44.5t-12 31.5q-26 50 -92.5 82t-142.5 34q-5 0 -16.5 -1t-16.5 -1q-30 -3 -86 -15t-62 -17v-10q0 -11 -0.5 -29.5t-1 -41.5t-0.5 -54v-62zM332 1575q3 20 14 31q3 3 53 43q33 26 117 102q19 19 59 49q19 13 37 17h4q5 0 7 -2q3 -1 8 -12.5t6 -12.5q4 -8 4 -27 q-3 -20 -12 -37.5t-28.5 -38.5t-32 -33t-46.5 -41t-49 -42q-28 -28 -47 -39q-12 -8 -41 -12h-29l-10 2q-9 5 -13.5 20.5t-0.5 32.5z" />
<glyph unicode="&#x155;" horiz-adv-x="516" d="M102 465q3 304 11 346q5 31 23 34q4 1 18 1q32 0 43.5 -16t11.5 -62q0 -45 6 -45q9 0 25 16q5 3 57 45q51 36 74 45q41 20 69 17q49 0 49 -35q0 -15 -16 -32.5t-39 -24.5q-62 -20 -147 -121q-53 -62 -58 -86q-20 -75 -20 -225q0 -165 -39 -193q-15 -12 -39 -13.5t-27 9.5 q-2 4 -2 340zM131 981q3 20 14 31q4 4 12.5 10.5t21.5 16.5t20 16q24 19 116 102q16 16 60 49q19 13 37 17h4q4 0 6 -2q3 -1 8 -12.5t6 -12.5q4 -8 4 -27q-3 -20 -12 -37.5t-28.5 -38.5t-32 -33t-46.5 -41t-49 -42q-28 -28 -47 -39q-12 -8 -41 -12h-28l-11 2 q-9 5 -13.5 20.5t-0.5 32.5z" />
<glyph unicode="&#x156;" horiz-adv-x="933" d="M168 1145.5q-1 104.5 2.5 173t10.5 89t22 28.5q9 7 113.5 30t125.5 23q46 0 129 -33t129 -70q96 -71 109 -184q12 -110 -139 -274q-47 -53 -54.5 -66t-7.5 -37q0 -41 57.5 -174.5t137.5 -281.5q53 -100 67 -140q22 -46 22 -67.5t-22 -40.5q-29 -26 -65 12 q-52 58 -136.5 227t-144.5 330q-29 85 -41 101l-10 14l-90 -21l-92 -18l2 -33q6 -35 4.5 -292.5t-6.5 -280.5q-9 -43 -49 -43q-23 0 -29 6q-17 18 -24 173q-5 105 -15 544q-5 201 -6 305.5zM266 1153q0 -155 4 -200.5t21 -55.5q22 -12 102 4q135 31 215 108t88 183 q2 32 0 44.5t-12 31.5q-26 50 -92.5 82t-142.5 34q-5 0 -16.5 -1t-16.5 -1q-30 -3 -86 -15t-62 -17v-10q0 -11 -0.5 -29.5t-1 -41.5t-0.5 -54v-62zM429 -283q0 7 22 95q26 106 26 188q0 26 26.5 35t45.5 -6q48 -58 14.5 -158.5t-114.5 -157.5q-20 -14 -20 4z" />
<glyph unicode="&#x157;" horiz-adv-x="505" d="M56 -283q0 7 22 95q26 106 26 188q0 26 26.5 35t45.5 -6q48 -58 14.5 -158.5t-114.5 -157.5q-20 -14 -20 4zM92 465q3 304 10 344q5 33 22 36q5 1 19 1q32 0 44 -16t12 -62q0 -45 6 -45q8 0 24 16q11 7 58 45q53 37 73 45q41 20 70 17q49 0 49 -35q0 -15 -16 -32.5 t-39 -24.5q-63 -21 -148 -121q-52 -60 -57 -86q-20 -75 -20 -225q0 -165 -39 -193q-15 -12 -39 -13.5t-27 9.5q-2 4 -2 340z" />
<glyph unicode="&#x158;" horiz-adv-x="933" d="M168 1145.5q-1 104.5 2.5 173t10.5 89t22 28.5q9 7 113.5 30t125.5 23q46 0 129 -33t129 -70q96 -71 109 -184q12 -110 -139 -274q-47 -53 -54.5 -66t-7.5 -37q0 -41 57.5 -174.5t137.5 -281.5q53 -100 67 -140q22 -46 22 -67.5t-22 -40.5q-29 -26 -65 12 q-52 58 -136.5 227t-144.5 330q-29 85 -41 101l-10 14l-90 -21l-92 -18l2 -33q6 -35 4.5 -292.5t-6.5 -280.5q-9 -43 -49 -43q-23 0 -29 6q-17 18 -24 173q-5 105 -15 544q-5 201 -6 305.5zM238 1778q0 16 20 32q22 15 43 15q12 0 29 -10q5 -4 17 -15t18 -16q30 -30 81 -96 l37 -48l47 52q55 61 117 106q31 22 49 27q9 3 25 -2q14 -14 14 -23q-2 -9 -18 -31q-21 -29 -96 -104q-90 -90 -115 -113q-8 -6 -18.5 -14.5t-12.5 -9.5q-9 -10 -19 -9t-16 11q0 -1 -9 10t-20.5 25t-15.5 18q-29 42 -86 105q-47 52 -49 55q-12 16 -14 20q-3 6 -6 9q0 1 -1 3 t-1 3zM266 1153q0 -155 4 -200.5t21 -55.5q22 -12 102 4q135 31 215 108t88 183q2 32 0 44.5t-12 31.5q-26 50 -92.5 82t-142.5 34q-5 0 -16.5 -1t-16.5 -1q-30 -3 -86 -15t-62 -17v-10q0 -11 -0.5 -29.5t-1 -41.5t-0.5 -54v-62z" />
<glyph unicode="&#x159;" horiz-adv-x="530" d="M47 1159q0 16 21 33q21 14 43 14q11 0 28 -10q5 -4 17 -15t18 -16q34 -34 82 -96l37 -47l47 51q58 64 117 107q29 20 49 26q8 3 24 -2q15 -15 15 -22q-2 -7 -19 -31q-21 -29 -96 -104q-90 -90 -115 -113q-8 -6 -17.5 -14.5t-12.5 -10.5q-9 -10 -19 -9t-16 11 q0 -1 -9 10.5t-20.5 25.5t-15.5 18q-26 38 -86 104q-46 52 -49 55q-13 18 -15 21q-2 4 -6 8q0 1 -1 3t-1 3zM102 465q3 304 11 346q5 31 23 34q4 1 18 1q32 0 43.5 -16t11.5 -62q0 -45 6 -45q9 0 25 16q5 3 57 45q51 36 74 45q41 20 69 17q49 0 49 -35q0 -15 -16 -32.5 t-39 -24.5q-62 -20 -147 -121q-53 -62 -58 -86q-20 -75 -20 -225q0 -165 -39 -193q-15 -12 -39 -13.5t-27 9.5q-2 4 -2 340z" />
<glyph unicode="&#x15a;" horiz-adv-x="946" d="M127 467q0 115 43 106q32 -10 41 -92q21 -109 82 -176q70 -76 166 -94t186 31q153 79 86 237q-28 64 -84 129t-166 160q-150 128 -195.5 214.5t-33.5 221.5q8 109 78 187q58 64 137 79q21 3 39 3q54 0 111.5 -22.5t95.5 -57.5q46 -46 55.5 -110.5t-27.5 -70.5 q-15 -1 -29.5 14.5t-19.5 37.5q-5 20 -32.5 47.5t-59.5 42.5q-29 17 -65.5 18.5t-63.5 -12.5q-26 -10 -54 -43t-42 -68q-43 -104 3 -198.5t202 -223.5q82 -65 149.5 -139.5t91.5 -122.5q57 -119 33 -219q-43 -172 -233 -225q-43 -12 -108.5 -13t-106.5 9 q-132 32 -205.5 124.5t-73.5 225.5zM362 1552q3 19 15 31q3 3 53 43q23 18 117 103q19 19 59 49q17 12 37 16h4q4 0 6 -2q3 -1 8.5 -12.5t6.5 -12.5q4 -8 4 -26q-3 -17 -11.5 -33.5t-17.5 -29t-27.5 -31t-31 -29.5t-39 -34t-41.5 -36q-28 -28 -47 -39q-12 -8 -41 -12h-29 l-10 2q-9 5 -14 20.5t-1 32.5z" />
<glyph unicode="&#x15b;" horiz-adv-x="659" d="M68 246q1 17 5 20.5t19 5.5q21 3 82 -24q54 -26 92 -35.5t88 -7.5q49 3 63 15.5t17 55.5q3 26 0 37t-18 35q-46 69 -137 154q-47 44 -67 70.5t-32 62.5q-48 145 45 203q18 12 49 12q59 0 132 -36.5t100 -84.5q10 -20 11 -26.5t-7 -18.5q-20 -40 -104 27q-8 5 -17 10.5 t-23.5 13t-27.5 10.5t-25.5 2.5t-20.5 -9.5t-9 -27q-3 -47 22 -84t101 -99q89 -72 128.5 -169t10.5 -166q-25 -54 -90 -79t-150 -14q-99 13 -174 62q-38 23 -51.5 41t-11.5 43zM221 981q3 19 15 31q3 3 53 43q33 26 117 102q19 19 59 49q19 13 37 17h4q4 0 6 -2 q3 -1 8 -12.5t6 -12.5q4 -8 4 -27q-3 -20 -12 -37.5t-28.5 -38.5t-32 -33t-46.5 -41t-49 -42q-28 -28 -47 -39q-12 -8 -41 -12h-28l-10 2q-9 5 -14 20.5t-1 32.5z" />
<glyph unicode="&#x15e;" horiz-adv-x="946" d="M127 467q0 115 43 106q32 -10 41 -92q21 -109 82 -176q70 -76 166 -94t186 31q153 79 86 237q-28 64 -84 129t-166 160q-150 128 -195.5 214.5t-33.5 221.5q8 109 78 187q58 64 137 79q21 3 39 3q54 0 111.5 -22.5t95.5 -57.5q46 -46 55.5 -110.5t-27.5 -70.5 q-15 -1 -29.5 14.5t-19.5 37.5q-5 20 -32.5 47.5t-59.5 42.5q-29 17 -65.5 18.5t-63.5 -12.5q-26 -10 -54 -43t-42 -68q-43 -104 3 -198.5t202 -223.5q82 -65 149.5 -139.5t91.5 -122.5q57 -119 33 -219q-43 -172 -233 -225q-37 -9 -89 -12q-3 -25 -8 -46q-6 -17 21 -22 q49 -10 80 -41t41 -70q12 -59 -25.5 -119.5t-95.5 -70.5q-57 -11 -99.5 -0.5t-89.5 47.5q-49 37 -21 64q23 21 64 14q17 -3 29 -12q47 -30 79.5 -27.5t45.5 29.5q12 40 -7 71t-59 35q-36 6 -53 22t-12 37q1 5 5.5 18.5t12 35.5t11.5 35q-34 4 -45 8q-132 32 -205.5 124.5 t-73.5 225.5z" />
<glyph unicode="&#x15f;" horiz-adv-x="659" d="M68 246q1 17 5 20.5t19 5.5q21 3 82 -24q54 -26 92 -35.5t88 -7.5q49 3 63 15.5t17 55.5q3 26 0 37t-18 35q-46 69 -137 154q-47 44 -67 70.5t-32 62.5q-48 145 45 203q18 12 49 12q59 0 132 -36.5t100 -84.5q10 -20 11 -26.5t-7 -18.5q-20 -40 -104 27q-8 5 -17 10.5 t-23.5 13t-27.5 10.5t-25.5 2.5t-20.5 -9.5t-9 -27q-3 -47 22 -84t101 -99q89 -72 128.5 -169t10.5 -166q-22 -47 -76.5 -72.5t-128.5 -22.5l-4 -22q-2 -10 2 -14t18 -7q43 -9 72 -37t37 -63q11 -55 -23 -110t-86 -64q-53 -9 -91.5 0.5t-80.5 42.5q-45 35 -18 58 q22 19 61 11q13 -4 23 -10q42 -27 71 -24.5t41 26.5q11 37 -6 65.5t-53 31.5q-33 6 -48.5 21t-10.5 34l22 69q-79 19 -135 56q-38 23 -51.5 41t-11.5 43z" />
<glyph unicode="&#x160;" horiz-adv-x="946" d="M127 467q0 115 43 106q32 -10 41 -92q21 -109 82 -176q70 -76 166 -94t186 31q153 79 86 237q-28 64 -84 129t-166 160q-150 128 -195.5 214.5t-33.5 221.5q8 109 78 187q58 64 137 79q21 3 39 3q54 0 111.5 -22.5t95.5 -57.5q46 -46 55.5 -110.5t-27.5 -70.5 q-15 -1 -29.5 14.5t-19.5 37.5q-5 20 -32.5 47.5t-59.5 42.5q-29 17 -65.5 18.5t-63.5 -12.5q-26 -10 -54 -43t-42 -68q-43 -104 3 -198.5t202 -223.5q82 -65 149.5 -139.5t91.5 -122.5q57 -119 33 -219q-43 -172 -233 -225q-43 -12 -108.5 -13t-106.5 9 q-132 32 -205.5 124.5t-73.5 225.5zM301 1774q0 15 21 32q23 15 43 15q10 0 28 -11q4 -4 9.5 -8.5t13 -11t12.5 -10.5q31 -31 82 -97l37 -47l47 52q55 61 117 106q31 22 49 27q8 3 24 -2q15 -15 15 -23q-2 -7 -19 -31q-21 -29 -96 -104q-90 -90 -115 -113q-8 -6 -17.5 -14 t-12.5 -10q-9 -10 -19 -9t-16 11q0 -1 -9 10t-20.5 25t-15.5 18q-26 38 -86 104q-42 47 -49 56q-2 3 -6 7.5t-6 7.5t-3 5q-2 4 -6 8q0 1 -1 3.5t-1 3.5z" />
<glyph unicode="&#x161;" horiz-adv-x="659" d="M68 246q1 17 5 20.5t19 5.5q21 3 82 -24q54 -26 92 -35.5t88 -7.5q49 3 63 15.5t17 55.5q3 26 0 37t-18 35q-46 69 -137 154q-47 44 -67 70.5t-32 62.5q-48 145 45 203q18 12 49 12q59 0 132 -36.5t100 -84.5q10 -20 11 -26.5t-7 -18.5q-20 -40 -104 27q-8 5 -17 10.5 t-23.5 13t-27.5 10.5t-25.5 2.5t-20.5 -9.5t-9 -27q-3 -47 22 -84t101 -99q89 -72 128.5 -169t10.5 -166q-25 -54 -90 -79t-150 -14q-99 13 -174 62q-38 23 -51.5 41t-11.5 43zM131 1159q0 16 21 33q21 14 43 14q11 0 28 -10q5 -4 17 -15t18 -16q34 -34 82 -96l37 -47l47 51 q58 64 117 107q29 20 49 26q8 3 24 -2q15 -15 15 -22q-2 -7 -19 -31q-21 -29 -96 -104q-90 -90 -115 -113q-8 -6 -17.5 -14.5t-12.5 -10.5q-9 -10 -19 -9t-16 11q0 -1 -9 10.5t-20.5 25.5t-15.5 18q-26 38 -86 104q-47 52 -49 55q-13 18 -15 21q-2 4 -6 8q0 1 -1 3t-1 3z " />
<glyph unicode="&#x162;" horiz-adv-x="911" d="M86 1423q1 11 8.5 18.5t30.5 13.5t56.5 9t94.5 5.5t135 3t187 0.5h127q136 0 160 -6t24 -39v-7q0 -38 -32 -47.5t-172 -15.5q-166 -4 -170 -8q-9 0 -3 -344q5 -235 5 -600q0 -241 -7 -273l-18 -70q-6 -17 20 -22q49 -10 80 -41t41 -70q12 -59 -25.5 -119.5t-95.5 -70.5 q-57 -11 -99 -0.5t-89 47.5q-49 37 -21 63q23 21 65 14q17 -3 28 -11q47 -30 79.5 -27.5t45.5 29.5q12 40 -7 71t-59 35q-36 6 -53.5 22t-11.5 37q9 29 18 56t11 34.5t3.5 15.5t1.5 19v254q0 229 -4 365q-9 150 -12 358l-6 236l-148 6q-120 5 -156 16t-32 43z" />
<glyph unicode="&#x163;" horiz-adv-x="495" d="M8 846q12 22 33 30t72 13q65 4 71 10q6 3 6 90q0 102 7.5 235t13.5 152q10 23 22 23q11 0 27 -19q17 -19 24 -76t13 -223l8 -163q4 -8 64 -11q51 -3 71 -13t27 -36q5 -22 -8 -33q-14 -12 -78 -12q-65 -4 -70 -6q-14 -11 -17 -220.5t9 -301.5q6 -73 10 -103v-24 q3 -8 0 -19v-14l-10 -49q-2 -9 2 -13.5t19 -7.5q43 -9 71.5 -37t36.5 -63q11 -55 -22.5 -110t-85.5 -64q-53 -9 -91.5 0.5t-80.5 42.5q-46 35 -18 58q23 20 61 11q12 -3 22 -10q42 -27 71.5 -24.5t41.5 26.5q11 37 -6.5 65.5t-53.5 31.5q-33 6 -48.5 21t-10.5 34l22 67 q-22 19 -29.5 104.5t-10.5 336.5l-5 256l-16 -4q-75 -18 -117 -2q-27 10 -40 24.5t-7 26.5z" />
<glyph unicode="&#x164;" horiz-adv-x="911" d="M86 1423q1 11 8.5 18.5t30.5 13.5t56.5 9t94.5 5.5t135 3t187 0.5h127q136 0 160 -6t24 -39v-7q0 -38 -32 -47.5t-172 -15.5q-166 -4 -170 -8q-9 0 -3 -344q5 -235 5 -600q0 -181 -1.5 -221.5t-9.5 -51.5q-9 -10 -29.5 -12t-37.5 6q-15 7 -15 18q-1 3 -1 34.5t0.5 100.5 t0.5 119q0 229 -4 365q-9 150 -12 358l-6 236l-148 6q-120 5 -156 16t-32 43zM252 1774q0 16 20 32q22 15 43 15q11 0 29 -11q4 -4 9.5 -8.5t13 -11t12.5 -10.5q31 -31 82 -97l37 -47l47 52q55 61 117 106q31 22 49 27q8 3 24 -2q15 -15 15 -23q-2 -7 -19 -31 q-21 -29 -96 -104q-90 -90 -115 -113q-8 -6 -18.5 -14t-12.5 -10q-18 -21 -34 2q0 -1 -9 10t-20.5 25t-15.5 18q-26 38 -86 104q-48 53 -50 56q-12 16 -14 20t-6 8q0 1 -1 3.5t-1 3.5z" />
<glyph unicode="&#x165;" horiz-adv-x="495" d="M8 846q12 22 33 30t72 13q65 4 71 10q6 3 6 90q0 102 7.5 235t13.5 152q10 23 22 23q11 0 27 -19q17 -19 24 -76t13 -223l8 -163q4 -8 64 -11q51 -3 71 -13t27 -36q5 -22 -8 -33q-14 -12 -78 -12q-65 -4 -70 -6q-14 -11 -17 -220.5t9 -301.5q6 -73 10 -103q2 -39 0.5 -51 t-10.5 -22q-11 -12 -33.5 -13.5t-36.5 8.5q-22 19 -29.5 104.5t-10.5 336.5l-5 256l-16 -4q-75 -18 -117 -2q-27 10 -40 24.5t-7 26.5zM379 1067q8 47 12 63q16 53 31 156q2 25 12 72q5 18 17 35l4 2q1 0 2.5 1t3.5 1q2 2 6.5 0t10 -5t7.5 -3q8 -4 21 -17q11 -20 13 -51 t-0.5 -51.5t-13 -74.5t-13.5 -75q-3 -38 -11 -57q-3 -9 -20 -35l-23 -18l-8 -2q-10 -3 -23.5 5.5t-19.5 22.5q-11 18 -8 31z" />
<glyph unicode="&#x166;" horiz-adv-x="911" d="M86 1423q1 11 8.5 18.5t30.5 13.5t56.5 9t94.5 5.5t135 3t187 0.5h127q136 0 160 -6t24 -39v-7q0 -38 -32 -47.5t-172 -15.5q-166 -4 -170 -8q-9 0 -3 -326q190 -4 193 -41q1 -13 -3 -22.5t-14 -15t-15.5 -7.5t-20.5 -5t-17 -3q-35 -6 -106 -6h-14q2 -178 2 -518 q0 -181 -1.5 -221.5t-9.5 -51.5q-9 -10 -29.5 -12t-37.5 6q-15 7 -15 18q-1 3 -1 34.5t0.5 100.5t0.5 119q0 229 -4 365l-6 162q-16 1 -47.5 2t-44.5 2q-69 0 -78 26q-2 25 8.5 45.5t40.5 20.5q14 2 39 2h78l-2 98l-6 236l-148 6q-120 5 -156 16t-32 43z" />
<glyph unicode="&#x167;" horiz-adv-x="495" d="M8 846q12 22 33 30t72 13q65 4 71 10q6 3 6 90q0 102 7.5 235t13.5 152q10 23 22 23q11 0 27 -19q17 -19 24 -76t13 -223l8 -163q4 -8 64 -11q51 -3 71 -13t27 -36q5 -22 -8 -33q-14 -12 -78 -12q-65 -4 -70 -6q-12 -9 -16 -176q164 -8 166 -39q0 -13 -3.5 -22t-13.5 -14 t-14.5 -7t-20 -5t-16.5 -3q-33 -6 -100 -6q0 -165 10 -250q6 -73 10 -103q2 -39 0.5 -51t-10.5 -22q-11 -12 -33.5 -13.5t-36.5 8.5q-22 19 -29.5 103t-10.5 330h-5q-16 1 -48 2t-46 2q-66 0 -74 24q-2 24 8.5 44t39.5 20q14 2 36 2h86l-2 170l-16 -4q-75 -18 -117 -2 q-27 10 -40 24.5t-7 26.5z" />
<glyph unicode="&#x16a;" horiz-adv-x="958" d="M167 1115.5q0 317.5 3 352.5q3 20 6.5 25t18.5 6q45 3 53 -37q2 -16 6 -225q6 -333 21 -573t32 -299q14 -37 39 -68.5t53 -44.5q29 -10 101 -10q47 0 64 2.5t36 11.5q30 18 53.5 50.5t32.5 70.5q17 68 34 360t17 533q0 114 5 160.5t18 56.5q9 12 33 12q23 3 26 -10 q4 -15 5.5 -236.5t-1.5 -410.5q-6 -329 -22.5 -447.5t-61.5 -175.5q-57 -61 -129 -84q-36 -10 -92 -12t-92 4q-125 30 -188 115q-32 43 -46 131t-22 289q-3 136 -3 453.5zM274 1618q-2 25 9 45t41 20q21 3 38 3h146q225 0 227 -41q0 -11 -3 -20t-7.5 -13.5t-13.5 -8.5 t-14 -5.5t-16.5 -3.5t-14.5 -3q-35 -6 -107 -6t-108 2q-17 1 -51 2t-48 2q-69 0 -78 27z" />
<glyph unicode="&#x16b;" horiz-adv-x="737" d="M104 561q-9 218 15 262q8 11 14.5 13.5t24.5 1.5q34 -1 41.5 -27.5t13.5 -157.5q6 -176 14.5 -255t25 -115.5t52.5 -55.5q23 -12 38 -15t48 -3q52 2 75.5 11.5t35.5 35.5q18 34 22 88.5t6 243.5q0 15 0.5 60t1 73.5t5 61t12.5 46.5q16 13 37 13q20 0 32 -15 q9 -9 11.5 -30.5t5.5 -114.5q4 -204 -21 -351.5t-69 -178.5q-41 -31 -113 -39.5t-135 8.5q-130 37 -160 139q-24 87 -33 301zM137 997q-2 25 8.5 45.5t40.5 20.5q14 2 39 2h146q225 0 227 -41q1 -13 -3 -22.5t-14 -15t-15.5 -7.5t-20.5 -5t-17 -3q-35 -6 -106 -6 q-73 0 -109 2q-17 1 -50.5 2t-47.5 2q-69 0 -78 26z" />
<glyph unicode="&#x16e;" horiz-adv-x="958" d="M167 1115.5q0 317.5 3 352.5q3 20 6.5 25t18.5 6q45 3 53 -37q2 -16 6 -225q6 -333 21 -573t32 -299q14 -37 39 -68.5t53 -44.5q29 -10 101 -10q47 0 64 2.5t36 11.5q30 18 53.5 50.5t32.5 70.5q17 68 34 360t17 533q0 114 5 160.5t18 56.5q9 12 33 12q23 3 26 -10 q4 -15 5.5 -236.5t-1.5 -410.5q-6 -329 -22.5 -447.5t-61.5 -175.5q-57 -61 -129 -84q-36 -10 -92 -12t-92 4q-125 30 -188 115q-32 43 -46 131t-22 289q-3 136 -3 453.5zM371 1587q-35 74 12 162q19 28 63 53q27 8 60 8q90 0 123 -86q37 -98 -19 -182q-39 -44 -81.5 -57 t-85 12t-72.5 90zM432 1665q0 -40 21 -61q16 -24 36.5 -29t35.5 2t26 20q28 37 17.5 73.5t-36.5 49.5q-38 13 -69 -1.5t-31 -53.5z" />
<glyph unicode="&#x16f;" horiz-adv-x="737" d="M104 561q-9 218 15 262q8 11 14.5 13.5t24.5 1.5q34 -1 41.5 -27.5t13.5 -157.5q6 -176 14.5 -255t25 -115.5t52.5 -55.5q23 -12 38 -15t48 -3q52 2 75.5 11.5t35.5 35.5q18 34 22 88.5t6 243.5q0 15 0.5 60t1 73.5t5 61t12.5 46.5q16 13 37 13q20 0 32 -15 q9 -9 11.5 -30.5t5.5 -114.5q4 -204 -21 -351.5t-69 -178.5q-41 -31 -113 -39.5t-135 8.5q-130 37 -160 139q-24 87 -33 301zM238 1069q-35 74 12 162q19 28 63 53q27 8 60 8q90 0 123 -86q37 -98 -19 -182q-39 -44 -81.5 -57t-85 12t-72.5 90zM299 1147q0 -42 20 -62 q16 -24 36.5 -29t35.5 2.5t27 20.5q28 37 17.5 73.5t-36.5 49.5q-38 13 -69 -1.5t-31 -53.5z" />
<glyph unicode="&#x170;" horiz-adv-x="1228" d="M171 1115.5q0 317.5 3 352.5q3 20 6.5 25t18.5 6q45 3 53 -37q2 -16 6 -225q6 -333 21 -573t32 -299q14 -37 39 -68.5t53 -44.5q29 -10 101 -10q47 0 64 2.5t36 11.5q30 18 53.5 50.5t32.5 70.5q17 68 34 360t17 533q0 114 5 160.5t18 56.5q9 12 33 12q23 3 26 -10 q4 -15 5.5 -236.5t-1.5 -410.5q-6 -329 -22.5 -447.5t-61.5 -175.5q-57 -61 -129 -84q-36 -10 -92 -12t-92 4q-125 30 -188 115q-32 43 -46 131t-22 289q-3 136 -3 453.5zM319 1610q3 18 15 30q3 3 53 43q11 9 41.5 40t38.5 38q19 19 59 49q19 13 37 17h4q4 0 6 -2 q3 -1 8.5 -12.5t6.5 -12.5q4 -8 4 -26q-4 -23 -9.5 -38.5t-25 -38t-27 -29.5t-48.5 -43q-14 -12 -21 -19q-28 -28 -47 -39q-14 -9 -41 -13h-29l-10 2q-9 5 -14 21t-1 33zM563 1610q3 18 15 30q3 3 53 43q11 9 41.5 40t38.5 38q19 19 59 49q19 13 37 17h4q4 0 6 -2 q3 -1 8 -12.5t6 -12.5q5 -10 5 -26q-4 -23 -9.5 -38.5t-25 -38t-27 -29.5t-48.5 -43q-14 -12 -21 -19q-27 -27 -48 -39q-14 -9 -41 -13h-28l-10 2q-9 5 -14 21t-1 33z" />
<glyph unicode="&#x171;" horiz-adv-x="737" d="M104 561q-9 218 15 262q8 11 14.5 13.5t24.5 1.5q34 -1 41.5 -27.5t13.5 -157.5q6 -176 14.5 -255t25 -115.5t52.5 -55.5q23 -12 38 -15t48 -3q52 2 75.5 11.5t35.5 35.5q18 34 22 88.5t6 243.5q0 15 0.5 60t1 73.5t5 61t12.5 46.5q16 13 37 13q20 0 32 -15 q9 -9 11.5 -30.5t5.5 -114.5q4 -204 -21 -351.5t-69 -178.5q-41 -31 -113 -39.5t-135 8.5q-130 37 -160 139q-24 87 -33 301zM170 981q3 20 14 31q4 4 12.5 10.5t21.5 16.5t20 16q11 9 41 40t38 38q16 16 60 49q17 12 37 16h4q4 0 6 -2q3 -1 8 -12.5t6 -12.5q4 -8 4 -26 q-4 -23 -9.5 -38.5t-25 -38t-27 -29.5t-48.5 -43l-6.5 -6.5t-7 -6t-7.5 -6.5q-28 -28 -47 -39q-12 -8 -41 -12h-28l-11 2q-9 5 -13.5 20.5t-0.5 32.5zM414 981q3 20 14 31q3 3 53 43q11 9 41.5 40t38.5 38q16 16 60 49q17 12 36 16h5q4 0 6 -2q3 -1 8 -12.5t6 -12.5 q4 -8 4 -26q-4 -23 -9.5 -38.5t-25 -38t-27 -29.5t-48.5 -43l-6.5 -6.5t-7 -6t-7.5 -6.5q-28 -28 -47 -39q-12 -8 -41 -12h-29l-10 2q-9 5 -13.5 20.5t-0.5 32.5z" />
<glyph unicode="&#x172;" horiz-adv-x="980" d="M167 1115.5q0 317.5 3 352.5q3 20 6.5 25t18.5 6q45 3 53 -37q2 -16 6 -225q6 -333 21 -573t32 -299q14 -37 39 -68.5t53 -44.5q29 -10 101 -10q47 0 64 2.5t36 11.5q16 8 35 27q39 43 51 94q17 68 34 360t17 533q0 114 5 160.5t18 56.5q9 12 33 12q23 3 26 -10 q4 -15 5.5 -236.5t-1.5 -410.5q-5 -242 -14 -362.5t-29 -180.5q-6 -26 -38 -83.5t-54 -82.5q-54 -64 -26 -117q11 -17 23.5 -27.5t33 -9t41.5 24.5q23 24 59 24q30 -1 29 -22q-2 -17 -25 -41t-39.5 -38t-40.5 -27.5t-48.5 -11t-49.5 19.5q-97 70 -92 164q4 43 8 53 q-81 -7 -135 2q-125 30 -188 115q-32 43 -46 131t-22 289q-3 136 -3 453.5z" />
<glyph unicode="&#x173;" horiz-adv-x="1228" d="M104 561q-9 218 15 262q8 11 14.5 13.5t24.5 1.5q34 -1 41.5 -27.5t13.5 -157.5q6 -176 14.5 -255t25 -115.5t52.5 -55.5q23 -12 38 -15t48 -3q52 2 75.5 11.5t35.5 35.5q18 34 22 88.5t6 243.5q0 15 0.5 60t1 73.5t5 61t12.5 46.5q16 13 37 13q20 0 32 -15 q9 -9 11.5 -30.5t5.5 -114.5q6 -309 -47 -461q-1 -19 -33.5 -76t-56.5 -84q-55 -65 -27 -116q44 -71 98 -13q24 25 61 24q29 -1 27 -22q-1 -16 -24 -40t-39.5 -38t-40.5 -27.5t-48.5 -11.5t-49.5 19q-98 71 -93 164q0 2 1 10.5t1.5 10.5t1 9.5t1.5 10t2.5 9.5t3.5 11 t4.5 10.5t5.5 12t7 12.5t9 15q-49 -3 -102 10q-130 37 -160 139q-24 87 -33 301z" />
<glyph unicode="&#x174;" horiz-adv-x="1097" d="M130.5 1409.5q-7.5 77.5 6.5 85.5q7 7 24 7.5t27 -5.5q15 -10 30 -91t56 -359q6 -32 12.5 -75.5t11 -72t7.5 -39.5q1 -7 6.5 -43t14 -91.5t14.5 -104.5q30 -202 33 -205q3 -5 15 15l5 9q19 33 61 129t58 146q23 65 39 83t32.5 -2t41.5 -89q91 -222 118 -269 q15 -26 19 -27q3 0 4 7q14 69 33 227q7 47 15 103.5t12 83t5 26.5q3 5 7 23q84 576 96 594q20 30 43 30q9 0 18 -6q6 -6 12.5 -22t6.5 -27q0 -39 -64 -432q-75 -523 -86 -637q-20 -199 -28 -231q-3 -20 -9.5 -26.5t-23.5 -6.5q-24 0 -45.5 37t-73.5 168q-110 260 -115 260 q-3 0 -21.5 -39t-46.5 -104.5t-55 -135.5q-51 -121 -70.5 -153.5t-41.5 -32.5q-19 0 -27 8q-6 7 -11.5 51.5t-29.5 251.5q-17 164 -82 590q-46 314 -53.5 391.5zM313 1526q1 5 19 30q23 32 125 134q89 89 114 112q8 6 18 14.5t13 10.5q9 10 19 9t16 -11q0 1 9 -10t20.5 -25 t15.5 -18q29 -42 106 -127q48 -53 50 -56q12 -16 14 -20t6 -8q0 -1 1 -3.5t1 -3.5q0 -16 -20 -32q-22 -15 -43 -15q-11 0 -29 11l-35 30q-44 44 -102 119l-37 47l-47 -51q-84 -90 -146 -135q-31 -22 -49 -27q-8 -3 -24 2q-15 15 -15 23z" />
<glyph unicode="&#x175;" horiz-adv-x="956" d="M73 825q14 32 48 -5q2 -2 4 -5q27 -30 66 -136t63 -212q19 -82 29 -82q5 0 38 79.5t50 131.5q44 133 67 133q13 0 33 -20q17 -15 33.5 -52.5t44.5 -124.5q53 -158 88 -208l16 -23l6 14q21 52 44 161t38 163q8 32 18.5 67t19 60.5l9.5 28.5q12 49 43 49q19 0 41 -19 q12 -9 15 -15.5t2 -23.5q-4 -25 -41 -139q-65 -190 -113 -502q-6 -36 -61 -36q-34 0 -55 35t-95 218q-38 96 -48 116t-21 20t-18 -11t-25 -59q-24 -58 -55 -154t-31 -110q0 -9 -13 -35q-9 -13 -16 -16.5t-23 -3.5t-23.5 4t-19.5 18q-14 18 -28 88q-13 75 -57.5 255 t-59.5 224q-31 87 -13 127zM184 940q2 7 19 31q21 29 125 133q101 102 114 113q8 6 18.5 14t12.5 10q9 10 19 9t16 -11q0 1 9 -10t20.5 -25t15.5 -18q29 -42 106 -127q4 -4 23.5 -25t26.5 -30q11 -14 14 -21q2 -4 6 -8q0 -1 1 -3t1 -3q0 -17 -20 -33q-21 -14 -43 -14 q-12 0 -29 10q-5 4 -17 15t-18 16q-47 47 -102 118l-37 47l-47 -51q-84 -90 -146 -135q-31 -22 -49 -27q-7 -3 -24 3q-15 15 -15 22z" />
<glyph unicode="&#x176;" horiz-adv-x="1003" d="M89 1422q-11 31 13 57q21 14 27 14q15 -4 33 -14q14 -8 54 -56t71 -94q185 -286 188 -291q30 -42 31 -43q10 -7 13.5 -7t12.5 9q21 25 179 263q45 66 93 127.5t70 82.5q44 38 70 9q24 -29 12.5 -61.5t-69.5 -102.5q-63 -77 -150 -209t-125 -209q-22 -42 -29 -121.5 t-8 -326.5q-3 -248 -10 -281q-9 -27 -43 -43t-45 2q-18 21 -18 397q0 241 -4 291q-7 40 -33 90q-40 82 -123.5 213t-142.5 203q-56 70 -67 101zM250 1526q2 7 18 30q23 32 125 134q78 78 115 112q8 6 18 14.5t13 10.5q18 21 34 -2q0 1 9 -10t20.5 -25t15.5 -18 q26 -38 107 -127q42 -47 49 -56q12 -16 14 -20q1 -2 7 -8q0 -1 1 -3.5t1 -3.5q0 -15 -21 -32q-23 -15 -43 -15q-10 0 -28 11q-4 4 -9.5 8.5t-13 11t-12.5 10.5q-48 48 -103 119l-37 47l-47 -51q-86 -92 -145 -135q-31 -22 -49 -27q-9 -3 -25 2q-14 14 -14 23z" />
<glyph unicode="&#x177;" horiz-adv-x="665" d="M47 803q0 29 1.5 36.5t10.5 10.5q11 5 21 -8q50 -71 113 -219q48 -107 91.5 -187t53.5 -80q5 0 41.5 83t69.5 169q53 138 84 192t59 54q8 0 16 -4q17 -9 6 -53t-69 -199q-39 -103 -105 -303l-82 -250q-23 -56 -82 -252q-46 -149 -65.5 -198.5t-34.5 -61.5 q-12 -10 -31.5 -10.5t-25.5 8.5q-27 40 74 350l86 275q5 17 3 29t-14 44q-11 37 -80 191q-60 131 -79 184q-1 2 -37 96q-25 61 -25 103zM63 940q2 7 19 31q21 29 125 133q90 90 115 113q8 6 17.5 14t12.5 10q9 10 19 9t16 -11q0 1 9 -10t20.5 -25t15.5 -18q26 -38 107 -127 q47 -52 49 -55q10 -14 14 -21q2 -4 6 -8q0 -1 1 -3t1 -3q0 -17 -20 -33q-21 -14 -43 -14q-12 0 -29 10q-5 4 -17 15t-18 16q-47 47 -102 118l-37 47l-47 -51q-86 -92 -145 -135q-31 -21 -50 -27q-7 -3 -24 3q-15 15 -15 22z" />
<glyph unicode="&#x178;" horiz-adv-x="1003" d="M89 1422q-11 31 13 57q21 14 27 14q15 -4 33 -14q14 -8 54 -56t71 -94q185 -286 188 -291q30 -42 31 -43q10 -7 13.5 -7t12.5 9q21 25 179 263q45 66 93 127.5t70 82.5q44 38 70 9q24 -29 12.5 -61.5t-69.5 -102.5q-63 -77 -150 -209t-125 -209q-22 -42 -29 -121.5 t-8 -326.5q-3 -248 -10 -281q-9 -27 -43 -43t-45 2q-18 21 -18 397q0 241 -4 291q-7 40 -33 90q-40 82 -123.5 213t-142.5 203q-56 70 -67 101zM397 1653q0 51 2 63q4 13 9 15q61 22 84 -35q13 -31 8 -109q-3 -13 -17 -24q-12 -10 -30 -17q-44 -7 -50 19l-4 32q-2 16 -2 56z M586 1653q0 17 1 27t4 24.5t12 23.5t24 13q18 4 32 -7t21 -30q14 -33 8 -117q-3 -14 -16 -24q-12 -9 -31 -17q-4 -2 -12.5 -0.5t-17 5t-15.5 16t-8 30.5q-2 16 -2 56z" />
<glyph unicode="&#x179;" horiz-adv-x="966" d="M134 219.5q18 68.5 95 235.5q140 301 301 573q180 302 177 332q-3 18 -44 25t-163 10q-148 3 -174 10q-25 11 -17 47q2 14 8.5 20t33.5 11.5t68 7.5t128 4q148 4 160 4q58 0 78.5 -5.5t33.5 -20.5q10 -17 8 -48q-13 -131 -268 -565q-125 -223 -256 -483l-70 -144l66 -2 q75 0 297 7q163 6 202 5.5t54 -7.5q42 -23 25 -68q-8 -18 -13 -23t-20 -8q-24 -8 -275 -8q-54 -1 -133.5 -1.5t-130 -1t-69.5 -1.5q-81 -5 -93 2q-27 24 -9 92.5zM424 1575q3 20 14 31q4 4 12.5 10.5t21.5 16.5t20 16q24 19 116 102q16 16 60 49q19 13 37 17h4q4 0 6 -2 q3 -1 8 -12.5t6 -12.5q4 -8 4 -27q-3 -20 -12 -37.5t-28.5 -38.5t-32 -33t-46.5 -41t-49 -42q-28 -28 -47 -39q-12 -8 -41 -12h-28l-11 2q-9 5 -13.5 20.5t-0.5 32.5z" />
<glyph unicode="&#x17a;" horiz-adv-x="733" d="M106 154q0 25 101 157q133 182 209 316l55 92l-147 4q-123 4 -160.5 12t-52.5 31q-23 39 26 70q15 10 78 10q60 0 107 -2q137 -1 178 -9t61 -36q17 -26 17 -60q0 -63 -38.5 -137.5t-131.5 -193.5q-83 -102 -109 -144l-27 -43l80 -2q94 0 156 6q89 8 124 6.5t48 -14.5 q16 -10 16 -29q0 -12 -11.5 -27.5t-25.5 -21.5q-9 -3 -157 -14q-171 -13 -193 -16q-54 -9 -102 -11t-60 4q-17 7 -29 23t-12 29zM201 981q3 20 14 31q3 3 53 43q33 26 117 102q19 19 59 49q19 13 37 17h4q5 0 7 -2q3 -1 8 -12.5t6 -12.5q4 -8 4 -27q-3 -20 -12 -37.5 t-28.5 -38.5t-32 -33t-46.5 -41t-49 -42q-28 -28 -47 -39q-12 -8 -41 -12h-29l-10 2q-9 5 -13.5 20.5t-0.5 32.5z" />
<glyph unicode="&#x17b;" horiz-adv-x="966" d="M134 219.5q18 68.5 95 235.5q140 301 301 573q180 302 177 332q-3 18 -44 25t-163 10q-148 3 -174 10q-25 11 -17 47q2 14 8.5 20t33.5 11.5t68 7.5t128 4q148 4 160 4q58 0 78.5 -5.5t33.5 -20.5q10 -17 8 -48q-13 -131 -268 -565q-125 -223 -256 -483l-70 -144l66 -2 q75 0 297 7q163 6 202 5.5t54 -7.5q42 -23 25 -68q-8 -18 -13 -23t-20 -8q-24 -8 -275 -8q-54 -1 -133.5 -1.5t-130 -1t-69.5 -1.5q-81 -5 -93 2q-27 24 -9 92.5zM502 1653q0 17 1 27t4 24.5t12 23.5t24 13q33 8 53 -37q14 -33 8 -117q-3 -14 -16 -24q-11 -9 -31 -17 q-4 -2 -12.5 -0.5t-17 5t-15.5 16t-8 30.5q-2 16 -2 56z" />
<glyph unicode="&#x17c;" horiz-adv-x="733" d="M106 154q0 25 101 157q133 182 209 316l55 92l-147 4q-123 4 -160.5 12t-52.5 31q-23 39 26 70q15 10 78 10q60 0 107 -2q137 -1 178 -9t61 -36q17 -26 17 -60q0 -63 -38.5 -137.5t-131.5 -193.5q-83 -102 -109 -144l-27 -43l80 -2q94 0 156 6q89 8 124 6.5t48 -14.5 q16 -10 16 -29q0 -12 -11.5 -27.5t-25.5 -21.5q-9 -3 -157 -14q-171 -13 -193 -16q-54 -9 -102 -11t-60 4q-17 7 -29 23t-12 29zM289 1073q0 17 1 27t4 24.5t12 23.5t24 13q33 8 53 -37q14 -32 8 -116q-3 -15 -16 -25q-9 -7 -31 -16q-4 -2 -12.5 -0.5t-17 5t-15.5 16 t-8 30.5q-2 16 -2 55z" />
<glyph unicode="&#x17d;" horiz-adv-x="966" d="M134 219.5q18 68.5 95 235.5q140 301 301 573q180 302 177 332q-3 18 -44 25t-163 10q-148 3 -174 10q-25 11 -17 47q2 14 8.5 20t33.5 11.5t68 7.5t128 4q148 4 160 4q58 0 78.5 -5.5t33.5 -20.5q10 -17 8 -48q-13 -131 -268 -565q-125 -223 -256 -483l-70 -144l66 -2 q75 0 297 7q163 6 202 5.5t54 -7.5q42 -23 25 -68q-8 -18 -13 -23t-20 -8q-24 -8 -275 -8q-54 -1 -133.5 -1.5t-130 -1t-69.5 -1.5q-81 -5 -93 2q-27 24 -9 92.5zM326 1774q0 16 20 32q23 15 43 15q11 0 29 -11l35 -30q31 -31 82 -97l36 -47l47 52q55 61 117 106 q31 22 49 27q9 3 25 -2q14 -14 14 -23q-2 -9 -18 -31q-21 -29 -96 -104q-90 -90 -115 -113q-8 -6 -18.5 -14t-12.5 -10q-9 -10 -19 -9t-16 11q0 -1 -9 10t-20.5 25t-15.5 18q-26 38 -86 104q-42 47 -49 56q-12 16 -14 20t-6 8q0 1 -1 3.5t-1 3.5z" />
<glyph unicode="&#x17e;" horiz-adv-x="733" d="M106 154q0 25 101 157q133 182 209 316l55 92l-147 4q-123 4 -160.5 12t-52.5 31q-23 39 26 70q15 10 78 10q60 0 107 -2q137 -1 178 -9t61 -36q17 -26 17 -60q0 -63 -38.5 -137.5t-131.5 -193.5q-83 -102 -109 -144l-27 -43l80 -2q94 0 156 6q89 8 124 6.5t48 -14.5 q16 -10 16 -29q0 -12 -11.5 -27.5t-25.5 -21.5q-9 -3 -157 -14q-171 -13 -193 -16q-54 -9 -102 -11t-60 4q-17 7 -29 23t-12 29zM131 1159q0 16 21 33q21 14 43 14q11 0 28 -10q5 -4 17 -15t18 -16q34 -34 82 -96l37 -47l47 51q58 64 117 107q29 20 49 26q8 3 24 -2 q15 -15 15 -22q-2 -7 -19 -31q-21 -29 -96 -104q-90 -90 -115 -113q-8 -6 -17.5 -14.5t-12.5 -10.5q-9 -10 -19 -9t-16 11q0 -1 -9 10.5t-20.5 25.5t-15.5 18q-26 38 -86 104q-47 52 -49 55q-13 18 -15 21q-2 4 -6 8q0 1 -1 3t-1 3z" />
<glyph unicode="&#x218;" horiz-adv-x="946" d="M127 467q0 115 43 106q32 -10 41 -92q21 -109 82 -176q70 -76 166 -94t186 31q153 79 86 237q-28 64 -84 129t-166 160q-150 128 -195.5 214.5t-33.5 221.5q8 109 78 187q58 64 137 79q21 3 39 3q54 0 111.5 -22.5t95.5 -57.5q46 -46 55.5 -110.5t-27.5 -70.5 q-15 -1 -29.5 14.5t-19.5 37.5q-5 20 -32.5 47.5t-59.5 42.5q-29 17 -65.5 18.5t-63.5 -12.5q-26 -10 -54 -43t-42 -68q-43 -104 3 -198.5t202 -223.5q82 -65 149.5 -139.5t91.5 -122.5q57 -119 33 -219q-43 -172 -233 -225q-43 -12 -108.5 -13t-106.5 9 q-132 32 -205.5 124.5t-73.5 225.5zM390 -283q0 7 22 95q26 106 26 188q0 26 26.5 35t45.5 -6q48 -58 14.5 -158.5t-114.5 -157.5q-20 -14 -20 4z" />
<glyph unicode="&#x219;" horiz-adv-x="659" d="M68 246q1 17 5 20.5t19 5.5q21 3 82 -24q54 -26 92 -35.5t88 -7.5q49 3 63 15.5t17 55.5q3 26 0 37t-18 35q-46 69 -137 154q-47 44 -67 70.5t-32 62.5q-48 145 45 203q18 12 49 12q59 0 132 -36.5t100 -84.5q10 -20 11 -26.5t-7 -18.5q-20 -40 -104 27q-8 5 -17 10.5 t-23.5 13t-27.5 10.5t-25.5 2.5t-20.5 -9.5t-9 -27q-3 -47 22 -84t101 -99q89 -72 128.5 -169t10.5 -166q-25 -54 -90 -79t-150 -14q-99 13 -174 62q-38 23 -51.5 41t-11.5 43zM247 -282q0 6 22 95q26 105 26 187q0 26 26.5 35t45.5 -6q48 -58 14 -158.5t-115 -157.5 q-20 -14 -19 5z" />
<glyph unicode="&#x21a;" horiz-adv-x="911" d="M86 1423q1 11 8.5 18.5t30.5 13.5t56.5 9t94.5 5.5t135 3t187 0.5h127q136 0 160 -6t24 -39v-7q0 -38 -32 -47.5t-172 -15.5q-166 -4 -170 -8q-9 0 -3 -344q5 -235 5 -600q0 -181 -1.5 -221.5t-9.5 -51.5q-9 -10 -29.5 -12t-37.5 6q-15 7 -15 18q-1 3 -1 34.5t0.5 100.5 t0.5 119q0 229 -4 365q-9 150 -12 358l-6 236l-148 6q-120 5 -156 16t-32 43zM390 -283q0 7 22 95q26 106 26 188q0 26 26.5 35t45.5 -6q48 -58 14.5 -158.5t-114.5 -157.5q-20 -14 -20 4z" />
<glyph unicode="&#x21b;" horiz-adv-x="495" d="M8 846q12 22 33 30t72 13q65 4 71 10q6 3 6 90q0 102 7.5 235t13.5 152q10 23 22 23q11 0 27 -19q17 -19 24 -76t13 -223l8 -163q4 -8 64 -11q51 -3 71 -13t27 -36q5 -22 -8 -33q-14 -12 -78 -12q-65 -4 -70 -6q-14 -11 -17 -220.5t9 -301.5q6 -73 10 -103q2 -39 0.5 -51 t-10.5 -22q-11 -12 -33.5 -13.5t-36.5 8.5q-22 19 -29.5 104.5t-10.5 336.5l-5 256l-16 -4q-75 -18 -117 -2q-27 10 -40 24.5t-7 26.5zM175 -283q0 7 22 95q26 106 26 188q0 26 26.5 35t45.5 -6q48 -58 14.5 -158.5t-114.5 -157.5q-20 -14 -20 4z" />
<glyph unicode="&#x300;" d="M-514 1741q0 18 4 26q1 1 6 12.5t8 12.5q2 2 7 2h4q19 -4 36 -16q44 -33 60 -49q94 -85 117 -103q50 -40 53 -43q11 -11 14 -31q4 -17 -0.5 -32.5t-13.5 -20.5l-10 -2h-29q-29 4 -41 12q-19 11 -47 39q-15 13 -41.5 36t-39 34t-31 29.5t-27.5 31t-17.5 29t-11.5 33.5z " />
<glyph unicode="&#x301;" d="M-512 1552q3 20 14 31q4 4 12.5 10.5t21.5 16.5t20 16q14 11 116 103q16 16 60 49q17 12 37 16h4q4 0 6 -2q3 -1 8 -12.5t6 -12.5q4 -8 4 -26q-3 -17 -11.5 -33.5t-17.5 -29t-27.5 -31t-31 -29.5t-39 -34t-41.5 -36q-28 -28 -47 -39q-12 -8 -41 -12h-28l-11 2 q-9 5 -13.5 20.5t-0.5 32.5z" />
<glyph unicode="&#x302;" d="M-750 1483q1 5 19 30q23 32 125 134q89 89 114 112q8 6 18 14.5t13 10.5q9 10 19 9t16 -11q0 1 9 -10t20.5 -25t15.5 -18q26 -38 107 -127q42 -47 49 -56q12 -16 14 -20t6 -8q0 -1 1 -3.5t1 -3.5q0 -16 -20 -32q-23 -15 -43 -15q-11 0 -29 11q-4 4 -9.5 8.5t-13 11 t-12.5 10.5q-44 44 -102 119l-37 47l-47 -51q-84 -90 -146 -135q-31 -22 -49 -27q-8 -3 -24 2q-15 15 -15 23z" />
<glyph unicode="&#x303;" d="M-684 1612q3 49 31 80q29 32 72.5 39t86.5 -15q34 -17 80 -57q32 -35 82 -47q39 0 41 39q2 4 3 20.5t3 22.5q4 13 7 16.5t14 13.5q46 15 55 -10q7 -17 4 -65q-3 -68 -43 -97q-37 -34 -100 -34q-51 4 -72 14q-29 15 -78 61q-45 42 -69 49q-10 3 -17 0q-2 -2 -12 -16 q-10 -23 -10 -53t-19 -43q-9 -6 -20 -6q-10 4 -19 12q-24 24 -20 76z" />
<glyph unicode="&#x304;" d="M-664 1575q-2 25 9 45t41 20q14 2 39 2h145q225 0 227 -40q0 -11 -3 -20t-7.5 -13.5t-13.5 -8.5t-14 -5.5t-16.5 -3.5t-14.5 -3q-35 -6 -107 -6t-108 2q-17 1 -51 2t-48 2q-69 0 -78 27z" />
<glyph unicode="&#x306;" d="M-643 1647q-3 19 0.5 41t13.5 30q12 8 17 8q8 3 18 -4q15 -10 37 -47q60 -96 133 -96q80 -3 127 113q5 16 25 32q14 11 32 11q2 2 4 2l3 -2q15 0 18 -2q5 -3 9 -10.5t3 -10.5q3 -42 -20.5 -88t-63.5 -80q-41 -35 -95.5 -49.5t-109.5 -1.5q-25 6 -57.5 29t-58.5 55 q-31 44 -35 70z" />
<glyph unicode="&#x307;" d="M-307 1653q0 17 1 27t4 24.5t12 23.5t24 13q33 8 53 -37q14 -33 8 -117q-3 -14 -16 -24q-11 -9 -31 -17q-4 -2 -12.5 -0.5t-17 5t-15.5 16t-8 30.5q-2 16 -2 56z" />
<glyph unicode="&#x308;" d="M-496 1653q0 51 2 63q4 13 9 15q61 22 84 -35q13 -31 8 -109q-3 -13 -17 -24q-12 -10 -30 -17q-43 -7 -49 19l-5 32q-2 16 -2 56zM-307 1653q0 17 1 27t4 24.5t12 23.5t24 13q18 4 32 -7t21 -30q14 -33 8 -117q-3 -14 -16 -24q-11 -9 -31 -17q-4 -2 -12.5 -0.5t-17 5 t-15.5 16t-8 30.5q-2 16 -2 56z" />
<glyph unicode="&#x30a;" d="M-475 1587q-35 74 12 162q18 27 64 53q27 8 59 8q90 0 123 -86q37 -98 -19 -182q-39 -44 -81.5 -57t-85 12t-72.5 90zM-414 1665q0 -40 21 -61q16 -24 36.5 -29t35.5 2t26 20q28 37 18 73.5t-36 49.5q-38 13 -69.5 -1.5t-31.5 -53.5z" />
<glyph unicode="&#x30b;" d="M-719 1610q3 19 14 30q4 4 12.5 10.5t21.5 16.5t20 16q11 9 41.5 40t38.5 38q19 19 59 49q19 13 37 17h4q4 0 6 -2q3 -1 8 -12.5t6 -12.5q5 -10 5 -26q-2 -11 -4.5 -20.5t-7.5 -19.5t-7.5 -16t-11.5 -16.5t-13 -15.5t-17.5 -17.5t-19 -17.5t-24.5 -21.5t-27 -23.5 q-28 -28 -47 -39q-14 -9 -41 -13h-28l-11 2q-9 5 -13.5 21t-0.5 33zM-475 1610q3 19 14 30q3 3 53 43q11 9 41.5 40t38.5 38q16 16 60 49q19 13 37 17h4q4 0 6 -2q3 -1 8 -12.5t6 -12.5q4 -8 4 -26q-4 -23 -9.5 -38.5t-25 -38t-27 -29.5t-48.5 -43q-14 -12 -21 -19 q-28 -28 -47 -39q-14 -9 -41 -13h-29l-10 2q-9 5 -13.5 21t-0.5 33z" />
<glyph unicode="&#x30c;" d="M-700 1778q0 16 20 32q22 15 43 15q12 0 29 -10q5 -4 17 -15t18 -16q30 -30 81 -96l37 -48l47 52q55 61 117 106q31 22 49 27q9 3 25 -2q14 -14 14 -23q-2 -9 -18 -31q-21 -29 -96 -104q-90 -90 -115 -113q-8 -6 -18.5 -14.5t-12.5 -9.5q-9 -10 -19 -9t-16 11q0 -1 -9 10 t-20.5 25t-15.5 18q-29 42 -86 105q-47 52 -49 55q-12 16 -14 20q-3 6 -6 9q0 1 -1 3t-1 3z" />
<glyph unicode="&#x312;" d="M-349 1248q0 6 22 95q26 105 26 187q0 26 26.5 35t45.5 -6q48 -58 14 -158.5t-115 -157.5q-20 -14 -19 5z" />
<glyph unicode="&#x326;" d="M-349 -282q0 6 22 95q26 105 26 187q0 26 26.5 35t45.5 -6q48 -58 14 -158.5t-115 -157.5q-20 -14 -19 5z" />
<glyph unicode="&#x327;" d="M-535 -149q23 21 64 14q17 -3 29 -12q47 -30 79.5 -27.5t45.5 29.5q12 40 -7 71t-59 35q-36 6 -53.5 22t-12.5 37q1 9 31 91h80q-3 -27 -8 -48q-6 -17 20 -22q49 -10 80 -41t41 -70q12 -59 -25.5 -119.5t-95.5 -70.5q-57 -11 -99 -0.5t-89 47.5q-49 37 -21 64z" />
<glyph unicode="&#x328;" d="M-498 0q3 31 5 43t15.5 39.5t41.5 62.5q14 20 14 39h127l-29 -61q-8 -23 -38 -62q-55 -65 -27 -116q44 -71 98 -13q24 25 61 24q29 -1 27 -22q-1 -16 -24 -40t-40 -38t-41 -27.5t-48.5 -11.5t-49.5 19q-97 70 -92 164z" />
<glyph unicode="&#x1e80;" horiz-adv-x="1097" d="M130.5 1409.5q-7.5 77.5 6.5 85.5q7 7 24 7.5t27 -5.5q15 -10 30 -91t56 -359q6 -32 12.5 -75.5t11 -72t7.5 -39.5q1 -7 6.5 -43t14 -91.5t14.5 -104.5q30 -202 33 -205q3 -5 15 15l5 9q19 33 61 129t58 146q23 65 39 83t32.5 -2t41.5 -89q91 -222 118 -269 q15 -26 19 -27q3 0 4 7q14 69 33 227q7 47 15 103.5t12 83t5 26.5q3 5 7 23q84 576 96 594q20 30 43 30q9 0 18 -6q6 -6 12.5 -22t6.5 -27q0 -39 -64 -432q-75 -523 -86 -637q-20 -199 -28 -231q-3 -20 -9.5 -26.5t-23.5 -6.5q-24 0 -45.5 37t-73.5 168q-110 260 -115 260 q-3 0 -21.5 -39t-46.5 -104.5t-55 -135.5q-51 -121 -70.5 -153.5t-41.5 -32.5q-19 0 -27 8q-6 7 -11.5 51.5t-29.5 251.5q-17 164 -82 590q-46 314 -53.5 391.5zM387 1741q0 18 4 26q1 1 6.5 12.5t8.5 12.5q2 2 6 2h4q20 -4 37 -16q40 -30 59 -49q94 -85 117 -103 q50 -40 53 -43q11 -11 14 -31q4 -17 -0.5 -32.5t-13.5 -20.5l-10 -2h-29q-29 4 -41 12q-19 11 -47 39q-15 13 -41.5 36t-39 34t-31 29.5t-27.5 31t-17.5 29t-11.5 33.5z" />
<glyph unicode="&#x1e81;" horiz-adv-x="956" d="M73 825q14 32 48 -5q2 -2 4 -5q27 -30 66 -136t63 -212q19 -82 29 -82q5 0 38 79.5t50 131.5q44 133 67 133q13 0 33 -20q17 -15 33.5 -52.5t44.5 -124.5q53 -158 88 -208l16 -23l6 14q21 52 44 161t38 163q8 32 18.5 67t19 60.5l9.5 28.5q12 49 43 49q19 0 41 -19 q12 -9 15 -15.5t2 -23.5q-4 -25 -41 -139q-65 -190 -113 -502q-6 -36 -61 -36q-34 0 -55 35t-95 218q-38 96 -48 116t-21 20t-18 -11t-25 -59q-24 -58 -55 -154t-31 -110q0 -9 -13 -35q-9 -13 -16 -16.5t-23 -3.5t-23.5 4t-19.5 18q-14 18 -28 88q-13 75 -57.5 255 t-59.5 224q-31 87 -13 127zM260 1169q0 19 4 27q1 1 6.5 12.5t8.5 12.5q2 2 6 2h4q18 -4 37 -17q40 -30 59 -49q10 -9 88 -75t82 -70q11 -11 14 -31q4 -17 -0.5 -32.5t-13.5 -20.5l-10 -2l-29 2q-9 0 -51 28q-19 11 -47 39q-22 19 -58.5 49t-51 43.5t-29.5 35.5t-19 46z" />
<glyph unicode="&#x1e82;" horiz-adv-x="1097" d="M130.5 1409.5q-7.5 77.5 6.5 85.5q7 7 24 7.5t27 -5.5q15 -10 30 -91t56 -359q6 -32 12.5 -75.5t11 -72t7.5 -39.5q1 -7 6.5 -43t14 -91.5t14.5 -104.5q30 -202 33 -205q3 -5 15 15l5 9q19 33 61 129t58 146q23 65 39 83t32.5 -2t41.5 -89q91 -222 118 -269 q15 -26 19 -27q3 0 4 7q14 69 33 227q7 47 15 103.5t12 83t5 26.5q3 5 7 23q84 576 96 594q20 30 43 30q9 0 18 -6q6 -6 12.5 -22t6.5 -27q0 -39 -64 -432q-75 -523 -86 -637q-20 -199 -28 -231q-3 -20 -9.5 -26.5t-23.5 -6.5q-24 0 -45.5 37t-73.5 168q-110 260 -115 260 q-3 0 -21.5 -39t-46.5 -104.5t-55 -135.5q-51 -121 -70.5 -153.5t-41.5 -32.5q-19 0 -27 8q-6 7 -11.5 51.5t-29.5 251.5q-17 164 -82 590q-46 314 -53.5 391.5zM436 1552q3 19 15 31q3 3 53 43q23 18 117 103q19 19 59 49q17 12 37 16h4q4 0 6 -2q3 -1 8 -12.5t6 -12.5 q4 -8 4 -26q-3 -17 -11.5 -33.5t-17 -29t-27.5 -31t-30.5 -29t-39 -34.5t-41.5 -36q-27 -27 -48 -39q-12 -8 -41 -12h-28l-10 2q-9 5 -14 20.5t-1 32.5z" />
<glyph unicode="&#x1e83;" horiz-adv-x="956" d="M73 825q14 32 48 -5q2 -2 4 -5q27 -30 66 -136t63 -212q19 -82 29 -82q5 0 38 79.5t50 131.5q44 133 67 133q13 0 33 -20q17 -15 33.5 -52.5t44.5 -124.5q53 -158 88 -208l16 -23l6 14q21 52 44 161t38 163q8 32 18.5 67t19 60.5l9.5 28.5q12 49 43 49q19 0 41 -19 q12 -9 15 -15.5t2 -23.5q-4 -25 -41 -139q-65 -190 -113 -502q-6 -36 -61 -36q-34 0 -55 35t-95 218q-38 96 -48 116t-21 20t-18 -11t-25 -59q-24 -58 -55 -154t-31 -110q0 -9 -13 -35q-9 -13 -16 -16.5t-23 -3.5t-23.5 4t-19.5 18q-14 18 -28 88q-13 75 -57.5 255 t-59.5 224q-31 87 -13 127zM307 981q3 19 15 31q3 3 53 43q33 26 117 102q19 19 59 49q19 13 37 17h4q4 0 6 -2q3 -1 8 -12.5t6 -12.5q4 -8 4 -27q-3 -20 -11.5 -37t-28.5 -39t-32 -33t-47 -41t-48 -42q-27 -27 -48 -39q-12 -8 -41 -12h-28l-10 2q-9 5 -14 20.5t-1 32.5z " />
<glyph unicode="&#x1e84;" horiz-adv-x="1097" d="M130.5 1409.5q-7.5 77.5 6.5 85.5q7 7 24 7.5t27 -5.5q15 -10 30 -91t56 -359q6 -32 12.5 -75.5t11 -72t7.5 -39.5q1 -7 6.5 -43t14 -91.5t14.5 -104.5q30 -202 33 -205q3 -5 15 15l5 9q19 33 61 129t58 146q23 65 39 83t32.5 -2t41.5 -89q91 -222 118 -269 q15 -26 19 -27q3 0 4 7q14 69 33 227q7 47 15 103.5t12 83t5 26.5q3 5 7 23q84 576 96 594q20 30 43 30q9 0 18 -6q6 -6 12.5 -22t6.5 -27q0 -39 -64 -432q-75 -523 -86 -637q-20 -199 -28 -231q-3 -20 -9.5 -26.5t-23.5 -6.5q-24 0 -45.5 37t-73.5 168q-110 260 -115 260 q-3 0 -21.5 -39t-46.5 -104.5t-55 -135.5q-51 -121 -70.5 -153.5t-41.5 -32.5q-19 0 -27 8q-6 7 -11.5 51.5t-29.5 251.5q-17 164 -82 590q-46 314 -53.5 391.5zM430 1653q0 51 2 63q4 13 8 15q61 22 84 -35q13 -31 8 -109q-3 -14 -16 -24q-12 -9 -31 -17q-43 -7 -49 19 l-4 32q-2 16 -2 56zM618 1653q0 17 1 27t4 24.5t12 23.5t24 13q34 8 54 -37q14 -33 8 -117q-3 -14 -16 -24q-12 -9 -31 -17q-4 -2 -12.5 -0.5t-17 5t-15.5 16t-8 30.5q-3 24 -3 56z" />
<glyph unicode="&#x1e85;" horiz-adv-x="956" d="M73 825q14 32 48 -5q2 -2 4 -5q27 -30 66 -136t63 -212q19 -82 29 -82q5 0 38 79.5t50 131.5q44 133 67 133q13 0 33 -20q17 -15 33.5 -52.5t44.5 -124.5q53 -158 88 -208l16 -23l6 14q21 52 44 161t38 163q8 32 18.5 67t19 60.5l9.5 28.5q12 49 43 49q19 0 41 -19 q12 -9 15 -15.5t2 -23.5q-4 -25 -41 -139q-65 -190 -113 -502q-6 -36 -61 -36q-34 0 -55 35t-95 218q-38 96 -48 116t-21 20t-18 -11t-25 -59q-24 -58 -55 -154t-31 -110q0 -9 -13 -35q-9 -13 -16 -16.5t-23 -3.5t-23.5 4t-19.5 18q-14 18 -28 88q-13 75 -57.5 255 t-59.5 224q-31 87 -13 127zM301 1169q0 52 2 64q4 12 8 14q61 22 84 -35q13 -31 8 -108q-3 -15 -16 -25q-9 -7 -31 -16q-43 -7 -49 18l-4 33q-2 16 -2 55zM489 1169q0 17 1 27t4 24.5t12 23.5t24 13q35 8 54 -36q14 -33 8 -117q-3 -14 -17 -25q-10 -8 -30 -16 q-4 -2 -12.5 -0.5t-17 5t-15.5 16t-8 30.5q-3 24 -3 55z" />
<glyph unicode="&#x1ef2;" horiz-adv-x="1228" d="M89 1422q-11 31 13 57q21 14 27 14q15 -4 33 -14q14 -8 54 -56t71 -94q185 -286 188 -291q30 -42 31 -43q10 -7 13.5 -7t12.5 9q21 25 179 263q45 66 93 127.5t70 82.5q44 38 70 9q24 -29 12.5 -61.5t-69.5 -102.5q-63 -77 -150 -209t-125 -209q-22 -42 -29 -121.5 t-8 -326.5q-3 -248 -10 -281q-9 -27 -43 -43t-45 2q-18 21 -18 397q0 241 -4 291q-7 40 -33 90q-40 82 -123.5 213t-142.5 203q-56 70 -67 101zM358 1741q0 18 4 26q1 1 6.5 12.5t8.5 12.5q2 2 6 2h4q20 -4 37 -16q40 -30 59 -49q94 -85 117 -103q50 -40 53 -43 q12 -12 15 -31q4 -17 -1 -32.5t-14 -20.5l-10 -2h-29q-29 4 -41 12q-19 11 -47 39q-15 13 -41.5 36t-39 34t-31 29.5t-27.5 31t-17.5 29t-11.5 33.5z" />
<glyph unicode="&#x1ef3;" horiz-adv-x="665" d="M47 803q0 29 1.5 36.5t10.5 10.5q11 5 21 -8q50 -71 113 -219q48 -107 91.5 -187t53.5 -80q5 0 41.5 83t69.5 169q53 138 84 192t59 54q8 0 16 -4q17 -9 6 -53t-69 -199q-39 -103 -105 -303l-82 -250q-23 -56 -82 -252q-46 -149 -65.5 -198.5t-34.5 -61.5 q-12 -10 -31.5 -10.5t-25.5 8.5q-27 40 74 350l86 275q5 17 3 29t-14 44q-11 37 -80 191q-60 131 -79 184q-1 2 -37 96q-25 61 -25 103zM141 1169q0 19 4 27q1 1 6.5 12.5t8.5 12.5q2 2 6 2h4q18 -4 37 -17q40 -30 59 -49q10 -9 88 -75t82 -70q12 -12 15 -31q4 -17 -1 -32.5 t-14 -20.5l-10 -2l-29 2q-9 0 -51 28q-19 11 -47 39q-22 19 -58.5 49t-51 43.5t-29.5 35.5t-19 46z" />
<glyph unicode="&#x2000;" horiz-adv-x="918" />
<glyph unicode="&#x2001;" horiz-adv-x="1837" />
<glyph unicode="&#x2002;" horiz-adv-x="918" />
<glyph unicode="&#x2003;" horiz-adv-x="1837" />
<glyph unicode="&#x2004;" horiz-adv-x="612" />
<glyph unicode="&#x2005;" horiz-adv-x="459" />
<glyph unicode="&#x2006;" horiz-adv-x="306" />
<glyph unicode="&#x2007;" horiz-adv-x="306" />
<glyph unicode="&#x2008;" horiz-adv-x="229" />
<glyph unicode="&#x2009;" horiz-adv-x="367" />
<glyph unicode="&#x200a;" horiz-adv-x="102" />
<glyph unicode="&#x2010;" horiz-adv-x="679" d="M68 600q0 15 13.5 34.5t35.5 24.5q30 7 334 21q161 7 161 -18q-1 -27 -10 -44.5t-25 -26.5t-31 -13t-38 -7q-51 -7 -200.5 -11t-188.5 1q-47 6 -51 39z" />
<glyph unicode="&#x2011;" horiz-adv-x="679" d="M68 600q0 15 13.5 34.5t35.5 24.5q30 7 334 21q161 7 161 -18q-1 -27 -10 -44.5t-25 -26.5t-31 -13t-38 -7q-51 -7 -200.5 -11t-188.5 1q-47 6 -51 39z" />
<glyph unicode="&#x2012;" horiz-adv-x="679" d="M68 600q0 15 13.5 34.5t35.5 24.5q30 7 334 21q161 7 161 -18q-1 -27 -10 -44.5t-25 -26.5t-31 -13t-38 -7q-51 -7 -200.5 -11t-188.5 1q-47 6 -51 39z" />
<glyph unicode="&#x2013;" horiz-adv-x="888" d="M68 686q0 15 13.5 34.5t35.5 24.5q11 3 85.5 5.5t212 6.5t244.5 9q162 8 162 -18q-1 -27 -10 -44.5t-25 -26.5t-31 -13t-38 -7q-50 -6 -305 -11t-293 1q-47 6 -51 39z" />
<glyph unicode="&#x2014;" horiz-adv-x="1308" d="M68 686q0 15 13.5 34.5t35.5 24.5q10 2 191.5 5t420 7t350.5 9q162 8 162 -18q-1 -27 -10 -44.5t-25 -26.5t-31 -13t-38 -7q-48 -6 -515 -11t-503 1q-47 6 -51 39z" />
<glyph unicode="&#x2018;" horiz-adv-x="305" d="M68 1333q12 102 67 240q17 49 53 47h5q17 0 28 -8q9 -6 12.5 -16.5t3.5 -17t-4 -22.5t-4 -18q-16 -42 -36.5 -125t-22.5 -92q-1 -21 -22 -33t-42 -4q-19 1 -30 15.5t-8 33.5z" />
<glyph unicode="&#x2019;" horiz-adv-x="262" d="M70 1321q3 23 10.5 72t12 87t5.5 74q0 52 33 54q43 -9 59 -56q9 -68 3 -133q-16 -91 -50 -129q-24 -20 -53 -10t-20 41z" />
<glyph unicode="&#x201a;" horiz-adv-x="321" d="M68 -74q12 102 67 240q17 49 53 47h5q17 0 28 -8q9 -6 12.5 -16.5t3.5 -17t-4 -22.5t-4 -18q-16 -42 -36.5 -125t-22.5 -92q-1 -21 -22 -33t-42 -4q-19 1 -30 15.5t-8 33.5z" />
<glyph unicode="&#x201c;" horiz-adv-x="481" d="M68 1333q12 102 67 240q17 49 53 47h5q17 0 28 -8q9 -6 12.5 -16.5t3.5 -17t-4 -22.5t-4 -18q-16 -42 -36.5 -125t-22.5 -92q-1 -21 -22 -33t-42 -4q-19 1 -30 15.5t-8 33.5zM240 1321q-1 19 5 41.5t12.5 36.5t19.5 40l18 36q2 4 9 16l10.5 18t11 16t13.5 15t15 9.5 t19 4.5q2 0 4 2q12 0 24.5 -10t12.5 -22q-2 -32 -25.5 -86t-28.5 -74q-4 -9 -11 -46.5t-23 -51.5q-27 -18 -57.5 2.5t-28.5 52.5z" />
<glyph unicode="&#x201d;" horiz-adv-x="425" d="M70 1321q3 23 10.5 72t12 87t5.5 74q0 52 33 54q43 -9 59 -56q9 -68 3 -133q-16 -91 -50 -129q-24 -20 -53 -10t-20 41zM205 1257q0 8 5.5 28.5t6.5 27.5q5 19 23.5 89t25.5 109q3 28 17.5 51t38.5 27h2q24 -3 30 -26q2 -14 3 -29.5t0.5 -27t-3 -30t-4 -27.5t-5.5 -30 t-5 -28q-1 -6 -5.5 -25.5t-6.5 -28t-7.5 -25t-10.5 -26t-13 -21.5t-18 -20q-45 -35 -70 -16q-4 20 -4 28z" />
<glyph unicode="&#x201e;" horiz-adv-x="458" d="M70 6q21 146 61 240q7 18 24.5 25t34.5 -1q22 -3 34 -23.5t3 -39.5q-4 -18 -27.5 -97t-29.5 -122q-1 -3 -5.5 -17t-8 -20.5t-11.5 -14t-20 -8.5q-17 0 -29 9l-4 2q-30 15 -22 67zM257.5 -8q0.5 15 0.5 18q1 9 2.5 39.5t3 45.5t7.5 37.5t16 39.5q14 27 50.5 29.5 t51.5 -25.5q6 -20 -5.5 -56t-12.5 -46q-6 -20 -13.5 -78t-21.5 -88q-6 -10 -21.5 -12t-25.5 4q-2 2 -4 2q-8 6 -13.5 14.5t-8 15.5t-4 20t-2 19t0 21z" />
<glyph unicode="&#x2022;" horiz-adv-x="632" d="M184 641q-40 84 15 188q25 35 73 62q31 8 68 8q106 0 143 -98q43 -114 -22 -211q-24 -27 -59 -43t-74 -17t-78.5 27t-65.5 84z" />
<glyph unicode="&#x2026;" horiz-adv-x="761" d="M68 160q0 30 34 73q14 20 38 23t40 -16q18 -22 22 -50.5t-9 -52.5q-12 -16 -38 -19t-44 1q-14 1 -27 14t-16 27zM313 160q0 29 35 73q14 20 38 23t40 -16q18 -22 21.5 -50.5t-9.5 -52.5q-12 -16 -38 -19t-44 1q-14 1 -27 14t-16 27zM559 160q0 29 35 73q14 20 38 23 t40 -16q18 -22 21.5 -50.5t-9.5 -52.5q-12 -16 -38 -19t-44 1q-14 1 -27 14t-16 27z" />
<glyph unicode="&#x202f;" horiz-adv-x="367" />
<glyph unicode="&#x2039;" horiz-adv-x="681" d="M129 737q-11 25 14 54q124 150 215 229l103 88q14 16 47 20q36 -10 43 -22q9 -10 9 -27t-9 -28q-17 -20 -53.5 -49.5t-51.5 -45.5q-126 -126 -186 -211q-11 -21 -4 -28q6 -14 16.5 -28.5t19 -24t23 -25t21.5 -23.5q49 -51 225 -223l5 -5l6 -6l5.5 -5.5t5 -5.5l4.5 -6 t4 -6.5t3 -6.5t2.5 -7t1 -7t0.5 -8q-4 -16 -14.5 -28t-26.5 -9q-8 1 -15.5 3.5t-15.5 7t-13.5 7.5t-14 10.5t-11.5 10t-12.5 11.5t-11.5 11q-125 109 -256 256q-62 73 -78 127z" />
<glyph unicode="&#x203a;" horiz-adv-x="583" d="M68 377q-2 23 34 59q18 18 96 94t119 119q6 7 20 22t22 24t18 23t16 27q6 6 -4 27q-67 93 -178 201q-14 14 -48 42.5t-50 47.5q-9 11 -9 27t9 26q8 12 41 21q30 -4 45 -19q18 -17 54.5 -48t41.5 -36q94 -82 205 -219q24 -28 14 -51q-16 -52 -74 -121q-127 -144 -243 -244 q-1 -1 -15 -13.5t-18.5 -15.5t-16 -11t-21 -11.5t-20.5 -5.5q-14 -3 -24.5 8.5t-13.5 26.5z" />
<glyph unicode="&#x2044;" horiz-adv-x="843" d="M-9 -175.5q3 30.5 15 44.5q19 19 45 76q65 140 270 606.5t347 751.5q61 115 114 223q31 64 46.5 83t37.5 19q28 0 37 -12q10 -15 -24 -103t-103 -225q-150 -295 -276.5 -580t-290.5 -685q-9 -24 -36 -71t-38 -71q-8 -19 -22 -48t-15 -32q-9 -15 -49 -22.5t-51 4.5 q-10 11 -7 41.5z" />
<glyph unicode="&#x205f;" horiz-adv-x="459" />
<glyph unicode="&#x20ac;" horiz-adv-x="956" d="M66 643q-2 25 8.5 45.5t40.5 20.5q14 2 39 2h16v84l-27 2q-68 0 -77 26q-2 25 8.5 45.5t40.5 20.5q14 2 39 2h26q7 48 25 129q31 133 79 217.5t132 153.5q87 71 153 84q27 6 52 6q63 0 114.5 -35t79.5 -98q16 -36 19.5 -62t-5.5 -40.5t-30 -14.5q-11 0 -26 12.5t-48 50.5 q-60 69 -92 80t-90 -20q-157 -88 -213 -291q-22 -87 -33 -172l184 2q226 0 228 -41q1 -13 -3 -22.5t-14 -15t-15.5 -7.5t-20.5 -5t-17 -3q-35 -6 -107 -6q-10 0 -38.5 1t-69.5 1h-135q-4 -58 -4 -84l196 2q226 0 228 -41q0 -11 -3 -20t-7.5 -13.5t-14 -8.5t-14.5 -5.5 t-16.5 -3.5t-14.5 -3q-35 -6 -107 -6t-108 2h-137q14 -144 53 -231q27 -59 82 -106t108 -54q18 -4 60 5t76 24q21 7 104 59q73 46 88 41q16 -8 15 -27.5t-22 -50t-56 -61.5q-80 -70 -152 -90q-34 -9 -106.5 -12.5t-100.5 2.5q-57 13 -129 100q-62 76 -92.5 166.5 t-40.5 236.5h-31q-68 0 -77 27z" />
<glyph unicode="&#x2122;" horiz-adv-x="1024" d="M68 1577q-3 14 9.5 25.5t28.5 13.5q32 4 68.5 5t81.5 0.5t70 0.5h61h59q13 -1 23.5 0t22.5 -0.5t20 -5.5q22 -12 18.5 -40t-28.5 -34q-43 -6 -174 -6q0 -92 4 -268l2 -108q1 -107 -2 -107q-3 -13 -14.5 -23t-24.5 -10q-32 5 -41 18q-2 47 -2 140t-2 139q-3 37 -3 110 t-3 109q-15 1 -42.5 1t-50.5 1t-43 4q-32 4 -38 35zM539 1051q-1 51 0.5 147t1.5 127q0 22 1 65.5t1.5 70.5t2 64t5.5 68q3 38 29 47.5t57 -20.5q17 -25 53 -88t58 -94q23 32 59 95.5t45 78.5q7 19 29 24t39 -6q8 -4 13 -9.5t7.5 -15t3.5 -14t1.5 -17.5t0.5 -15 q3 -53 5.5 -116.5t3 -109.5t0.5 -119.5t1 -111.5q0 -4 0.5 -32t-4.5 -32q-6 -13 -19.5 -17.5t-25.5 1.5q-37 12 -37 76q-5 293 -8 354q-8 -10 -19.5 -30t-17.5 -29q-2 -3 -19.5 -31.5t-29.5 -40.5q-13 -12 -32 -10.5t-31 16.5q-18 23 -72 115q-1 1 -2 4q-6 9 -6 2 q-3 -66 -4.5 -189.5t-3.5 -171.5q0 -24 -11 -44t-34 -23q-14 -3 -27 6.5t-14 24.5z" />
<glyph unicode="&#x2212;" horiz-adv-x="888" d="M68 686q0 15 13.5 34.5t35.5 24.5q11 3 85.5 5.5t212 6.5t244.5 9q162 8 162 -18q-1 -27 -10 -44.5t-25 -26.5t-31 -13t-38 -7q-50 -6 -305 -11t-293 1q-47 6 -51 39z" />
<glyph unicode="&#x2260;" horiz-adv-x="888" d="M68 561q0 15 13.5 35t35.5 25q16 5 215 8q23 37 94 147q-261 -7 -307 0q-47 6 -51 39q0 15 13.5 34.5t35.5 24.5q9 2 57 3.5t148 5t176 6.5l47 72q68 103 93 118q9 5 15 2q27 -22 33.5 -47t0.5 -43t-21 -47q-2 -3 -6 -10t-11 -18.5t-14 -22.5q8 2 24 2q162 8 162 -18 q-1 -27 -10 -44.5t-25 -26.5t-31 -13t-38 -7q-53 -5 -156 -8l-94 -145q28 1 92.5 4t99.5 4q162 8 162 -18q-1 -27 -10 -44.5t-25 -26.5t-31 -13t-38 -7q-30 -4 -324 -12q-128 -190 -141 -203q-33 -36 -62 -18q-13 9 -20.5 30.5t0.5 43.5q6 12 90 147q-106 -3 -141 2 q-47 6 -51 39z" />
<glyph unicode="&#x2264;" horiz-adv-x="694" d="M68 442q0 26 161 19q69 -3 134 -5.5t97 -4t59.5 -2.5t39.5 -2t19 -3q22 -5 35.5 -24.5t13.5 -34.5q-4 -33 -52 -39q-37 -6 -195.5 -3t-207.5 9q-23 3 -37.5 6.5t-31 12.5t-25.5 26.5t-10 44.5zM81.5 704.5q-4.5 14.5 2 38t27.5 48.5q25 21 113.5 93.5t133.5 112.5l103 88 q15 17 47 21q35 -10 43 -23q9 -11 9 -28t-9 -27q-17 -20 -53.5 -49t-51.5 -45q-36 -36 -109 -96t-110 -93q-2 -4 59.5 -29t144 -53.5t130.5 -41.5q17 -4 26 -7t20.5 -10.5t17.5 -19.5q6 -13 1.5 -30.5t-20.5 -23.5q-36 -12 -110 9q-142 46 -210.5 71t-189.5 76 q-10 4 -14.5 18.5z" />
<glyph unicode="&#x2265;" horiz-adv-x="694" d="M68 385q0 15 13.5 34.5t35.5 24.5q7 2 19 3t39.5 2t59 2.5t96.5 4t134 5.5q162 8 162 -19q-1 -26 -10 -44t-25.5 -27t-31.5 -12.5t-38 -6.5q-49 -6 -207.5 -9t-195.5 3q-47 6 -51 39zM68 553q-4 18 2 31q12 25 63 37q48 13 130.5 41.5t144 53.5t59.5 29q-37 33 -110 93 t-109 96q-15 16 -51.5 45t-53.5 49q-9 10 -9 27t9 28q8 13 43 23q32 -4 47 -21l103 -88q45 -39 130.5 -109t117.5 -97q21 -25 27.5 -48.5t1.5 -38t-15 -18.5q-178 -76 -399 -147q-75 -21 -111 -9q-16 5 -20 23z" />
<glyph unicode="&#x25fc;" horiz-adv-x="860" d="M0 0v860h860v-860h-860z" />
<glyph horiz-adv-x="337" d="M102 1073q0 17 1 27t4 24.5t12 23.5t24 13q34 8 54 -37q14 -32 8 -116q-3 -14 -17 -25q-10 -8 -30 -16q-9 -2 -19 0t-21.5 14.5t-13.5 36.5q-2 16 -2 55zM112 512.5q-5 237.5 1 275.5q6 48 39 52q29 0 41 -49q9 -39 20 -508q8 -162 -18 -162q-26 2 -41.5 19t-20.5 34.5 t-10 50.5q-6 50 -11 287.5z" />
</font>
</defs>
</svg>
